<svg xmlns="http://www.w3.org/2000/svg" xmlns:xlink="http://www.w3.org/1999/xlink" width="69" height="69" viewBox="0 0 69 69">
  <defs>
    <clipPath id="clip-path">
      <rect id="Rectangle_412685" data-name="Rectangle 412685" width="40" height="42" transform="translate(-3172 -1909)" fill="#fff" stroke="#707070" stroke-width="1" opacity="0"/>
    </clipPath>
  </defs>
  <g id="Group_1205649" data-name="Group 1205649" transform="translate(3186.051 1922.702)">
    <g id="Group_1205650" data-name="Group 1205650" transform="translate(-3471.051 -19605.109)">
      <g id="Group_1204377" data-name="Group 1204377" transform="translate(285 17682.408)">
        <g id="Group_1204376" data-name="Group 1204376" transform="translate(0 -0.001)">
          <g id="Group_1203893" data-name="Group 1203893" transform="translate(0 0)">
            <g id="Group_1200255" data-name="Group 1200255" transform="translate(0 0)">
              <g id="Group_1187152" data-name="Group 1187152" transform="translate(0 0)">
                <g id="Group_1185946" data-name="Group 1185946">
                  <g id="Group_1184280" data-name="Group 1184280">
                    <g id="Group_1182168" data-name="Group 1182168">
                      <g id="Group_1178877" data-name="Group 1178877">
                        <g id="Group_1111311" data-name="Group 1111311">
                          <g id="Group_1098742" data-name="Group 1098742" transform="translate(0 0)">
                            <g id="Rectangle_400898" data-name="Rectangle 400898" transform="translate(0 0)" fill="#e7af74" stroke="#ad8b68" stroke-width="1" opacity="0.859">
                              <rect width="69" height="69" rx="34.5" stroke="none"/>
                              <rect x="0.5" y="0.5" width="68" height="68" rx="34" fill="none"/>
                            </g>
                            <g id="Rectangle_400907" data-name="Rectangle 400907" transform="translate(0 0)" fill="none" stroke="#ad8b68" stroke-width="1">
                              <rect width="69" height="69" rx="34.5" stroke="none"/>
                              <rect x="0.5" y="0.5" width="68" height="68" rx="34" fill="none"/>
                            </g>
                          </g>
                        </g>
                      </g>
                    </g>
                  </g>
                </g>
              </g>
            </g>
          </g>
        </g>
      </g>
    </g>
    <g id="Mask_Group_1099448" data-name="Mask Group 1099448" clip-path="url(#clip-path)">
      <g id="estudiar" transform="translate(-3172.622 -1908.778)">
        <g id="Group_1205659" data-name="Group 1205659">
          <g id="Group_1205652" data-name="Group 1205652">
            <path id="Path_1599416" data-name="Path 1599416" d="M16.7,17.081H26.929a.876.876,0,0,0,.838-1.129,6.218,6.218,0,0,0-11.9,0,.876.876,0,0,0,.838,1.129Z" fill="#8ac9fe" fill-rule="evenodd"/>
            <path id="Path_1599417" data-name="Path 1599417" d="M26.929,17.081a.876.876,0,0,0,.838-1.128,6.223,6.223,0,0,0-6.828-4.357,6.223,6.223,0,0,1,5.076,4.357.876.876,0,0,1-.838,1.128h1.752Z" fill="#60b7ff" fill-rule="evenodd"/>
            <circle id="Ellipse_12738" data-name="Ellipse 12738" cx="3.143" cy="3.143" r="3.143" transform="translate(18.673 4.733)" fill="#f6dccd"/>
            <path id="Path_1599418" data-name="Path 1599418" d="M21.816,4.733a3.143,3.143,0,1,1-.438,6.255,3.143,3.143,0,0,0,0-6.225A3.164,3.164,0,0,1,21.816,4.733Z" fill="#f1cbbc" fill-rule="evenodd"/>
          </g>
          <g id="Group_1205655" data-name="Group 1205655">
            <g id="Group_1205653" data-name="Group 1205653">
              <path id="Path_1599419" data-name="Path 1599419" d="M10.937,15.833H32.694a.646.646,0,0,1,.645.645V34.243a.5.5,0,0,1-.5.5H10.8a.5.5,0,0,1-.5-.5V16.478a.646.646,0,0,1,.645-.645Z" fill="#ecba78" fill-rule="evenodd"/>
              <path id="Path_1599420" data-name="Path 1599420" d="M31.082,15.833h1.612a.646.646,0,0,1,.645.645V34.243a.5.5,0,0,1-.5.5H31.224a.5.5,0,0,0,.5-.5V16.478a.646.646,0,0,0-.645-.645Z" fill="#e3a76f" fill-rule="evenodd"/>
            </g>
            <g id="Group_1205654" data-name="Group 1205654">
              <path id="Path_1599421" data-name="Path 1599421" d="M39.6,25.327l-6.015-9.2a.628.628,0,0,0-.54-.292H10.587a.628.628,0,0,0-.54.292l-6.015,9.2a.644.644,0,0,0,.54,1H39.059A.644.644,0,0,0,39.6,25.327Z" fill="#e3a76f" fill-rule="evenodd"/>
              <path id="Path_1599422" data-name="Path 1599422" d="M39.6,25.327l-6.015-9.2a.628.628,0,0,0-.54-.292H31.663l5.152,7.882a.644.644,0,0,1-.54,1H4.434l-.4.614a.644.644,0,0,0,.54,1H39.059a.644.644,0,0,0,.54-1Z" fill="#c48958" fill-rule="evenodd"/>
            </g>
          </g>
          <g id="Group_1205656" data-name="Group 1205656">
            <path id="Path_1599423" data-name="Path 1599423" d="M17.848,17.674c1.909.062,2.436.654,3.919.929v5.233a12.559,12.559,0,0,0-3.946-1.06.322.322,0,0,1-.307-.322V18a.321.321,0,0,1,.333-.322Z" fill="#d1d1d6" fill-rule="evenodd"/>
            <path id="Path_1599424" data-name="Path 1599424" d="M25.784,17.674c-1.919.062-2.533.654-4.017.929v5.233a13.111,13.111,0,0,1,4.043-1.06.322.322,0,0,0,.307-.322V18a.322.322,0,0,0-.333-.322Z" fill="#eceff1" fill-rule="evenodd"/>
          </g>
          <g id="Group_1205658" data-name="Group 1205658">
            <g id="Group_1205657" data-name="Group 1205657">
              <circle id="Ellipse_12739" data-name="Ellipse 12739" cx="6.359" cy="6.359" r="6.359" transform="translate(0.622 24.914) rotate(-9.208)" fill="#8ac9fe"/>
              <path id="Path_1599425" data-name="Path 1599425" d="M7.923,23.815a6.424,6.424,0,0,0-.806.051,6.36,6.36,0,0,1,0,12.618,6.424,6.424,0,0,0,.806.051,6.359,6.359,0,1,0,0-12.719Z" fill="#60b7ff" fill-rule="evenodd"/>
            </g>
            <path id="Path_1599426" data-name="Path 1599426" d="M4.23,29.4a1.125,1.125,0,0,1,1.587,0l1.137,1.137,3.076-3.076a1.122,1.122,0,0,1,1.587,1.587L7.768,32.893a1.226,1.226,0,0,1-1.794-.163L4.23,30.984a1.125,1.125,0,0,1,0-1.587Z" fill="#eceff1" fill-rule="evenodd"/>
          </g>
        </g>
        <path id="Path_1599427" data-name="Path 1599427" d="M10.886,28.589,7.039,32.436a.4.4,0,0,1-.367.131.988.988,0,0,1-.515-.294L4.412,30.529a.477.477,0,1,1,.675-.676L6.224,30.99a.645.645,0,0,0,.912,0l3.076-3.076a.477.477,0,0,1,.675.675ZM11.8,27a1.769,1.769,0,0,0-2.5,0l-2.62,2.62L6,28.941a1.77,1.77,0,0,0-2.5,0h0a1.769,1.769,0,0,0,0,2.5l1.745,1.745a2.27,2.27,0,0,0,1.231.657,1.823,1.823,0,0,0,.267.02,1.686,1.686,0,0,0,1.207-.514L11.8,29.5A1.769,1.769,0,0,0,11.8,27Zm13.4-4.85a12.574,12.574,0,0,0-3.06.743V19.12c.378-.1.7-.21,1.022-.32a7.191,7.191,0,0,1,2.039-.464Zm-7.312-3.818a6.491,6.491,0,0,1,1.946.456c.313.113.636.228,1.016.327v3.774a11.7,11.7,0,0,0-2.963-.739Zm7.957-1.311a8.3,8.3,0,0,0-3.105.558,9.3,9.3,0,0,1-1.244.363,8.428,8.428,0,0,1-1.225-.367,7.773,7.773,0,0,0-3.028-.554.645.645,0,0,0-.645.645v5.1a.645.645,0,0,0,.645.645,11.189,11.189,0,0,1,3.995,1.014l.018.008v0a.632.632,0,0,0,.478,0,12.007,12.007,0,0,1,4.111-1.021.645.645,0,0,0,.645-.645v-5.1A.645.645,0,0,0,25.843,17.024ZM13.016,25.68H38.786l-6.015-9.2H10.313L5.771,23.426a7,7,0,0,1,7.245,2.253ZM32.42,34.1H13.446a6.993,6.993,0,0,0,.43-7.132H32.42ZM7.649,35.889a5.715,5.715,0,1,0-5.715-5.715A5.721,5.721,0,0,0,7.649,35.889ZM21.54,11.937h0a5.814,5.814,0,0,1,5.237,3.251H16.3A5.814,5.814,0,0,1,21.54,11.937ZM18.907,8.012a2.635,2.635,0,1,1,2.636,2.635h0a2.637,2.637,0,0,1-2.633-2.635Zm21.61,17.959L33.659,15.48a.645.645,0,0,0-.54-.292H28.187a7.093,7.093,0,0,0-4.2-4.112,3.924,3.924,0,1,0-4.9,0,7.093,7.093,0,0,0-4.2,4.112H9.964a.645.645,0,0,0-.54.292L3.512,24.526a7,7,0,1,0,8.806,10.865H32.562a1.15,1.15,0,0,0,1.148-1.149V26.969h6.267a.645.645,0,0,0,.539-1Z" fill="#242222" fill-rule="evenodd"/>
      </g>
    </g>
  </g>
</svg>
