<svg xmlns="http://www.w3.org/2000/svg" xmlns:xlink="http://www.w3.org/1999/xlink" width="57.185" height="57.184" viewBox="0 0 57.185 57.184">
  <defs>
    <clipPath id="clip-path">
      <rect id="Rectangle_412074" data-name="Rectangle 412074" width="36" height="35" transform="translate(296.051 17693)" fill="#fff" stroke="#707070" stroke-width="1" opacity="0"/>
    </clipPath>
  </defs>
  <g id="Group_1204398" data-name="Group 1204398" transform="translate(-285 -17682.408)">
    <g id="Group_1204377" data-name="Group 1204377">
      <g id="Group_1204376" data-name="Group 1204376" transform="translate(8981.725 20660.58)">
        <g id="Group_1203893" data-name="Group 1203893" transform="translate(-8696.725 -2978.172)">
          <g id="Group_1200255" data-name="Group 1200255" transform="translate(0 0)">
            <g id="Group_1187152" data-name="Group 1187152">
              <g id="Group_1185946" data-name="Group 1185946">
                <g id="Group_1184280" data-name="Group 1184280">
                  <g id="Group_1182168" data-name="Group 1182168">
                    <g id="Group_1178877" data-name="Group 1178877">
                      <g id="Group_1111311" data-name="Group 1111311">
                        <g id="Group_1098742" data-name="Group 1098742" transform="translate(0 0)">
                          <g id="Rectangle_400898" data-name="Rectangle 400898" transform="translate(0 0)" fill="#e7af74" stroke="#ad8b68" stroke-width="1" opacity="0.859">
                            <rect width="57.184" height="57.184" rx="28.592" stroke="none"/>
                            <rect x="0.5" y="0.5" width="56.184" height="56.184" rx="28.092" fill="none"/>
                          </g>
                          <g id="Rectangle_400907" data-name="Rectangle 400907" transform="translate(0 0)" fill="none" stroke="#ad8b68" stroke-width="1">
                            <rect width="57.184" height="57.184" rx="28.592" stroke="none"/>
                            <rect x="0.5" y="0.5" width="56.184" height="56.184" rx="28.092" fill="none"/>
                          </g>
                        </g>
                      </g>
                    </g>
                  </g>
                </g>
              </g>
            </g>
          </g>
        </g>
      </g>
      <g id="Mask_Group_1099359" data-name="Mask Group 1099359" clip-path="url(#clip-path)">
        <g id="lectura-de-libros" transform="translate(295.603 17692.055)">
          <g id="Group_1204378" data-name="Group 1204378">
            <path id="Path_1469141" data-name="Path 1469141" d="M27.09,14.223a6.523,6.523,0,0,0-4.531-2.047H14.344a6.508,6.508,0,0,0-4.537,2.052l6.342,4.053,7.627.444Z" fill="#e4e6f7"/>
          </g>
          <g id="Group_1204379" data-name="Group 1204379">
            <path id="Path_1469142" data-name="Path 1469142" d="M16.494,18.725H20.4V35.369H16.494Z" fill="#ffbd7b"/>
          </g>
          <g id="Group_1204380" data-name="Group 1204380">
            <path id="Path_1469143" data-name="Path 1469143" d="M16.494,18.725,8.44,15.889l-1.418-.5v15.7l8.336,3.77.865.392Z" fill="#a6eaff"/>
          </g>
          <g id="Group_1204381" data-name="Group 1204381">
            <path id="Path_1469144" data-name="Path 1469144" d="M20.4,18.725l8.048-2.836,1.424-.5v15.7l-8.336,3.77-.871.392Z" fill="#a6eaff"/>
          </g>
          <g id="Group_1204382" data-name="Group 1204382">
            <path id="Path_1469145" data-name="Path 1469145" d="M8.44,15.889V13.825a66.3,66.3,0,0,1,7.7,2.681,2.48,2.48,0,0,1,1.528,2.22Z" fill="#ffbd7b"/>
          </g>
          <g id="Group_1204383" data-name="Group 1204383">
            <path id="Path_1469146" data-name="Path 1469146" d="M28.439,15.889V13.825a66.3,66.3,0,0,0-7.7,2.681,2.48,2.48,0,0,0-1.528,2.22Z" fill="#ffbd7b"/>
          </g>
          <g id="Group_1204384" data-name="Group 1204384">
            <circle id="Ellipse_12515" data-name="Ellipse 12515" cx="5.327" cy="5.327" r="5.327" transform="translate(13.121 1.528)" fill="#e4e6f7"/>
          </g>
          <g id="Group_1204385" data-name="Group 1204385">
            <path id="Path_1469147" data-name="Path 1469147" d="M31.743,20.414v3.978a1.25,1.25,0,0,1-1.251,1.251H29.258a1.25,1.25,0,0,1-1.251-1.251V20.414a1.25,1.25,0,0,1,1.251-1.251h1.234a1.25,1.25,0,0,1,1.251,1.251Z" fill="#e4e6f7"/>
          </g>
          <g id="Group_1204386" data-name="Group 1204386">
            <path id="Path_1469148" data-name="Path 1469148" d="M8.89,20.414v3.978a1.25,1.25,0,0,1-1.251,1.251H6.405a1.25,1.25,0,0,1-1.251-1.251V20.414a1.25,1.25,0,0,1,1.251-1.251H7.639A1.25,1.25,0,0,1,8.89,20.414Z" fill="#e4e6f7"/>
          </g>
          <g id="Group_1204387" data-name="Group 1204387">
            <path id="Path_1469149" data-name="Path 1469149" d="M20.4,35.945H16.494a.578.578,0,0,1-.577-.577V18.725a.578.578,0,0,1,.577-.577H20.4a.578.578,0,0,1,.577.577V35.369A.578.578,0,0,1,20.4,35.945ZM17.07,34.792h2.756V19.3H17.07Z"/>
          </g>
          <g id="Group_1204388" data-name="Group 1204388">
            <path id="Path_1469150" data-name="Path 1469150" d="M16.494,35.945a.564.564,0,0,1-.236-.052L6.786,31.61a.575.575,0,0,1-.34-.525V25.637a.577.577,0,1,1,1.153,0v5.073l9.132,4.128a.58.58,0,0,1-.236,1.107Z"/>
          </g>
          <g id="Group_1204389" data-name="Group 1204389">
            <path id="Path_1469151" data-name="Path 1469151" d="M7.022,19.74a.578.578,0,0,1-.577-.577V15.387a.593.593,0,0,1,.242-.473.584.584,0,0,1,.525-.075l9.472,3.338a.578.578,0,0,1-.386,1.09L7.593,16.2v2.963A.57.57,0,0,1,7.022,19.74Z"/>
          </g>
          <g id="Group_1204390" data-name="Group 1204390">
            <path id="Path_1469152" data-name="Path 1469152" d="M20.4,35.945a.576.576,0,0,1-.236-1.1l9.126-4.128V25.643a.577.577,0,1,1,1.153,0v5.448a.575.575,0,0,1-.34.525l-9.466,4.278a.564.564,0,0,1-.236.052Z"/>
          </g>
          <g id="Group_1204391" data-name="Group 1204391">
            <path id="Path_1469153" data-name="Path 1469153" d="M29.869,19.74a.578.578,0,0,1-.577-.577V16.2l-8.7,3.067a.578.578,0,1,1-.386-1.09l9.466-3.338a.577.577,0,0,1,.767.548v3.776a.566.566,0,0,1-.571.577Z"/>
          </g>
          <g id="Group_1204392" data-name="Group 1204392">
            <path id="Path_1469154" data-name="Path 1469154" d="M17.659,19.3a.578.578,0,0,1-.577-.577,1.909,1.909,0,0,0-1.188-1.695,60.479,60.479,0,0,0-6.878-2.439v1.291a.577.577,0,0,1-1.153,0V13.819A.582.582,0,0,1,8.6,13.26a66.157,66.157,0,0,1,7.777,2.715,3.037,3.037,0,0,1,1.862,2.738A.581.581,0,0,1,17.659,19.3Z"/>
          </g>
          <g id="Group_1204393" data-name="Group 1204393">
            <path id="Path_1469155" data-name="Path 1469155" d="M19.215,19.3a.578.578,0,0,1-.577-.577A3.051,3.051,0,0,1,20.5,15.981a66.157,66.157,0,0,1,7.777-2.715.582.582,0,0,1,.732.559v2.064a.577.577,0,1,1-1.153,0V14.6a60.479,60.479,0,0,0-6.878,2.439,1.9,1.9,0,0,0-1.188,1.695A.573.573,0,0,1,19.215,19.3Z"/>
          </g>
          <g id="Group_1204394" data-name="Group 1204394">
            <path id="Path_1469156" data-name="Path 1469156" d="M18.448,12.752a5.9,5.9,0,1,1,5.9-5.9,5.911,5.911,0,0,1-5.9,5.9Zm0-10.648a4.75,4.75,0,1,0,4.75,4.75,4.755,4.755,0,0,0-4.75-4.75Z"/>
          </g>
          <g id="Group_1204395" data-name="Group 1204395">
            <path id="Path_1469157" data-name="Path 1469157" d="M9.8,14.8a.563.563,0,0,1-.409-.173.574.574,0,0,1,.006-.813,7.06,7.06,0,0,1,4.941-2.214h8.221a7.074,7.074,0,0,1,4.935,2.208.575.575,0,0,1-.8.824,5.95,5.95,0,0,0-4.128-1.879H14.338A5.935,5.935,0,0,0,10.2,14.643a.6.6,0,0,1-.4.161Z"/>
          </g>
          <g id="Group_1204396" data-name="Group 1204396">
            <path id="Path_1469158" data-name="Path 1469158" d="M30.492,26.22H29.258a1.828,1.828,0,0,1-1.828-1.828V20.414a1.828,1.828,0,0,1,1.828-1.828h1.234a1.828,1.828,0,0,1,1.828,1.828v3.978a1.832,1.832,0,0,1-1.828,1.828Zm-1.234-6.48a.672.672,0,0,0-.675.675v3.978a.675.675,0,0,0,.675.675h1.234a.672.672,0,0,0,.675-.675V20.414a.675.675,0,0,0-.675-.675Z"/>
          </g>
          <g id="Group_1204397" data-name="Group 1204397">
            <path id="Path_1469159" data-name="Path 1469159" d="M7.639,26.22H6.405a1.828,1.828,0,0,1-1.828-1.828V20.414a1.828,1.828,0,0,1,1.828-1.828H7.639a1.828,1.828,0,0,1,1.828,1.828v3.978A1.832,1.832,0,0,1,7.639,26.22ZM6.405,19.74a.672.672,0,0,0-.675.675v3.978a.672.672,0,0,0,.675.675H7.639a.672.672,0,0,0,.675-.675V20.414a.672.672,0,0,0-.675-.675Z"/>
          </g>
        </g>
      </g>
    </g>
  </g>
</svg>
