<svg xmlns="http://www.w3.org/2000/svg" width="135.819" height="156.634" viewBox="0 0 135.819 156.634">
  <g id="lista-de-verificacion_3_" data-name="lista-de-verificacion (3)" transform="translate(-34.02)">
    <g id="Group_1205639" data-name="Group 1205639" transform="translate(36.313 2.294)">
      <g id="Group_1205638" data-name="Group 1205638">
        <g id="Group_1205635" data-name="Group 1205635">
          <g id="Group_1205632" data-name="Group 1205632">
            <path id="Path_1599390" data-name="Path 1599390" d="M143.986,187.926H47.131a5.616,5.616,0,0,1-5.616-5.616V54.007a5.616,5.616,0,0,1,5.616-5.616h96.855a5.616,5.616,0,0,1,5.616,5.616v128.3A5.616,5.616,0,0,1,143.986,187.926Z" transform="translate(-41.515 -35.881)" fill="#ffc250"/>
            <path id="Path_1599391" data-name="Path 1599391" d="M333.824,48.39h-18.8a5.616,5.616,0,0,1,5.616,5.616v128.3a5.616,5.616,0,0,1-5.616,5.616h18.8a5.616,5.616,0,0,0,5.616-5.616V54.007a5.616,5.616,0,0,0-5.616-5.617Z" transform="translate(-231.352 -35.881)" fill="#eab14d"/>
            <path id="Path_1599392" data-name="Path 1599392" d="M71.522,197.566V80.405A2.008,2.008,0,0,1,73.529,78.4h85.713a2.008,2.008,0,0,1,2.007,2.007v117.16a2.008,2.008,0,0,1-2.007,2.007H73.53A2.008,2.008,0,0,1,71.522,197.566Z" transform="translate(-62.342 -56.709)" fill="#f5f5f5"/>
            <path id="Path_1599393" data-name="Path 1599393" d="M315.614,78.4h-18.8a2.008,2.008,0,0,1,2.007,2.007v117.16a2.008,2.008,0,0,1-2.007,2.007h18.8a2.008,2.008,0,0,0,2.007-2.007V80.405A2.008,2.008,0,0,0,315.614,78.4Z" transform="translate(-218.713 -56.709)" fill="#eaeaea"/>
            <path id="Path_1599394" data-name="Path 1599394" d="M175.391,14.49V11.533A4.033,4.033,0,0,0,171.358,7.5h-15.8a4.033,4.033,0,0,0-4.033,4.033V14.49a1.649,1.649,0,0,1-1.649,1.649H143.3a3.96,3.96,0,0,0-3.96,3.96v9.09h48.232V20.1a3.96,3.96,0,0,0-3.96-3.96h-6.575A1.65,1.65,0,0,1,175.391,14.49Z" transform="translate(-109.416 -7.5)" fill="#c2d0da"/>
          </g>
          <g id="Group_1205634" data-name="Group 1205634" transform="translate(20.858 33.055)">
            <g id="Group_1205633" data-name="Group 1205633">
              <path id="Path_1599395" data-name="Path 1599395" d="M109.694,136.776V119.095a3.547,3.547,0,0,1,3.547-3.547h17.681a3.547,3.547,0,0,1,3.547,3.547v17.681a3.547,3.547,0,0,1-3.547,3.547H113.241A3.547,3.547,0,0,1,109.694,136.776Z" transform="translate(-109.694 -115.548)" fill="#66b49d"/>
              <path id="Path_1599396" data-name="Path 1599396" d="M109.694,257.182V239.5a3.547,3.547,0,0,1,3.547-3.547h17.681a3.547,3.547,0,0,1,3.547,3.547v17.681a3.547,3.547,0,0,1-3.547,3.547H113.241A3.547,3.547,0,0,1,109.694,257.182Z" transform="translate(-109.694 -199.12)" fill="#66b49d"/>
              <path id="Path_1599397" data-name="Path 1599397" d="M109.694,377.587V359.907a3.547,3.547,0,0,1,3.547-3.547h17.681a3.547,3.547,0,0,1,3.547,3.547v17.681a3.547,3.547,0,0,1-3.547,3.547H113.241A3.547,3.547,0,0,1,109.694,377.587Z" transform="translate(-109.694 -282.69)" fill="#66b49d"/>
            </g>
          </g>
        </g>
        <g id="Group_1205637" data-name="Group 1205637" transform="translate(59.195 35.649)">
          <g id="Group_1205636" data-name="Group 1205636" transform="translate(3.768)">
            <path id="Path_1599398" data-name="Path 1599398" d="M306.674,183.306l-2.253-2.968L295.992,175l-3.24-.511-43.162,68.2a17.767,17.767,0,0,0-2.262,5.341,13.9,13.9,0,0,1,12.322,7.8,17.762,17.762,0,0,0,3.862-4.328Z" transform="translate(-247.328 -159.052)" fill="#fc8086"/>
            <path id="Path_1599399" data-name="Path 1599399" d="M426.345,127.278l-3.642-2.306a6.084,6.084,0,0,0-8.4,1.887l-3.34,5.278,1.066,2.148,10.135,6.418,2.721.25,3.342-5.281a6.084,6.084,0,0,0-1.886-8.393Z" transform="translate(-360.906 -124.027)" fill="#8c9ba6"/>
          </g>
          <path id="Path_1599400" data-name="Path 1599400" d="M0,0H8.673V16.479H0Z" transform="matrix(0.535, -0.845, 0.845, 0.535, 49.197, 15.418)" fill="#c9e2e7"/>
          <path id="Path_1599401" data-name="Path 1599401" d="M251.1,422.7l-12.29,9.9a2.332,2.332,0,0,1-3.731-2.362l3.7-15.344A13.9,13.9,0,0,1,251.1,422.7Z" transform="translate(-235.011 -325.911)" fill="#7c8b96"/>
        </g>
      </g>
    </g>
    <g id="Group_1205642" data-name="Group 1205642" transform="translate(34.02 0)">
      <g id="Group_1205641" data-name="Group 1205641" transform="translate(0 0)">
        <g id="Group_1205640" data-name="Group 1205640">
          <path id="Path_1599402" data-name="Path 1599402" d="M140.13,135.786a2.294,2.294,0,0,0-3.209.488l-4.541,6.17-1.553-2.133a2.3,2.3,0,1,0-3.711,2.7l2.679,3.679a3.2,3.2,0,0,0,2.57,1.312h.008a3.2,3.2,0,0,0,2.569-1.3l5.676-7.711A2.3,2.3,0,0,0,140.13,135.786Z" transform="translate(-98.33 -93.935)"/>
          <path id="Path_1599403" data-name="Path 1599403" d="M140.129,258.813a2.294,2.294,0,0,0-3.209.488l-4.541,6.17-1.553-2.133a2.295,2.295,0,1,0-3.711,2.7l2.679,3.68a3.2,3.2,0,0,0,2.57,1.312h.008a3.2,3.2,0,0,0,2.569-1.3l5.676-7.71A2.3,2.3,0,0,0,140.129,258.813Z" transform="translate(-98.33 -179.325)"/>
          <path id="Path_1599404" data-name="Path 1599404" d="M140.129,376.6a2.294,2.294,0,0,0-3.209.488l-4.541,6.17-1.553-2.133a2.295,2.295,0,1,0-3.711,2.7l2.679,3.68a3.2,3.2,0,0,0,2.57,1.312h.008a3.2,3.2,0,0,0,2.569-1.3l5.676-7.71A2.3,2.3,0,0,0,140.129,376.6Z" transform="translate(-98.33 -261.076)"/>
          <path id="Path_1599405" data-name="Path 1599405" d="M222.82,137.457h28.364a2.3,2.3,0,1,0,0-4.59H222.82a2.3,2.3,0,1,0,0,4.59Z" transform="translate(-163.468 -92.22)"/>
          <path id="Path_1599406" data-name="Path 1599406" d="M222.82,168.8H237a2.3,2.3,0,1,0,0-4.59H222.82a2.3,2.3,0,0,0,0,4.59Z" transform="translate(-163.469 -113.973)"/>
          <path id="Path_1599407" data-name="Path 1599407" d="M222.82,257.862h19.031a2.3,2.3,0,1,0,0-4.59H222.82a2.3,2.3,0,1,0,0,4.59Z" transform="translate(-163.468 -175.79)"/>
          <path id="Path_1599408" data-name="Path 1599408" d="M237,289.2a2.3,2.3,0,1,0,0-4.59H222.82a2.3,2.3,0,0,0,0,4.59Z" transform="translate(-163.469 -197.544)"/>
          <path id="Path_1599409" data-name="Path 1599409" d="M125.72,108.047H108.039a5.849,5.849,0,0,0-5.842,5.842V131.57a5.849,5.849,0,0,0,5.842,5.842H125.72a5.849,5.849,0,0,0,5.842-5.842V113.889A5.849,5.849,0,0,0,125.72,108.047Zm1.252,23.523a1.253,1.253,0,0,1-1.252,1.252H108.039a1.253,1.253,0,0,1-1.252-1.252V113.889a1.253,1.253,0,0,1,1.252-1.252H125.72a1.253,1.253,0,0,1,1.252,1.252Z" transform="translate(-81.34 -74.993)"/>
          <path id="Path_1599410" data-name="Path 1599410" d="M125.72,228.453H108.039a5.849,5.849,0,0,0-5.842,5.842v17.681a5.849,5.849,0,0,0,5.842,5.842H125.72a5.849,5.849,0,0,0,5.842-5.842V234.295A5.848,5.848,0,0,0,125.72,228.453Zm1.252,23.523a1.253,1.253,0,0,1-1.252,1.252H108.039a1.253,1.253,0,0,1-1.252-1.252V234.295a1.253,1.253,0,0,1,1.252-1.252H125.72a1.253,1.253,0,0,1,1.252,1.252Z" transform="translate(-81.34 -158.564)"/>
          <path id="Path_1599411" data-name="Path 1599411" d="M125.72,348.857H108.039A5.849,5.849,0,0,0,102.2,354.7V372.38a5.849,5.849,0,0,0,5.842,5.842H125.72a5.849,5.849,0,0,0,5.842-5.842V354.7A5.849,5.849,0,0,0,125.72,348.857Zm1.252,23.523a1.253,1.253,0,0,1-1.252,1.252H108.039a1.253,1.253,0,0,1-1.252-1.252V354.7a1.253,1.253,0,0,1,1.252-1.252H125.72a1.253,1.253,0,0,1,1.252,1.252Z" transform="translate(-81.34 -242.133)"/>
          <path id="Path_1599412" data-name="Path 1599412" d="M165.945,39.256,162.3,36.949a8.378,8.378,0,0,0-11.563,2.6l-3.34,5.278-4.638,7.328-5.245,8.288V25.992a4.307,4.307,0,0,0-4.3-4.3H116.769V17.1h22.016a3.325,3.325,0,0,1,3.322,3.321V40.3a2.3,2.3,0,0,0,4.59,0V20.421a7.921,7.921,0,0,0-7.912-7.912H116.295a6.263,6.263,0,0,0-5.78-3.87h-5.929V6.328A6.335,6.335,0,0,0,98.257,0H82.46a6.335,6.335,0,0,0-6.328,6.328V8.639H70.2a6.263,6.263,0,0,0-5.78,3.87H41.932a7.92,7.92,0,0,0-7.912,7.912v128.3a7.921,7.921,0,0,0,7.912,7.912h96.854a7.921,7.921,0,0,0,7.912-7.912V97.263a2.3,2.3,0,1,0-4.59,0v51.459a3.325,3.325,0,0,1-3.322,3.321H41.932a3.325,3.325,0,0,1-3.322-3.321V20.421A3.325,3.325,0,0,1,41.932,17.1H63.948v4.59H47.5a4.307,4.307,0,0,0-4.3,4.3V143.151a4.307,4.307,0,0,0,4.3,4.3h85.712a4.307,4.307,0,0,0,4.3-4.3V99.841l23.046-36.416v0L165.2,56.1l3.342-5.281a8.389,8.389,0,0,0-2.6-11.559Zm-8.956,1.075a3.759,3.759,0,0,1,2.858.5l3.642,2.307a3.793,3.793,0,0,1,1.174,5.227L162.549,51.7,152.5,45.341,154.618,42a3.762,3.762,0,0,1,2.371-1.671Zm-43.466,88.842a15.447,15.447,0,0,1-1.453,1.938,16.134,16.134,0,0,0-2.439-2.612l42.764-67.531,3.063,1.94ZM97.851,142.861a.307.307,0,0,0-.043-.016l0,0,3.242-13.465a11.554,11.554,0,0,1,7.577,4.8c-12.152,9.792-10.6,8.525-10.773,8.682Zm52.2-93.641,10.044,6.36-2.183,3.45-10.044-6.36ZM68.538,14.946c0-.028,0-.056,0-.085,0-.01,0-.019,0-.029a1.666,1.666,0,0,1,1.662-1.6h6.575a3.949,3.949,0,0,0,3.944-3.944V6.328A1.74,1.74,0,0,1,82.46,4.59h15.8A1.74,1.74,0,0,1,100,6.328V9.285a3.949,3.949,0,0,0,3.944,3.944h6.575a1.666,1.666,0,0,1,1.662,1.6c0,.01,0,.019,0,.029,0,.028,0,.056,0,.084v6.744H68.538ZM47.79,26.279h85.137V67.694l-24.02,37.957a2.295,2.295,0,1,0,3.879,2.454l32.627-51.558,3.1,1.965-42.764,67.531a16.116,16.116,0,0,0-3.4-1.088,15.518,15.518,0,0,1,1.131-2.143l3.568-5.637a2.295,2.295,0,1,0-3.879-2.454L99.6,120.358a20.022,20.022,0,0,0-2.554,6.032v0l-3.7,15.342a4.764,4.764,0,0,0-.133,1.131H47.79Zm85.137,116.584H105.163l7.877-6.347a20.015,20.015,0,0,0,4.361-4.888l15.526-24.535Z" transform="translate(-34.02 0)"/>
        </g>
      </g>
    </g>
  </g>
</svg>
