<svg id="Page-1" xmlns="http://www.w3.org/2000/svg" width="140.004" height="140.002" viewBox="0 0 140.004 140.002">
  <g id="_046---Legal-Policy" data-name="046---Legal-Policy" transform="translate(0 0)">
    <path id="Path" d="M82.988,60.712a2.333,2.333,0,0,0,0,3.29l-14,14h-.023A2.3,2.3,0,0,0,65.7,78L58,85.679a2.352,2.352,0,0,0,0,3.313L68.031,99H43.321a2.333,2.333,0,0,0-2.333,2.333v11.177a12.01,12.01,0,0,1-10.524,12.11,8.99,8.99,0,0,1-1.12.047H29.32A11.667,11.667,0,0,1,17.654,113V13.158A12.01,12.01,0,0,0,7.13,1.048,8.993,8.993,0,0,0,6.01,1H71.321A11.667,11.667,0,0,1,82.988,12.668Z" transform="translate(8.014 1.332)" fill="#ffdb00" fill-rule="evenodd"/>
    <path id="Path-2" data-name="Path" d="M57.671,12.667A11.667,11.667,0,0,0,46,1H39A11.667,11.667,0,0,1,50.67,12.667V60.711a2.333,2.333,0,0,0,0,3.29l-14,14h-.023a2.3,2.3,0,0,0-3.267,0l-7.7,7.677a2.352,2.352,0,0,0,0,3.313L35.713,99h7L32.68,88.992a2.352,2.352,0,0,1,0-3.313L40.38,78a2.3,2.3,0,0,1,3.267,0h.023l14-14a2.333,2.333,0,0,1,0-3.29Z" transform="translate(33.331 1.333)" fill="#fdc008" fill-rule="evenodd"/>
    <path id="Path-3" data-name="Path" d="M24.334,13.158V64h-21A2.333,2.333,0,0,1,1,61.669v-49A11.667,11.667,0,0,1,12.667,1h.023a8.993,8.993,0,0,1,1.12.047A12.01,12.01,0,0,1,24.334,13.158Z" transform="translate(1.333 1.332)" fill="#ff9701" fill-rule="evenodd"/>
    <path id="Path-4" data-name="Path" d="M9.106,1.048A8.993,8.993,0,0,0,7.986,1H7.963a11.609,11.609,0,0,0-3.435.581,12.19,12.19,0,0,1,8.1,11.576V64h7V13.158A12.01,12.01,0,0,0,9.106,1.048Z" transform="translate(6.038 1.332)" fill="#f47c00" fill-rule="evenodd"/>
    <path id="Path-5" data-name="Path" d="M92.988,54.877v5.017A11.667,11.667,0,0,1,81.321,71.561h-7a4.681,4.681,0,0,0-4.667-4.667h-28a4.681,4.681,0,0,0-4.667,4.667H16.01a8.987,8.987,0,0,0,1.12-.047A12.01,12.01,0,0,0,27.654,59.4V48.227a2.333,2.333,0,0,1,2.333-2.333H54.7l9.567,9.567a2.333,2.333,0,0,0,3.29,0l7.677-7.677a2.333,2.333,0,0,0,0-3.29h.023l3.687-3.663Z" transform="translate(21.347 54.442)" fill="#ffea3a" fill-rule="evenodd"/>
    <path id="Path-6" data-name="Path" d="M45.62,40.83l-3.5,3.5L52.667,54.877v5.017A11.667,11.667,0,0,1,41,71.561h7A11.667,11.667,0,0,0,59.667,59.894V54.877Z" transform="translate(54.668 54.442)" fill="#fcd734" fill-rule="evenodd"/>
    <path id="Path-7" data-name="Path" d="M69.955,46.57l-7.677,7.7a2.333,2.333,0,0,1-3.29,0l-19.6-19.6a2.333,2.333,0,0,1,0-3.29l7.677-7.7a2.352,2.352,0,0,1,3.313,0l19.577,19.6A2.333,2.333,0,0,1,69.955,46.57Z" transform="translate(51.614 30.664)" fill="#9f522d" fill-rule="evenodd"/>
    <path id="Path-8" data-name="Path" d="M66.232,43.28,46.655,23.68a2.352,2.352,0,0,0-3.313,0L41.5,25.528,59.235,43.28a2.333,2.333,0,0,1,0,3.29L53.4,52.4l1.867,1.867a2.333,2.333,0,0,0,3.29,0l7.677-7.7a2.333,2.333,0,0,0,0-3.29Z" transform="translate(55.336 30.664)" fill="#783e22" fill-rule="evenodd"/>
    <path id="Path-9" data-name="Path" d="M59.247,57.28,51.57,64.957a2.333,2.333,0,0,1-3.29,0L38.713,55.39,28.68,45.38a2.352,2.352,0,0,1,0-3.313l7.7-7.677a2.3,2.3,0,0,1,3.267,0h.023l19.577,19.6A2.333,2.333,0,0,1,59.247,57.28Z" transform="translate(37.331 44.945)" fill="#9f522d" fill-rule="evenodd"/>
    <path id="Path-10" data-name="Path" d="M66.6,47.6l-3.687,3.687-6.627,6.65L52.6,61.6h-.023L33,42,47,28Z" transform="translate(44.001 37.335)" fill="#783e22" fill-rule="evenodd"/>
    <path id="Path-11" data-name="Path" d="M78.961,73.961a4.62,4.62,0,0,1-3.29,1.4,4.7,4.7,0,0,1-3.36-1.4L42.98,44.63l6.627-6.65L78.961,67.311a4.648,4.648,0,0,1,0,6.65Z" transform="translate(57.308 50.642)" fill="#9f522d" fill-rule="evenodd"/>
    <path id="Path-12" data-name="Path" d="M62.334,56.667V66A2.333,2.333,0,0,1,60,68.334H27.333A2.333,2.333,0,0,1,25,66V56.667A4.681,4.681,0,0,1,29.667,52h28A4.681,4.681,0,0,1,62.334,56.667Z" transform="translate(33.334 69.336)" fill="#9f522d" fill-rule="evenodd"/>
    <path id="Path-13" data-name="Path" d="M43,52H36a4.681,4.681,0,0,1,4.667,4.667V66a2.333,2.333,0,0,1-2.333,2.333h7A2.333,2.333,0,0,0,47.667,66V56.667A4.681,4.681,0,0,0,43,52Z" transform="translate(48.001 69.336)" fill="#783e22" fill-rule="evenodd"/>
    <g id="Group_1205531" data-name="Group 1205531">
      <path id="Path-14" data-name="Path" d="M17.333,10.667h42a2.333,2.333,0,1,0,0-4.667h-42a2.333,2.333,0,1,0,0,4.667Z" transform="translate(20.001 8)" fill-rule="evenodd"/>
      <path id="Path-15" data-name="Path" d="M17.333,16.667h42a2.333,2.333,0,1,0,0-4.667h-42a2.333,2.333,0,1,0,0,4.667Z" transform="translate(20.001 16.001)" fill-rule="evenodd"/>
      <path id="Path-16" data-name="Path" d="M17.333,22.667h42a2.333,2.333,0,1,0,0-4.667h-42a2.333,2.333,0,1,0,0,4.667Z" transform="translate(20.001 24.001)" fill-rule="evenodd"/>
      <path id="Path-17" data-name="Path" d="M17.333,28.667h42a2.333,2.333,0,1,0,0-4.667h-42a2.333,2.333,0,1,0,0,4.667Z" transform="translate(20.001 32.001)" fill-rule="evenodd"/>
      <path id="Path-18" data-name="Path" d="M17.333,34.667h28a2.333,2.333,0,1,0,0-4.667h-28a2.333,2.333,0,1,0,0,4.667Z" transform="translate(20.001 40.001)" fill-rule="evenodd"/>
      <path id="Path-19" data-name="Path" d="M36,38.333A2.333,2.333,0,0,0,33.667,36H17.333a2.333,2.333,0,1,0,0,4.667H33.667A2.333,2.333,0,0,0,36,38.333Z" transform="translate(20.001 48.002)" fill-rule="evenodd"/>
      <path id="Shape" d="M110.217,88.624l.852-.852a4.748,4.748,0,0,0,1.167.168,4.667,4.667,0,0,0,3.3-1.365l7.691-7.684a4.667,4.667,0,0,0,0-6.6l-19.6-19.584a4.667,4.667,0,0,0-6.6,0l-3.691,3.7V14a14.014,14.014,0,0,0-14-14H14.054A14,14,0,0,0,0,14V63a4.667,4.667,0,0,0,4.667,4.667H23.334v46.667a14.054,14.054,0,0,0,14.024,14H56v7A4.667,4.667,0,0,0,60.668,140H93.335A4.667,4.667,0,0,0,98,135.336v-7h4.667a14,14,0,0,0,13.97-13.412l11.312,11.312a7.036,7.036,0,1,0,9.968-9.931ZM77.7,98.7l-.04-.04-9.994-9.994,7.681-7.679h.016l19.572,19.579-7.67,7.7Zm18.9-3.073L80.3,79.335,91,68.639l16.3,16.3ZM100.335,56l19.6,19.6-7.7,7.674L92.689,63.724a.263.263,0,0,0-.028-.04l.016-.023Zm-77,7H4.667V14A9.366,9.366,0,0,1,7.723,7.1a9.261,9.261,0,0,1,6.249-2.436H14.2a5.039,5.039,0,0,1,.721.035,9.686,9.686,0,0,1,8.412,9.8ZM28,114.335V14.5a14.8,14.8,0,0,0-3.733-9.831H79.335A9.333,9.333,0,0,1,88.668,14V61.284a4.667,4.667,0,0,0-.509,3.6L76.535,76.5a4.65,4.65,0,0,0-4.489,1.19l-7.684,7.681a4.667,4.667,0,0,0,0,6.6L70.4,98H51.334a4.667,4.667,0,0,0-4.667,4.667v11.177a9.7,9.7,0,0,1-8.472,9.8,6.787,6.787,0,0,1-.861.023A9.371,9.371,0,0,1,28,114.335Zm32.667,21V126A2.333,2.333,0,0,1,63,123.669H91A2.333,2.333,0,0,1,93.335,126v9.333Zm51.334-21a9.333,9.333,0,0,1-9.333,9.333h-5.1A7,7,0,0,0,91,119H63a7,7,0,0,0-6.571,4.667H47.6a14.8,14.8,0,0,0,3.733-9.824V102.668H75.072l8.883,8.885a4.678,4.678,0,0,0,6.6,0l7.681-7.679a4.564,4.564,0,0,0,1.2-4.475l.838-.838L112,110.287Zm22.6,8.633a2.389,2.389,0,0,1-3.334-.019l-15.281-15.279-12.407-12.4,3.334-3.332,27.72,27.681a2.315,2.315,0,0,1-.026,3.355Z" transform="translate(0 0)"/>
    </g>
  </g>
</svg>
