<svg xmlns="http://www.w3.org/2000/svg" width="142.78" height="132.669" viewBox="0 0 142.78 132.669">
  <g id="crecimiento-economico_1_" data-name="crecimiento-economico (1)" transform="translate(-7 -24.561)">
    <g id="Group_1205532" data-name="Group 1205532" transform="translate(9.303 27.211)">
      <path id="Path_1598913" data-name="Path 1598913" d="M297.776,94.586H285.039a2.786,2.786,0,0,0-2.783,2.783v99.294a2.793,2.793,0,0,0,2.783,2.791h12.738a2.793,2.793,0,0,0,2.782-2.791V97.369a2.786,2.786,0,0,0-2.782-2.783Z" transform="translate(-205.323 -77.079)" fill="#6cf5c2" fill-rule="evenodd"/>
      <path id="Path_1598914" data-name="Path 1598914" d="M322.384,94.586h-5.573a2.786,2.786,0,0,1,2.782,2.783v99.294a2.793,2.793,0,0,1-2.782,2.791h5.573a2.793,2.793,0,0,0,2.782-2.791V97.369a2.786,2.786,0,0,0-2.782-2.783Z" transform="translate(-229.931 -77.079)" fill="#00e499" fill-rule="evenodd"/>
      <path id="Path_1598915" data-name="Path 1598915" d="M179.682,160.075H166.944a2.786,2.786,0,0,0-2.782,2.783V243.3a2.793,2.793,0,0,0,2.782,2.791h12.738a2.793,2.793,0,0,0,2.782-2.791V162.858a2.786,2.786,0,0,0-2.782-2.783Z" transform="translate(-121.224 -123.716)" fill="#ffe177" fill-rule="evenodd"/>
      <path id="Path_1598916" data-name="Path 1598916" d="M204.29,160.075h-5.573a2.793,2.793,0,0,1,2.791,2.783V243.3a2.8,2.8,0,0,1-2.791,2.791h5.573a2.793,2.793,0,0,0,2.782-2.791V162.858a2.786,2.786,0,0,0-2.782-2.783Z" transform="translate(-145.832 -123.716)" fill="#ffd064" fill-rule="evenodd"/>
      <path id="Path_1598917" data-name="Path 1598917" d="M403.112,33.768h12.738a2.786,2.786,0,0,1,2.783,2.782v116.8a2.793,2.793,0,0,1-2.783,2.791H403.112a2.8,2.8,0,0,1-2.791-2.791V36.55a2.793,2.793,0,0,1,2.791-2.782Z" transform="translate(-289.402 -33.768)" fill="#8ac9fe" fill-rule="evenodd"/>
      <path id="Path_1598918" data-name="Path 1598918" d="M434.9,33.768h5.573a2.786,2.786,0,0,1,2.783,2.782v116.8a2.793,2.793,0,0,1-2.783,2.791H434.9a2.793,2.793,0,0,0,2.783-2.791V36.55a2.786,2.786,0,0,0-2.783-2.782Z" transform="translate(-314.029 -33.768)" fill="#60b7ff" fill-rule="evenodd"/>
      <path id="Path_1598919" data-name="Path 1598919" d="M48.859,223.02h12.73a2.793,2.793,0,0,1,2.791,2.783v62.323a2.8,2.8,0,0,1-2.791,2.791H48.859a2.8,2.8,0,0,1-2.791-2.791V225.8A2.793,2.793,0,0,1,48.859,223.02Z" transform="translate(-37.125 -168.541)" fill="#fe646f" fill-rule="evenodd"/>
      <path id="Path_1598920" data-name="Path 1598920" d="M80.623,223.02H86.2a2.793,2.793,0,0,1,2.791,2.783v62.323a2.8,2.8,0,0,1-2.791,2.791H80.623a2.8,2.8,0,0,0,2.791-2.791V225.8A2.793,2.793,0,0,0,80.623,223.02Z" transform="translate(-61.733 -168.541)" fill="#fd4755" fill-rule="evenodd"/>
      <path id="Path_1598921" data-name="Path 1598921" d="M183,170.234a82.585,82.585,0,0,1-30.119,28.217c-19.388,10.82-40.6,13.309-57.732,8.372,13.089.114,26.276-2.864,40.49-10.8,12.893-7.189,27.915-21.412,35.5-33.75l-6.659-4.463a.81.81,0,0,1-.359-.808.8.8,0,0,1,.571-.677L187.6,148.92a.8.8,0,0,1,.718.1.815.815,0,0,1,.375.62l2.032,24.137a.826.826,0,0,1-.416.792.818.818,0,0,1-.889-.024Z" transform="translate(-72.079 -115.741)" fill="#ffe177" fill-rule="evenodd"/>
      <path id="Path_1598922" data-name="Path 1598922" d="M183,170.234a82.585,82.585,0,0,1-30.119,28.217c-19.388,10.82-40.6,13.309-57.732,8.372.2.008.392.008.588.008h.286c16.1,3.093,37.226-1.126,52.477-9.637s23.933-18.164,30.722-29.139Zm1.428-20.294,1.893,22.53,3.093,2.073a.818.818,0,0,0,.889.024.827.827,0,0,0,.416-.792l-2.032-24.137a.815.815,0,0,0-.375-.62.8.8,0,0,0-.718-.1Z" transform="translate(-72.079 -115.741)" fill="#ffd064" fill-rule="evenodd"/>
      <path id="Path_1598923" data-name="Path 1598923" d="M17.782,452.222H150.391A2.786,2.786,0,0,1,153.174,455v1.346a2.786,2.786,0,0,1-2.782,2.782H17.782A2.786,2.786,0,0,1,15,456.351V455a2.786,2.786,0,0,1,2.782-2.783Z" transform="translate(-15 -331.765)" fill="#a79ba7" fill-rule="evenodd"/>
      <path id="Path_1598924" data-name="Path 1598924" d="M153.174,464.213v.677a2.786,2.786,0,0,1-2.782,2.782H17.782A2.786,2.786,0,0,1,15,464.89v-.677Z" transform="translate(-15 -340.304)" fill="#837683" fill-rule="evenodd"/>
    </g>
    <path id="Path_1598925" data-name="Path 1598925" d="M140.833,145.707h6.644a2.3,2.3,0,0,1,2.3,2.3v6.917a2.3,2.3,0,0,1-2.3,2.3H9.3a2.3,2.3,0,0,1-2.3-2.3V148.01a2.3,2.3,0,0,1,2.3-2.3h6.644V81.769a2.3,2.3,0,0,1,2.3-2.3h18.3a2.3,2.3,0,0,1,2.3,2.3v32.454a2.3,2.3,0,0,1-4.606,0V84.072h-13.7v61.636h13.7V128.281a2.3,2.3,0,0,1,4.606,0v17.426H49.942V129.121a2.3,2.3,0,0,1,4.606,0v16.587h13.7V126.524a2.3,2.3,0,0,1,4.606,0v19.183H83.928V120.419a2.3,2.3,0,0,1,4.606,0v25.288H102.24V109.038a2.3,2.3,0,0,1,4.606,0v36.669h11.077V92.259a2.3,2.3,0,0,1,4.606,0v53.448h13.7V29.167h-13.7V53.495a2.3,2.3,0,1,1-4.606,0V26.864a2.3,2.3,0,0,1,2.3-2.3h18.3a2.3,2.3,0,0,1,2.3,2.3ZM11.606,152.625H145.174v-2.312H11.606ZM106.846,59.6a2.3,2.3,0,1,1-4.606,0V46.452H88.534V90.281a2.3,2.3,0,0,1-4.606,0V44.149a2.3,2.3,0,0,1,2.3-2.3h18.312a2.3,2.3,0,0,1,2.3,2.3ZM72.851,102.341a2.3,2.3,0,1,1-4.606,0V65.665h-13.7V110.35a2.3,2.3,0,1,1-4.606,0V63.362a2.3,2.3,0,0,1,2.3-2.3h18.3a2.3,2.3,0,0,1,2.3,2.3Zm48.5-17.406A90.489,90.489,0,0,1,89.9,113.616h0c-21.128,11.782-44.252,14.449-62.927,9.07a2.3,2.3,0,0,1,.657-4.516c13.5.114,27.094-2.968,41.754-11.145C82.092,99.935,96.8,86.261,104.958,73.937l-6.7-4.486a2.3,2.3,0,0,1,.5-4.078l26.346-9.538a2.3,2.3,0,0,1,3.074,1.921l3.121,29.3a2.3,2.3,0,0,1-3.573,2.157Zm.612-5.135,4.238,2.842-2.287-21.475L104.6,68.156l4.79,3.209a2.3,2.3,0,0,1,.681,3.118c-8.212,13.371-24.479,28.772-38.448,36.565a92.452,92.452,0,0,1-24.779,9.7,85.269,85.269,0,0,0,40.807-11.151A85.27,85.27,0,0,0,118.72,80.5a2.3,2.3,0,0,1,3.24-.7Z" fill-rule="evenodd"/>
  </g>
</svg>
