<svg xmlns="http://www.w3.org/2000/svg" xmlns:xlink="http://www.w3.org/1999/xlink" width="90" height="90" viewBox="0 0 90 90">
  <defs>
    <clipPath id="clip-path">
      <rect id="Rectangle_412669" data-name="Rectangle 412669" width="51" height="62" transform="translate(-6628 -1957)" fill="#fff" stroke="#707070" stroke-width="1" opacity="0"/>
    </clipPath>
  </defs>
  <g id="Group_1205572" data-name="Group 1205572" transform="translate(6648 1971)">
    <g id="Group_1205572-2" data-name="Group 1205572" transform="translate(2024 30)">
      <g id="Group_1205426" data-name="Group 1205426" transform="translate(-9479.781 -4554)">
        <g id="Rectangle_411076" data-name="Rectangle 411076" transform="translate(807.781 2553)" fill="#dfe3bc" stroke="#aeba58" stroke-width="3">
          <rect width="90" height="90" rx="20" stroke="none"/>
          <rect x="1.5" y="1.5" width="87" height="87" rx="18.5" fill="none"/>
        </g>
      </g>
    </g>
    <g id="Mask_Group_1099445" data-name="Mask Group 1099445" clip-path="url(#clip-path)">
      <g id="Fill_out_line" data-name="Fill out line" transform="translate(-6629.7 -1953.2)">
        <rect id="Rectangle_412670" data-name="Rectangle 412670" width="30.6" height="44.2" rx="2.55" transform="translate(2.55 7.65)" fill="#537ec2"/>
        <rect id="Rectangle_412671" data-name="Rectangle 412671" width="27.2" height="40.8" rx="1.275" transform="translate(4.25 9.35)" fill="#f0cd81"/>
        <rect id="Rectangle_412672" data-name="Rectangle 412672" width="12.75" height="3.4" rx="1.7" transform="translate(11.05 13.6)" fill="#f57a08"/>
        <path id="Path_1599289" data-name="Path 1599289" d="M22.087,7.663A2.931,2.931,0,0,0,20.006,6.8a.94.94,0,0,1-.739-.358L19.234,6.4a.934.934,0,0,1-.021-1.135,1.7,1.7,0,1,0-2.741-.02.958.958,0,0,1-.011,1.16l-.03.037a.936.936,0,0,1-.327.264.951.951,0,0,1-.41.094A2.945,2.945,0,0,0,12.75,9.744v.881A1.275,1.275,0,0,0,14.025,11.9h7.65a1.275,1.275,0,0,0,1.275-1.275V9.744a2.931,2.931,0,0,0-.863-2.081ZM17.85,5.1a.85.85,0,1,1,.85-.85.85.85,0,0,1-.85.85Z" fill="#b1cdb4"/>
        <path id="Path_1599290" data-name="Path 1599290" d="M52.7,43.82V51H41.779l-2.921-4.851-.105-.174c-.436-.939.649-2.685,4.561-5.174,3.984-2.536,5.963-2.756,6.525-1.91l.061.1h0Z" fill="#133852"/>
        <g id="Group_1205574" data-name="Group 1205574">
          <path id="Path_1599291" data-name="Path 1599291" d="M39.064,34.85c0-2.55-1.7-5.1-4.25-5.1s-3.825,2.975-4.675,4.675-3.4,1.275-3.4-.425,1.275-2.55,2.975-4.25c0,0,3.187-4,6.482-3.825,2.125.035,3.9.885,4,3.152a19.755,19.755,0,0,1-1.134,5.773" fill="#f5a971"/>
          <path id="Path_1599292" data-name="Path 1599292" d="M39.489,37.443c0-2.55-1.7-5.1-4.25-5.1s-3.506,3.224-4.356,4.924a1.389,1.389,0,1,1-2.527-1.142C28.887,34.637,29.4,34,31.1,32.3l2.477-3.483,7.5,2.031Z" fill="#f5a971"/>
          <path id="Path_1599293" data-name="Path 1599293" d="M38.223,23.694v4.223C34,24.73,28.9,28.9,28.9,28.9c-.85.85-2.55.85-2.55-1.7s1.7-5.1,4.25-5.1A15.517,15.517,0,0,1,38.223,23.694Z" fill="#f5a971"/>
          <path id="Path_1599294" data-name="Path 1599294" d="M50.114,46.75l-1.7-6.8a65.137,65.137,0,0,0-5.95-14.45c-2.55-4.25-8.5-5.95-11.05-5.1s-3.4,5.1-3.4,5.95,1.7,1.7,3.4-.85,2.55-2.55,5.1,0,1.7,9.35-.85,9.35a4.015,4.015,0,0,1-4.25-4.25,1.712,1.712,0,1,0-3.4,0,10.343,10.343,0,0,0,4.25,8.5c3.4,2.55,8.5,2.55,11.05,6.8l.368.717Z" fill="#f5a971"/>
        </g>
        <path id="Path_1599295" data-name="Path 1599295" d="M23.764,31.45l2.55-3.4,17.85-8.5,1.718,3.436L28.014,31.45Z" fill="#03999c"/>
        <path id="Path_1599296" data-name="Path 1599296" d="M44.562,20.347l2.868-1.359.94,1.879L45.5,22.226Z" fill="#03999c"/>
        <path id="Path_1599297" data-name="Path 1599297" d="M28.014,31.45l-1.7-3.4-2.55,3.4Z" fill="#72baaa"/>
        <path id="Path_1599298" data-name="Path 1599298" d="M37.469,26.971c1.286,3.045.344,7.879-1.806,7.879a4.015,4.015,0,0,1-4.25-4.25,1.712,1.712,0,1,0-3.4,0,10.343,10.343,0,0,0,4.25,8.5c3.4,2.55,8.5,2.55,11.05,6.8l.368.717,6.432.133-1.7-6.8a65.137,65.137,0,0,0-5.95-14.45q-.211-.352-.452-.681Z" fill="#f5a971"/>
        <path id="Path_1599299" data-name="Path 1599299" d="M38.964,22.058c-2.693-1.667-5.865-2.219-7.55-1.657-2.55.85-3.4,5.1-3.4,5.95s1.7,1.7,3.4-.85c1.255-1.883,2.047-2.376,3.4-1.478Z" fill="#f5a971"/>
        <path id="Path_1599300" data-name="Path 1599300" d="M52.7,43.82V52.7H42.8l-3.944-6.551c.832,1.1,4.18.785,7.006-1.1s4.626-4.842,4.035-6.055l1.1,1.9Z" fill="#0e638b"/>
        <path id="Path_1599301" data-name="Path 1599301" d="M44.164,23.8l-1.716-3.433,1.716-.817,2.17,4.34a.85.85,0,0,1-.38,1.14l-3.463,1.731A.98.98,0,1,1,41.633,25Z" fill="#72baaa"/>
        <path id="Path_1599302" data-name="Path 1599302" d="M10.749,18.4l-.851.851a1.265,1.265,0,0,0-.548-.126H7.65A1.276,1.276,0,0,0,6.375,20.4v1.7A1.276,1.276,0,0,0,7.65,23.375h1.7A1.276,1.276,0,0,0,10.625,22.1V20.4a1.265,1.265,0,0,0-.126-.548L11.35,19a.425.425,0,1,0-.6-.6Zm-.974,3.7a.425.425,0,0,1-.425.425H7.65a.425.425,0,0,1-.425-.425V20.4a.425.425,0,0,1,.425-.425H9.174l-.974.974a.425.425,0,1,0,.6.6l.974-.974Z"/>
        <path id="Path_1599303" data-name="Path 1599303" d="M10.749,26.049,9.9,26.9a1.265,1.265,0,0,0-.548-.126H7.65A1.276,1.276,0,0,0,6.375,28.05v1.7A1.276,1.276,0,0,0,7.65,31.025h1.7a1.276,1.276,0,0,0,1.275-1.275v-1.7A1.265,1.265,0,0,0,10.5,27.5l.851-.851a.425.425,0,1,0-.6-.6Zm-.974,3.7a.425.425,0,0,1-.425.425H7.65a.425.425,0,0,1-.425-.425v-1.7a.425.425,0,0,1,.425-.425H9.174L8.2,28.6a.425.425,0,1,0,.6.6l.974-.974Z"/>
        <path id="Path_1599304" data-name="Path 1599304" d="M9.35,34.425H7.65A1.276,1.276,0,0,0,6.375,35.7v1.7A1.276,1.276,0,0,0,7.65,38.675h1.7A1.276,1.276,0,0,0,10.625,37.4V35.7A1.276,1.276,0,0,0,9.35,34.425ZM9.775,37.4a.425.425,0,0,1-.425.425H7.65a.425.425,0,0,1-.425-.425V35.7a.425.425,0,0,1,.425-.425h1.7a.425.425,0,0,1,.425.425Z"/>
        <path id="Path_1599305" data-name="Path 1599305" d="M9.35,42.075H7.65A1.276,1.276,0,0,0,6.375,43.35v1.7A1.276,1.276,0,0,0,7.65,46.325h1.7a1.276,1.276,0,0,0,1.275-1.275v-1.7A1.276,1.276,0,0,0,9.35,42.075Zm.425,2.975a.425.425,0,0,1-.425.425H7.65a.425.425,0,0,1-.425-.425v-1.7a.425.425,0,0,1,.425-.425h1.7a.425.425,0,0,1,.425.425Z"/>
        <path id="Path_1599306" data-name="Path 1599306" d="M10.625,15.3a2.127,2.127,0,0,0,2.125,2.125H22.1a2.125,2.125,0,1,0,0-4.25H12.75A2.127,2.127,0,0,0,10.625,15.3Zm2.125-1.275H22.1a1.275,1.275,0,0,1,0,2.55H12.75a1.275,1.275,0,0,1,0-2.55Z"/>
        <path id="Path_1599307" data-name="Path 1599307" d="M12.75,15.725H15.3a.425.425,0,1,0,0-.85H12.75a.425.425,0,0,0,0,.85Z"/>
        <path id="Path_1599308" data-name="Path 1599308" d="M17,15.725h5.1a.425.425,0,1,0,0-.85H17a.425.425,0,0,0,0,.85Z"/>
        <path id="Path_1599309" data-name="Path 1599309" d="M19.975,20.4a.425.425,0,0,0-.425-.425h-5.1a.425.425,0,1,0,0,.85h5.1a.425.425,0,0,0,.425-.425Z"/>
        <path id="Path_1599310" data-name="Path 1599310" d="M21.675,20.4a.425.425,0,0,0,.425.425h6.8a.425.425,0,0,0,0-.85H22.1a.425.425,0,0,0-.425.425Z"/>
        <path id="Path_1599311" data-name="Path 1599311" d="M12.325,22.1a.425.425,0,0,0,.425.425H17a.425.425,0,1,0,0-.85H12.75a.425.425,0,0,0-.425.425Z"/>
        <path id="Path_1599312" data-name="Path 1599312" d="M23.8,21.675H19.55a.425.425,0,1,0,0,.85H23.8a.425.425,0,0,0,0-.85Z"/>
        <path id="Path_1599313" data-name="Path 1599313" d="M14.45,27.625a.425.425,0,1,0,0,.85h3.4a.425.425,0,0,0,0-.85Z"/>
        <path id="Path_1599314" data-name="Path 1599314" d="M12.75,30.175H15.3a.425.425,0,1,0,0-.85H12.75a.425.425,0,0,0,0,.85Z"/>
        <path id="Path_1599315" data-name="Path 1599315" d="M17.425,29.75a.425.425,0,0,0,.425.425H23.8a.425.425,0,0,0,0-.85H17.85a.425.425,0,0,0-.425.425Z"/>
        <path id="Path_1599316" data-name="Path 1599316" d="M14.025,35.7a.425.425,0,0,0,.425.425h3.4a.425.425,0,1,0,0-.85h-3.4a.425.425,0,0,0-.425.425Z"/>
        <path id="Path_1599317" data-name="Path 1599317" d="M12.75,37.825H15.3a.425.425,0,1,0,0-.85H12.75a.425.425,0,1,0,0,.85Z"/>
        <path id="Path_1599318" data-name="Path 1599318" d="M17.425,37.4a.425.425,0,0,0,.425.425H23.8a.425.425,0,0,0,0-.85H17.85a.425.425,0,0,0-.425.425Z"/>
        <path id="Path_1599319" data-name="Path 1599319" d="M14.025,43.35a.425.425,0,0,0,.425.425h3.4a.425.425,0,0,0,0-.85h-3.4a.425.425,0,0,0-.425.425Z"/>
        <path id="Path_1599320" data-name="Path 1599320" d="M19.975,43.35a.425.425,0,0,0,.425.425h8.5a.425.425,0,0,0,0-.85H20.4a.425.425,0,0,0-.425.425Z"/>
        <path id="Path_1599321" data-name="Path 1599321" d="M15.3,44.625H12.75a.425.425,0,0,0,0,.85H15.3a.425.425,0,0,0,0-.85Z"/>
        <path id="Path_1599322" data-name="Path 1599322" d="M23.8,44.625H17.85a.425.425,0,0,0,0,.85H23.8a.425.425,0,0,0,0-.85Z"/>
        <path id="Path_1599323" data-name="Path 1599323" d="M15.3,8.925h5.1a.425.425,0,0,0,0-.85H15.3a.425.425,0,1,0,0,.85Z"/>
        <path id="Path_1599324" data-name="Path 1599324" d="M15.3,10.625h5.1a.425.425,0,0,0,0-.85H15.3a.425.425,0,1,0,0,.85Z"/>
        <circle id="Ellipse_12735" data-name="Ellipse 12735" cx="0.85" cy="0.85" r="0.85" transform="translate(17 3.4)"/>
        <path id="Path_1599325" data-name="Path 1599325" d="M50.67,38.567l-.061-.1c-.009-.015-.017-.03-.027-.044a1.962,1.962,0,0,0-1.757-.823c-.054,0-.111,0-.167,0a71.213,71.213,0,0,0-4.425-10.741l2.137-1.068a1.7,1.7,0,0,0,.761-2.282l-.444-.887,2.084-.986a.851.851,0,0,0,.4-1.149l-.939-1.88A.85.85,0,0,0,47.1,18.22l-2.118,1-.026-.053a.852.852,0,0,0-1.141-.38l-1.691.847L39.046,21.1A13.545,13.545,0,0,0,34,19.4V10.2a3.4,3.4,0,0,0-3.4-3.4H22.4a3.766,3.766,0,0,0-2.393-.85.092.092,0,0,1-.071-.034L19.9,5.871a.087.087,0,0,1-.005-.1A2.524,2.524,0,0,0,20.4,4.25,2.553,2.553,0,0,0,17.851,1.7c-.038,0-.075,0-.114,0a2.549,2.549,0,0,0-1.954,4.041.119.119,0,0,1,.011.135l-.027.033-.005.007a.085.085,0,0,1-.028.022.106.106,0,0,1-.04.009A3.766,3.766,0,0,0,13.3,6.8H5.1a3.4,3.4,0,0,0-3.4,3.4V49.3a3.4,3.4,0,0,0,3.4,3.4H30.6A3.4,3.4,0,0,0,34,49.3V41.078c.779.368,1.583.681,2.369.989.879.343,1.78.695,2.623,1.116a5.611,5.611,0,0,0-.834,1.184,2.188,2.188,0,0,0-.141,1.965.753.753,0,0,0,.044.082l.105.174L41.846,52.7h1.489L40,47.156a4.775,4.775,0,0,0,.781.061A10.317,10.317,0,0,0,46.136,45.4a10.624,10.624,0,0,0,4.176-4.914L52.7,44.606V42.064l-2.014-3.471-.016-.027Zm-3.4-19.017.559,1.119-2.1.995-.56-1.119Zm-3.263.571,1.979,3.959a.425.425,0,0,1-.189.571l-3.464,1.732a.555.555,0,1,1-.486-1l2.531-1.2a.424.424,0,0,0,.2-.574l-1.51-3.02Zm-1.7.842,1.32,2.639-2.139,1.014-9.926,4.7a2.087,2.087,0,0,0-3.838.528l-.8-1.6,1.561-.741c.041.016.083.032.125.045a1.754,1.754,0,0,0,.508.074,3.334,3.334,0,0,0,2.469-1.588ZM35.275,31.919A3.353,3.353,0,0,0,32.7,33.148a3.516,3.516,0,0,1-.644-1.233,3.485,3.485,0,0,1,2.791-1.74,3.439,3.439,0,0,1,2.7,1.371,7.5,7.5,0,0,1-.209.932,4.082,4.082,0,0,0-2.063-.559Zm1.176,1.531A1.017,1.017,0,0,1,35.7,34a3.866,3.866,0,0,1-1.677-.354,1.936,1.936,0,0,1,1.252-.453,2.783,2.783,0,0,1,1.176.256Zm-1.6-4.125a3.912,3.912,0,0,0-2.971,1.461c0-.062,0-.123,0-.186a3.06,3.06,0,0,0-.037-.474l5.434-2.573a8.223,8.223,0,0,1,.385,2.873,4.151,4.151,0,0,0-2.806-1.1Zm-7.076-2.419-.959.454q0-.078,0-.159a5.172,5.172,0,0,1,1.468-3.683,10.43,10.43,0,0,0-.654,2.833,1.13,1.13,0,0,0,.149.556Zm-.411,4.119H24.65l1.628-2.17Zm.4,1.359a11.023,11.023,0,0,0,.779,2.691,1.431,1.431,0,0,1-.9-.225A.99.99,0,0,1,27.2,34a2.6,2.6,0,0,1,.565-1.616Zm4.918-7.8c.44-.465.794-.619,1.171-.555Zm5.4-2.559-3.2,1.518c-1.578-.922-2.594-.061-3.784,1.724-.88,1.321-1.734,1.628-2.239,1.475a.477.477,0,0,1-.382-.389,9.3,9.3,0,0,1,.711-2.811,4.611,4.611,0,0,1,2.4-2.736c1.323-.441,3.961-.138,6.5,1.219ZM30.6,8.075A2.127,2.127,0,0,1,32.725,10.2v9.565a5.739,5.739,0,0,0-.85.09v-9.23a1.7,1.7,0,0,0-1.7-1.7h-6.9a3.339,3.339,0,0,0-.343-.85ZM13.175,9.744a2.523,2.523,0,0,1,2.519-2.519,1.355,1.355,0,0,0,1.071-.519l.03-.037A1.377,1.377,0,0,0,16.816,5a1.268,1.268,0,0,1-.239-.822,1.285,1.285,0,0,1,1.217-1.2h.056a1.276,1.276,0,0,1,1.023,2.037A1.359,1.359,0,0,0,18.9,6.664l.033.041a1.357,1.357,0,0,0,1.072.52,2.523,2.523,0,0,1,2.519,2.519v.881a.851.851,0,0,1-.85.85h-7.65a.851.851,0,0,1-.85-.85Zm.85,2.581h7.65a1.7,1.7,0,0,0,1.7-1.7v-.85h6.8a.851.851,0,0,1,.85.85V20.11A4.629,4.629,0,0,0,29,22.017,5.635,5.635,0,0,0,25.961,27.2c0,.147.006.288.017.425H20.4a.425.425,0,0,0,0,.85h5.1L23.46,31.2a.425.425,0,0,0,.34.68h3.284A3.407,3.407,0,0,0,26.35,34a1.831,1.831,0,0,0,.49,1.275H20.4a.425.425,0,0,0,0,.85h7.547a1.834,1.834,0,0,0,.779,2.225,1.761,1.761,0,0,0,.875.235,1.79,1.79,0,0,0,1.064-.358c.116.12.235.239.36.356V48.875a.851.851,0,0,1-.85.85H5.525a.851.851,0,0,1-.85-.85V10.625a.851.851,0,0,1,.85-.85h6.8v.85a1.7,1.7,0,0,0,1.7,1.7ZM28.792,36.268l.052-.143H28.9a.426.426,0,0,0,.156-.031,10.491,10.491,0,0,0,1.038,1.5.922.922,0,0,1-.947.02,1.032,1.032,0,0,1-.356-1.343ZM32.725,49.3A2.127,2.127,0,0,1,30.6,51.425H5.1A2.127,2.127,0,0,1,2.975,49.3V10.2A2.127,2.127,0,0,1,5.1,8.075h7.669a3.339,3.339,0,0,0-.343.85h-6.9a1.7,1.7,0,0,0-1.7,1.7v38.25a1.7,1.7,0,0,0,1.7,1.7h24.65a1.7,1.7,0,0,0,1.7-1.7V39.307c.056.045.112.089.17.133.22.165.447.319.68.464Zm6.52-3.394-.07-.115c-.206-.47.264-1.312,1.27-2.276A7.982,7.982,0,0,1,42.913,46c-1.761.533-3.247.43-3.669-.1Zm6.42-1.21a10.568,10.568,0,0,1-2.139,1.1l.189-.114c-1.655-2.759-4.313-3.8-6.882-4.8a17.74,17.74,0,0,1-4.278-2.12,9.868,9.868,0,0,1-4.08-8.16,1.29,1.29,0,1,1,2.55,0A4.426,4.426,0,0,0,35.7,35.275a2.2,2.2,0,0,0,1.819-1.128,8.86,8.86,0,0,0,.524-6.959l2.641-1.252a1.4,1.4,0,0,0,2.033,1.206l.175-.088a67.2,67.2,0,0,1,5.146,13L48.525,42A11.592,11.592,0,0,1,45.664,44.7Zm3.49-3.678-.292-1.171c-.074-.3-.163-.623-.26-.965a1,1,0,0,1,.919.244l.01.017a.444.444,0,0,1,.034.063,2.435,2.435,0,0,1-.41,1.812Z"/>
      </g>
    </g>
  </g>
</svg>
