<svg xmlns="http://www.w3.org/2000/svg" xmlns:xlink="http://www.w3.org/1999/xlink" width="90" height="90" viewBox="0 0 90 90">
  <defs>
    <clipPath id="clip-path">
      <rect id="Rectangle_412583" data-name="Rectangle 412583" width="64" height="62" transform="translate(-8659 -1987)" fill="#fff" stroke="#707070" stroke-width="1" opacity="0"/>
    </clipPath>
  </defs>
  <g id="Group_1205526" data-name="Group 1205526" transform="translate(8672 2001)">
    <g id="Group_1205426" data-name="Group 1205426" transform="translate(-9479.781 -4554)">
      <g id="Rectangle_411076" data-name="Rectangle 411076" transform="translate(807.781 2553)" fill="#dfe3bc" stroke="#aeba58" stroke-width="3">
        <rect width="90" height="90" rx="20" stroke="none"/>
        <rect x="1.5" y="1.5" width="87" height="87" rx="18.5" fill="none"/>
      </g>
    </g>
    <g id="Mask_Group_1099441" data-name="Mask Group 1099441" clip-path="url(#clip-path)">
      <g id="Virus_disease_diagnosis" transform="translate(-8660.974 -1989.973)">
        <path id="Path_1599145" data-name="Path 1599145" d="M47.12,10.195V29.259a5.249,5.249,0,0,0-3.359,6.411,5.244,5.244,0,1,0-7.154,7.118,5.259,5.259,0,0,0-1.415-.194c-.113,0-.227,0-.338.011a5.245,5.245,0,1,0,1.765,10.282,5.244,5.244,0,0,0-1.375,8.046,6.408,6.408,0,0,0,3.25,2.076H6.553a3.747,3.747,0,0,1-3.748-3.748V10.195A3.747,3.747,0,0,1,6.553,6.448H43.372A3.747,3.747,0,0,1,47.12,10.2Z" fill="#6893fd"/>
        <path id="Path_1599146" data-name="Path 1599146" d="M22.022,7.894A17.854,17.854,0,0,1,4.168,25.748q-.688,0-1.363-.05v-15.5A3.747,3.747,0,0,1,6.553,6.448H21.965c.037.476.057.958.057,1.445Z" fill="#b2c8fe"/>
        <path id="Path_1599147" data-name="Path 1599147" d="M47.12,19.31v9.949a5.249,5.249,0,0,0-3.359,6.411,5.244,5.244,0,1,0-7.154,7.118,5.259,5.259,0,0,0-1.415-.194c-.113,0-.227,0-.338.011a5.245,5.245,0,1,0,1.765,10.282,5.244,5.244,0,0,0-1.375,8.046,6.408,6.408,0,0,0,3.25,2.076H6.553a3.715,3.715,0,0,1-2.316-.8c6.788-3.219,16.254-9.52,20.592-20.773C29.74,28.7,40.71,22.161,47.12,19.31Z" fill="#4655c7"/>
        <rect id="Rectangle_412601" data-name="Rectangle 412601" width="18.986" height="8.921" rx="1.55" transform="translate(15.47 3.769)" fill="#55d097"/>
        <path id="Path_1599148" data-name="Path 1599148" d="M34.455,5.319v5.822a1.549,1.549,0,0,1-1.55,1.549h-9.96c-.017-.253-.027-.51-.027-.767a11.291,11.291,0,0,1,3.466-8.154h6.52a1.55,1.55,0,0,1,1.55,1.55Z" fill="#1f7b79"/>
        <path id="Path_1599149" data-name="Path 1599149" d="M42.464,10.164H34.456v.976a1.55,1.55,0,0,1-1.55,1.55H17.02a1.55,1.55,0,0,1-1.55-1.55v-.976H7.461a.942.942,0,0,0-.94.94v47.25a.943.943,0,0,0,.94.94h26.8a5.243,5.243,0,0,1,2.357-6.406,5.245,5.245,0,1,1-1.765-10.282c.111-.008.226-.011.338-.011a5.26,5.26,0,0,1,1.415.194,5.247,5.247,0,1,1,6.8-7.679V11.1a.942.942,0,0,0-.94-.94Z" fill="#ffda65"/>
        <path id="Path_1599150" data-name="Path 1599150" d="M43.4,21.152V35.111a5.244,5.244,0,1,0-6.8,7.678,5.259,5.259,0,0,0-1.415-.194c-.113,0-.227,0-.338.011a5.245,5.245,0,1,0,1.765,10.282,5.243,5.243,0,0,0-2.357,6.406H9.538c5.778-3.653,12.006-9.337,15.292-17.86C28.884,30.92,37.066,24.631,43.4,21.152Z" fill="#ffa22c"/>
        <path id="Path_1599151" data-name="Path 1599151" d="M17.02,12.69a1.55,1.55,0,0,1-1.55-1.55v-.976H7.461a.942.942,0,0,0-.94.94v14.49a17.872,17.872,0,0,0,14.848-12.9Z" fill="#fff0c2"/>
        <path id="Path_1599152" data-name="Path 1599152" d="M25.491,7.434H19.239a.8.8,0,1,0,0,1.592h6.253a.8.8,0,0,0,0-1.592Z"/>
        <path id="Path_1599153" data-name="Path 1599153" d="M30.687,7.434h-2.07a.8.8,0,0,0,0,1.592h2.07a.8.8,0,1,0,0-1.592Z"/>
        <path id="Path_1599154" data-name="Path 1599154" d="M43.8,5.652H35.252V5.319a2.349,2.349,0,0,0-2.346-2.346H17.02a2.349,2.349,0,0,0-2.346,2.346v.333H6.131A4.126,4.126,0,0,0,2.01,9.773V59.684a4.126,4.126,0,0,0,4.122,4.122H38.858a.8.8,0,0,0,0-1.592H6.131A2.532,2.532,0,0,1,3.6,59.684V9.773A2.532,2.532,0,0,1,6.131,7.245h8.542v2.2H7.6a1.942,1.942,0,0,0-1.939,1.94v46.68A1.942,1.942,0,0,0,7.6,60.009h27a5.146,5.146,0,0,1-.569-1.592H7.6a.348.348,0,0,1-.346-.348V11.389a.347.347,0,0,1,.346-.348h7.077v.1a2.349,2.349,0,0,0,2.346,2.346H32.906a2.349,2.349,0,0,0,2.346-2.346v-.1h7.077a.347.347,0,0,1,.346.348V34.306a5.22,5.22,0,0,1,1.086,1.364,5.247,5.247,0,0,1,.507-4.074V11.389a1.942,1.942,0,0,0-1.939-1.94H35.252v-2.2H43.8a2.532,2.532,0,0,1,2.528,2.528V29.607a5.2,5.2,0,0,1,1.592-.549V9.773A4.125,4.125,0,0,0,43.8,5.652ZM33.659,11.14a.754.754,0,0,1-.754.753H17.02a.754.754,0,0,1-.753-.753V5.319a.754.754,0,0,1,.753-.753H32.906a.754.754,0,0,1,.754.753Z"/>
        <circle id="Ellipse_12723" data-name="Ellipse 12723" cx="3.907" cy="3.907" r="3.907" transform="translate(10.577 18.268)" fill="#fff"/>
        <path id="Path_1599155" data-name="Path 1599155" d="M18.367,19.525l.642-.792a.8.8,0,1,0-1.237-1l-.523.645a4.7,4.7,0,1,0,1.117,1.151Zm-3.883,5.761a3.111,3.111,0,1,1,1.761-5.673L14.391,21.9l-.917-.816a.8.8,0,1,0-1.059,1.189l1.539,1.371a.8.8,0,0,0,.53.2l.064,0a.8.8,0,0,0,.554-.292l2.193-2.7a3.109,3.109,0,0,1-2.811,4.44Z"/>
        <circle id="Ellipse_12724" data-name="Ellipse 12724" cx="3.907" cy="3.907" r="3.907" transform="translate(10.577 31.297)" fill="#fff"/>
        <path id="Path_1599156" data-name="Path 1599156" d="M18.367,32.553l.642-.792a.8.8,0,1,0-1.237-1l-.523.645a4.7,4.7,0,1,0,1.117,1.151Zm-3.883,5.761a3.111,3.111,0,1,1,1.761-5.673l-1.854,2.285-.917-.816A.8.8,0,1,0,12.416,35.3l1.539,1.371a.8.8,0,0,0,.53.2l.064,0a.8.8,0,0,0,.554-.292l2.193-2.7a3.109,3.109,0,0,1-2.811,4.44Z"/>
        <circle id="Ellipse_12725" data-name="Ellipse 12725" cx="3.907" cy="3.907" r="3.907" transform="translate(10.577 43.885)" fill="#fff"/>
        <path id="Path_1599157" data-name="Path 1599157" d="M14.484,52.495a4.7,4.7,0,1,1,4.7-4.7,4.7,4.7,0,0,1-4.7,4.7Zm0-7.814a3.111,3.111,0,1,0,3.111,3.111,3.111,3.111,0,0,0-3.111-3.111Z"/>
        <path id="Path_1599158" data-name="Path 1599158" d="M36.378,19.851H22.818a.8.8,0,0,0,0,1.592H36.378a.8.8,0,1,0,0-1.592Z"/>
        <path id="Path_1599159" data-name="Path 1599159" d="M30.7,23.654H22.818a.8.8,0,0,0,0,1.592H30.7a.8.8,0,1,0,0-1.592Z"/>
        <path id="Path_1599160" data-name="Path 1599160" d="M22.818,33.756H30.7a.8.8,0,1,0,0-1.592H22.818a.8.8,0,0,0,0,1.592Z"/>
        <path id="Path_1599161" data-name="Path 1599161" d="M30.7,35.967H22.818a.8.8,0,0,0,0,1.592H30.7a.8.8,0,0,0,0-1.592Z"/>
        <path id="Path_1599162" data-name="Path 1599162" d="M62.542,45.916a1.924,1.924,0,0,0-1.6.686,1.411,1.411,0,0,1-1.079.514H58.851a.491.491,0,0,1-.486-.435,9.583,9.583,0,0,0-1.987-4.788.488.488,0,0,1,.042-.645l.741-.741a1.338,1.338,0,0,1,1.082-.374,1.928,1.928,0,1,0-1.731-1.72,1.364,1.364,0,0,1-.4,1.1l-.713.713a.488.488,0,0,1-.645.042,9.583,9.583,0,0,0-4.788-1.987.491.491,0,0,1-.435-.486V36.784a1.411,1.411,0,0,1,.514-1.079,1.928,1.928,0,1,0-2.454.018,1.364,1.364,0,0,1,.492,1.061v1.009a.491.491,0,0,1-.435.486,9.583,9.583,0,0,0-4.788,1.987.488.488,0,0,1-.645-.042l-.741-.741A1.338,1.338,0,0,1,41.1,38.4a1.928,1.928,0,1,0-1.721,1.731,1.364,1.364,0,0,1,1.1.4l.713.713a.488.488,0,0,1,.042.645,9.583,9.583,0,0,0-1.987,4.788.491.491,0,0,1-.486.435H37.748a1.411,1.411,0,0,1-1.079-.514,1.928,1.928,0,1,0,.018,2.454,1.364,1.364,0,0,1,1.061-.492h1.009a.491.491,0,0,1,.486.435,9.583,9.583,0,0,0,1.987,4.788.488.488,0,0,1-.042.645l-.741.741a1.338,1.338,0,0,1-1.082.374,1.928,1.928,0,1,0,1.731,1.72,1.364,1.364,0,0,1,.4-1.1l.713-.713a.488.488,0,0,1,.645-.042A9.583,9.583,0,0,0,47.644,57.4a.491.491,0,0,1,.435.486V58.9a1.411,1.411,0,0,1-.514,1.079,1.928,1.928,0,1,0,2.453-.018,1.364,1.364,0,0,1-.492-1.061V57.887a.491.491,0,0,1,.435-.486,9.583,9.583,0,0,0,4.788-1.987.488.488,0,0,1,.645.042l.741.741a1.338,1.338,0,0,1,.374,1.082,1.928,1.928,0,1,0,1.721-1.731,1.364,1.364,0,0,1-1.1-.4l-.713-.713a.488.488,0,0,1-.042-.645A9.583,9.583,0,0,0,58.365,49a.491.491,0,0,1,.486-.435H59.86a1.364,1.364,0,0,1,1.061.492,1.928,1.928,0,1,0,1.622-3.14Z" fill="#f93882"/>
        <path id="Path_1599163" data-name="Path 1599163" d="M62.417,49.768a1.92,1.92,0,0,1-1.5-.713,1.37,1.37,0,0,0-1.062-.491H58.851a.491.491,0,0,0-.486.435,9.575,9.575,0,0,1-1.987,4.788.486.486,0,0,0,.042.645l.713.713a1.366,1.366,0,0,0,1.1.4,1.929,1.929,0,1,1-1.72,1.731,1.339,1.339,0,0,0-.374-1.082l-.741-.741a.487.487,0,0,0-.645-.042A9.575,9.575,0,0,1,49.963,57.4a.491.491,0,0,0-.435.486V58.9a1.366,1.366,0,0,0,.491,1.062,1.927,1.927,0,1,1-2.452.017A1.412,1.412,0,0,0,48.08,58.9V57.887a.491.491,0,0,0-.435-.486,9.575,9.575,0,0,1-4.788-1.987.487.487,0,0,0-.645.042l-.714.713a1.365,1.365,0,0,0-.4,1.1,1.929,1.929,0,1,1-1.732-1.72,1.34,1.34,0,0,0,1.083-.374l.741-.741a.489.489,0,0,0,.042-.645,9.314,9.314,0,0,1-.662-.958c4.009-.1,8.107.117,11.281-1.254,6.236-2.694,4.568-9.526,4.531-9.68a9.569,9.569,0,0,1,1.985,4.785.491.491,0,0,0,.486.435h1.009a1.412,1.412,0,0,0,1.079-.514,1.928,1.928,0,1,1,1.478,3.165Z" fill="#ae1b4d"/>
        <path id="Path_1599164" data-name="Path 1599164" d="M54.752,40.266c-11.706-2.19-15.508,6.415-15.508,6.415a9.575,9.575,0,0,1,1.987-4.788.489.489,0,0,0-.042-.645l-.713-.714a1.366,1.366,0,0,0-1.1-.4A1.928,1.928,0,1,1,41.1,38.4a1.339,1.339,0,0,0,.373,1.083l.742.741a.489.489,0,0,0,.645.042,9.575,9.575,0,0,1,4.788-1.987.492.492,0,0,0,.435-.486v-1.01a1.362,1.362,0,0,0-.492-1.06,1.928,1.928,0,1,1,2.454-.019,1.411,1.411,0,0,0-.514,1.079v1.01a.492.492,0,0,0,.435.486A9.575,9.575,0,0,1,54.752,40.266Z" fill="#fc8cb6"/>
        <circle id="Ellipse_12726" data-name="Ellipse 12726" cx="0.987" cy="0.987" r="0.987" transform="translate(57.423 56.484)" fill="#630004"/>
        <circle id="Ellipse_12727" data-name="Ellipse 12727" cx="0.987" cy="0.987" r="0.987" transform="translate(38.135 56.484)" fill="#630004"/>
        <circle id="Ellipse_12728" data-name="Ellipse 12728" cx="0.987" cy="0.987" r="0.987" transform="translate(57.423 37.278)" fill="#ae1b4d"/>
        <circle id="Ellipse_12729" data-name="Ellipse 12729" cx="0.987" cy="0.987" r="0.987" transform="translate(38.135 37.278)" fill="#ae1b4d"/>
        <circle id="Ellipse_12730" data-name="Ellipse 12730" cx="0.987" cy="0.987" r="0.987" transform="translate(47.817 60.403)" fill="#630004"/>
        <circle id="Ellipse_12731" data-name="Ellipse 12731" cx="0.987" cy="0.987" r="0.987" transform="translate(61.419 46.853)" fill="#630004"/>
        <circle id="Ellipse_12732" data-name="Ellipse 12732" cx="0.987" cy="0.987" r="0.987" transform="translate(34.155 46.853)" fill="#ae1b4d"/>
        <circle id="Ellipse_12733" data-name="Ellipse 12733" cx="0.987" cy="0.987" r="0.987" transform="translate(47.817 33.323)" fill="#ae1b4d"/>
        <path id="Path_1599165" data-name="Path 1599165" d="M48.8,32.3q.061,0,.123,0a1.928,1.928,0,0,1,1.114,3.4,1.411,1.411,0,0,0-.514,1.079v1.009a.491.491,0,0,0,.435.486,9.583,9.583,0,0,1,4.788,1.987.479.479,0,0,0,.3.1.492.492,0,0,0,.348-.144l.713-.713a1.364,1.364,0,0,0,.4-1.1,1.928,1.928,0,1,1,1.918,1.73c-.062,0-.125,0-.187-.009q-.07-.007-.139-.007a1.324,1.324,0,0,0-.943.38l-.741.741a.488.488,0,0,0-.042.645,9.583,9.583,0,0,1,1.987,4.788.491.491,0,0,0,.486.435H59.86a1.411,1.411,0,0,0,1.079-.514,1.923,1.923,0,0,1,1.478-.69q.063,0,.126,0a1.928,1.928,0,1,1-1.622,3.14,1.364,1.364,0,0,0-1.061-.492H58.851a.491.491,0,0,0-.486.435,9.583,9.583,0,0,1-1.987,4.788.488.488,0,0,0,.042.645l.713.713a1.375,1.375,0,0,0,.966.409,1.291,1.291,0,0,0,.131-.007,1.928,1.928,0,1,1-1.721,1.731,1.338,1.338,0,0,0-.374-1.082l-.741-.741a.492.492,0,0,0-.348-.144.478.478,0,0,0-.3.1A9.583,9.583,0,0,1,49.964,57.4a.491.491,0,0,0-.435.486V58.9a1.364,1.364,0,0,0,.492,1.061A1.928,1.928,0,0,1,48.8,63.381c-.041,0-.082,0-.123,0a1.928,1.928,0,0,1-1.114-3.4A1.411,1.411,0,0,0,48.08,58.9V57.887a.491.491,0,0,0-.435-.486,9.583,9.583,0,0,1-4.788-1.987.478.478,0,0,0-.3-.1.492.492,0,0,0-.348.144l-.713.713a1.364,1.364,0,0,0-.4,1.1,1.928,1.928,0,1,1-1.918-1.73q.093,0,.187.009.07.007.139.007a1.324,1.324,0,0,0,.943-.38l.741-.741a.488.488,0,0,0,.042-.645A9.583,9.583,0,0,1,39.243,49a.491.491,0,0,0-.486-.435H37.748a1.364,1.364,0,0,0-1.061.492,1.928,1.928,0,1,1-1.622-3.14q.063,0,.126,0a1.923,1.923,0,0,1,1.478.69,1.411,1.411,0,0,0,1.079.514h1.009a.491.491,0,0,0,.486-.435,9.583,9.583,0,0,1,1.987-4.788.488.488,0,0,0-.042-.645l-.713-.713a1.375,1.375,0,0,0-.966-.409,1.288,1.288,0,0,0-.131.007A1.928,1.928,0,1,1,41.1,38.4a1.338,1.338,0,0,0,.374,1.082l.741.741a.492.492,0,0,0,.348.144.478.478,0,0,0,.3-.1,9.583,9.583,0,0,1,4.788-1.987.491.491,0,0,0,.435-.486V36.785a1.364,1.364,0,0,0-.492-1.061A1.928,1.928,0,0,1,48.8,32.3Zm0-1.592a3.52,3.52,0,0,0-2.335,6.154,11.186,11.186,0,0,0-3.776,1.565,3.52,3.52,0,1,0-3.514,3.308c.071,0,.142,0,.213-.006A11.185,11.185,0,0,0,37.825,45.5a3.512,3.512,0,0,0-2.634-1.185c-.075,0-.152,0-.227.007a3.52,3.52,0,1,0,2.861,5.849,11.186,11.186,0,0,0,1.565,3.776c-.071,0-.142-.006-.213-.006a3.52,3.52,0,1,0,3.514,3.308,11.186,11.186,0,0,0,3.776,1.565,3.52,3.52,0,0,0,2.113,6.147c.074,0,.149.007.222.007a3.52,3.52,0,0,0,2.335-6.154,11.185,11.185,0,0,0,3.776-1.565,3.52,3.52,0,1,0,3.514-3.308c-.071,0-.142,0-.213.006a11.185,11.185,0,0,0,1.565-3.776,3.52,3.52,0,1,0,2.861-5.849c-.075,0-.152-.007-.227-.007A3.512,3.512,0,0,0,59.783,45.5a11.185,11.185,0,0,0-1.565-3.776c.071,0,.142.006.213.006a3.52,3.52,0,1,0-3.514-3.308,11.186,11.186,0,0,0-3.776-1.565,3.52,3.52,0,0,0-2.113-6.147c-.074,0-.149-.007-.222-.007Z"/>
        <path id="Path_1599166" data-name="Path 1599166" d="M49.163,51.174a1.468,1.468,0,0,0,1.58.143,2.215,2.215,0,1,0,.341-2.36,1.485,1.485,0,0,0-.117-.1,1.469,1.469,0,1,0-1.8,2.318Z" fill="#ffcd2c"/>
        <path id="Path_1599167" data-name="Path 1599167" d="M52.758,53.348a2.939,2.939,0,0,1-2.342-1.163,2.2,2.2,0,1,1,.6-4.152,2.945,2.945,0,1,1,1.743,5.316Zm-2.014-2.76a.73.73,0,0,1,.665.43,1.464,1.464,0,0,0,.44.559,1.485,1.485,0,1,0-.212-2.142.73.73,0,0,1-1.06.049q-.028-.027-.06-.052a.739.739,0,1,0-.111,1.238.731.731,0,0,1,.337-.082Z"/>
        <circle id="Ellipse_12734" data-name="Ellipse 12734" cx="1.688" cy="1.688" r="1.688" transform="translate(43.499 43.062)" fill="#ffcd2c"/>
        <path id="Path_1599168" data-name="Path 1599168" d="M45.187,47.168a2.418,2.418,0,1,1,2.418-2.418,2.418,2.418,0,0,1-2.418,2.418Zm0-3.376a.958.958,0,1,0,.958.958.958.958,0,0,0-.958-.958Z"/>
      </g>
    </g>
  </g>
</svg>
