<svg xmlns="http://www.w3.org/2000/svg" xmlns:xlink="http://www.w3.org/1999/xlink" width="90" height="90" viewBox="0 0 90 90">
  <defs>
    <clipPath id="clip-path">
      <rect id="Rectangle_412583" data-name="Rectangle 412583" width="64" height="62" transform="translate(-8659 -1987)" fill="#fff" stroke="#707070" stroke-width="1" opacity="0"/>
    </clipPath>
  </defs>
  <g id="Group_1205529" data-name="Group 1205529" transform="translate(8672 2001)">
    <g id="Group_1205426" data-name="Group 1205426" transform="translate(-9479.781 -4554)">
      <g id="Rectangle_411076" data-name="Rectangle 411076" transform="translate(807.781 2553)" fill="#dfe3bc" stroke="#aeba58" stroke-width="3">
        <rect width="90" height="90" rx="20" stroke="none"/>
        <rect x="1.5" y="1.5" width="87" height="87" rx="18.5" fill="none"/>
      </g>
    </g>
    <g id="Mask_Group_1099444" data-name="Mask Group 1099444" clip-path="url(#clip-path)">
      <g id="Health_Insurance" data-name="Health Insurance" transform="translate(-8658.005 -1987.015)">
        <path id="Path_1599197" data-name="Path 1599197" d="M48.016,6.686v50.2a1.667,1.667,0,0,1-1.667,1.667H9.231a1.66,1.66,0,0,1-1.66-1.667V6.686a1.667,1.667,0,0,1,1.66-1.667H46.35a1.673,1.673,0,0,1,1.667,1.667Z" fill="#b8c5eb"/>
        <path id="Path_1599198" data-name="Path 1599198" d="M43.385,13.94V55.09a1.473,1.473,0,0,1-1.473,1.466H7.571V6.686a1.667,1.667,0,0,1,1.66-1.667H34.464Z" fill="#95b1eb"/>
        <path id="Path_1599199" data-name="Path 1599199" d="M45.349,11.57v41.15a1.473,1.473,0,0,1-1.473,1.466H7.571V6.686a1.667,1.667,0,0,1,1.66-1.667H38.8C41.169,7.4,42.726,8.953,45.349,11.57Z" fill="#95b1eb"/>
        <path id="Path_1599200" data-name="Path 1599200" d="M48.016,30.491v26.4a1.667,1.667,0,0,1-1.667,1.667H35.368a16.487,16.487,0,0,1-4.677-12.041V33.3c1.4-.42,12.119-3.495,13.527-3.876C44.283,29.431,43.927,29.309,48.016,30.491Z" fill="#95b1eb"/>
        <path id="Path_1599201" data-name="Path 1599201" d="M43.385,11.57v41.15a1.473,1.473,0,0,1-1.473,1.466H4.406a1.466,1.466,0,0,1-1.466-1.466V2.119A1.466,1.466,0,0,1,4.406.646H32.467Z" fill="#e0edff"/>
        <path id="Path_1599202" data-name="Path 1599202" d="M43.385,11.57v2.2H33.934a1.466,1.466,0,0,1-1.466-1.492V2.855l4.4,2.2Z" fill="#b8c5eb"/>
        <path id="Path_1599203" data-name="Path 1599203" d="M43.385,29.638V52.719a1.473,1.473,0,0,1-1.473,1.466H32.3a17.513,17.513,0,0,1-1.609-7.674V33.3c1.311-.394,8.747-2.519,12.694-3.663Z" fill="#b8c5eb"/>
        <path id="Path_1599204" data-name="Path 1599204" d="M29.89,42.584a.807.807,0,0,0,.8-.8V33.3c.95-.284-.646.187,9.464-2.733V13.443a1.292,1.292,0,0,0-.381-.917c-.1-.1-8.443-8.437-8.262-8.262a1.292,1.292,0,0,0-.924-.388H7.468A1.292,1.292,0,0,0,6.176,5.168V41.783a.8.8,0,0,0,.795.8Z" fill="#fff"/>
        <path id="Path_1599205" data-name="Path 1599205" d="M40.155,13.443v.323H33.934a1.466,1.466,0,0,1-1.466-1.492V5.168l7.306,7.358A1.292,1.292,0,0,1,40.155,13.443Z" fill="#e0edff"/>
        <path id="Path_1599206" data-name="Path 1599206" d="M43.378,11.57H33.934A1.473,1.473,0,0,1,32.467,10.1V.646Z" fill="#c2d9ff"/>
        <path id="Path_1599207" data-name="Path 1599207" d="M18.456,12.015H15.9V9.451h-3.85v2.565H9.49v3.844h2.558v2.565H15.9V15.859h2.558Z" fill="#f03550"/>
        <path id="Path_1599208" data-name="Path 1599208" d="M59.069,30.219v13.2c0,11.4-8.857,15.459-12.965,17.642l-.562.3c-3.3-1.86-7.254-3.611-10.168-7.442a16.24,16.24,0,0,1-3.295-8.973c-.09-1.1-.058-.911-.058-14.729,2.015-.588,12.971-3.734,13.521-3.876C45.613,26.35,55.051,29.07,59.069,30.219Z" fill="#7498f0"/>
        <path id="Path_1599209" data-name="Path 1599209" d="M57.79,42.067a.95.95,0,0,1-.943-.95V33.591A2.274,2.274,0,0,0,56,31.828c-.5-.407-.084-.207-9.819-3.017a2.319,2.319,0,0,0-1.292,0c-9.884,2.842-9.3,2.629-9.793,3.023a2.274,2.274,0,0,0-.859,1.757v7.526a.95.95,0,0,1-.95.95H32A19.427,19.427,0,0,0,33.288,50.3c2.642,6.408,8.45,8.921,12.274,11.059l.562-.3c4.108-2.183,12.965-6.247,12.965-17.642V42.067Z" fill="#515cd2"/>
        <path id="Path_1599210" data-name="Path 1599210" d="M54.909,32.493a1.156,1.156,0,0,1,.82,1.1c0,10.581.084,10.982-.278,12.842C54.3,52.513,49.7,55.361,46.1,57.28a1.137,1.137,0,0,1-1.085,0A21.232,21.232,0,0,1,38.4,52.325,13.372,13.372,0,0,1,35.362,43.4V33.592a1.156,1.156,0,0,1,.814-1.1l9.044-2.584c.426-.116.472-.045,2.752.614Z" fill="#ffbd38"/>
        <path id="Path_1599211" data-name="Path 1599211" d="M55.73,33.591v1.873a1.15,1.15,0,0,0-.82-1.1c-.93-.258-4.871-1.4-9.044-2.584-.439-.129.194-.239-9.69,2.584a1.15,1.15,0,0,0-.833,1.1v-1.88a1.15,1.15,0,0,1,.833-1.1l9.044-2.584c.646-.168,1.072.194,9.69,2.584a1.15,1.15,0,0,1,.82,1.1Z" fill="#ff9f38"/>
        <path id="Path_1599212" data-name="Path 1599212" d="M55.73,37.726c0,5.665.084,6.854-.278,8.714-1.15,6.066-5.711,8.915-9.335,10.84a1.2,1.2,0,0,1-1.124,0c-.5-.278-1.04-.568-1.453-.82,7.661-4.3,12.19-9.729,12.19-18.734Z" fill="#ff9f38"/>
        <path id="Path_1599213" data-name="Path 1599213" d="M54.063,35.6A27.177,27.177,0,0,1,41.918,53.443a2.274,2.274,0,0,1-2.836-.342,13.288,13.288,0,0,1-3.721-9.69V35.575a1.331,1.331,0,0,1,.963-1.292l8.708-2.506a1.854,1.854,0,0,1,1.027,0l6.912,2A1.589,1.589,0,0,1,54.063,35.6Z" fill="#ffdb56"/>
        <path id="Path_1599214" data-name="Path 1599214" d="M45.071,33.52l-6.906,2.009a1.57,1.57,0,0,0-1.13,1.505v1.189A1.563,1.563,0,0,0,38.6,39.787h4.561a1.563,1.563,0,0,0,1.253-.646l2.377-3.172a1.583,1.583,0,0,0-1.718-2.448Z" fill="#ffff79"/>
        <path id="Path_1599215" data-name="Path 1599215" d="M43.055,49.218l-4.1-3.23A1.4,1.4,0,0,1,40.7,43.824l3.056,2.384,6.473-7.545a1.4,1.4,0,0,1,2.1,1.815l-7.358,8.553a1.4,1.4,0,0,1-1.912.187Z" fill="#ffbd38"/>
        <path id="Path_1599216" data-name="Path 1599216" d="M43.055,47.157l-4.1-3.23a1.4,1.4,0,1,1,1.744-2.2l3.056,2.384,6.473-7.545a1.4,1.4,0,1,1,2.1,1.815l-7.358,8.553a1.4,1.4,0,0,1-1.912.22Z" fill="#12c58b"/>
        <rect id="Rectangle_412602" data-name="Rectangle 412602" width="2.681" height="1.705" rx="0.53" transform="translate(38.792 36.873)" fill="#ffdb56"/>
        <g id="Group_1205549" data-name="Group 1205549">
          <path id="Path_1599217" data-name="Path 1599217" d="M9.483,16.505h1.938v1.938a.646.646,0,0,0,.646.646h3.876a.646.646,0,0,0,.646-.646V16.505h1.938a.646.646,0,0,0,.646-.646V12.015a.646.646,0,0,0-.646-.646H16.589V9.431a.646.646,0,0,0-.646-.646H12.067a.646.646,0,0,0-.646.646v1.938H9.483a.646.646,0,0,0-.646.646v3.844A.646.646,0,0,0,9.483,16.505Zm.646-3.844h1.938a.646.646,0,0,0,.646-.646V10.077H15.3v1.938a.646.646,0,0,0,.646.646h1.938v2.552H15.943a.646.646,0,0,0-.646.646V17.8H12.713V15.859a.646.646,0,0,0-.646-.646H10.129Z" fill="#302d3d"/>
          <path id="Path_1599218" data-name="Path 1599218" d="M9.128,26.654H37.183a.646.646,0,0,0,0-1.292H9.128a.646.646,0,0,0,0,1.292Z" fill="#302d3d"/>
          <path id="Path_1599219" data-name="Path 1599219" d="M9.128,48.217h14.4a.646.646,0,1,0,0-1.292H9.128a.646.646,0,1,0,0,1.292Z" fill="#302d3d"/>
          <path id="Path_1599220" data-name="Path 1599220" d="M59.586,29.819c-.207-.284.174-.084-10.93-3.282V6.686a2.319,2.319,0,0,0-2.313-2.313H37.1C32.823.09,32.823.032,32.623.032c-.1-.039,1.938,0-28.223,0A2.119,2.119,0,0,0,2.287,2.119v50.6A2.119,2.119,0,0,0,4.4,54.832H6.919v2.054A2.306,2.306,0,0,0,9.225,59.2h31.15c1.292.833,2.584,1.505,3.663,2.087,1.382.73,1.318.73,1.505.73s.233-.039,1.466-.7C51.453,59,59.715,54.677,59.715,43.423c0-14.063.058-13.417-.129-13.6Zm-1.938.646-2.061,1.55c-12.4-3.592-8.689-2.487-9.4-2.707V27.17c.814.245,10.446,3,11.466,3.295ZM45.555,56.847a26.272,26.272,0,0,1-5.071-3.3A12.732,12.732,0,0,1,36,43.423V33.21l9.541-2.745,9.535,2.745V43.417a13.214,13.214,0,0,1-6.421,11.628,32.389,32.389,0,0,1-3.1,1.8Zm-.646-29.67v2.138l-9.419,2.7-2.054-1.55ZM46.343,5.665a1.021,1.021,0,0,1,1.021,1.021V26.163c-1.99-.568-1.686-.5-1.86-.484a8,8,0,0,0-1.479.4V11.57a.646.646,0,0,0-.194-.459L38.385,5.665Zm-4.522,5.258H33.927a.827.827,0,0,1-.82-.827V2.209c4.477,4.477,2.5,2.494,8.708,8.714ZM4.406,53.559a.82.82,0,0,1-.82-.82V2.119A.82.82,0,0,1,4.4,1.292H31.815v8.8a2.119,2.119,0,0,0,2.112,2.119h8.8V26.427L34.011,28.94H9.128a.646.646,0,1,0,0,1.292H31.369v2.3H9.128a.646.646,0,1,0,0,1.292H31.369v2.351H9.128a.646.646,0,1,0,0,1.292H31.369v2.306H9.128a.646.646,0,1,0,0,1.292H31.369v2.3H9.128a.646.646,0,1,0,0,1.292h22.28a16.951,16.951,0,0,0,2.881,8.915Zm4.826,4.367a1.014,1.014,0,0,1-1.014-1.021V54.832H35.258a19.6,19.6,0,0,0,3.23,3.075Zm33.675,1.292c-5.956-3.34-9.793-7.565-10.2-14.574-.052-.795-.039.058-.039-13.12l2.048,1.544V43.4c0,7.158,3.837,11.357,10.187,14.535v2.326c-.123-.052-1.2-.614-2-1.066Zm3.514.969-.226.123V57.971c6.279-3.14,10.174-7.584,10.174-14.554V33.081l2.054-1.544v11.88c0,10.472-7.816,14.554-12.009,16.751Z" fill="#302d3d"/>
          <path id="Path_1599221" data-name="Path 1599221" d="M52.823,38.8a2.041,2.041,0,0,0-3.081-2.661l-6.1,7.106-2.584-2.009a2.044,2.044,0,1,0-2.506,3.23l4.18,3.23a2.035,2.035,0,0,0,2.72-.329ZM44.47,46.511a.762.762,0,0,1-1.021.1l-4.1-3.23a.749.749,0,0,1-.136-1.053.762.762,0,0,1,1.053-.129l3.056,2.384a.646.646,0,0,0,.885-.09c3.953-4.58,3.178-3.676,6.505-7.545a.749.749,0,0,1,1.137.975c-5.523,6.447-3.76,4.393-7.377,8.585Z" fill="#302d3d"/>
        </g>
      </g>
    </g>
  </g>
</svg>
