<svg xmlns="http://www.w3.org/2000/svg" xmlns:xlink="http://www.w3.org/1999/xlink" width="90" height="90" viewBox="0 0 90 90">
  <defs>
    <clipPath id="clip-path">
      <rect id="Rectangle_412584" data-name="Rectangle 412584" width="63" height="62" transform="translate(-6403 -248)" fill="#fff" stroke="#707070" stroke-width="1" opacity="0"/>
    </clipPath>
  </defs>
  <g id="Group_1205459" data-name="Group 1205459" transform="translate(6301 172)">
    <g id="Group_1205435" data-name="Group 1205435" transform="translate(116 90)">
      <g id="Group_1205431" data-name="Group 1205431" transform="translate(-7224.781 -2234)">
        <g id="Rectangle_411073" data-name="Rectangle 411073" transform="translate(807.781 1972)" fill="#f5dec7" stroke="#e7af74" stroke-width="3">
          <rect width="90" height="90" rx="20" stroke="none"/>
          <rect x="1.5" y="1.5" width="87" height="87" rx="18.5" fill="none"/>
        </g>
      </g>
      <g id="Mask_Group_1099431" data-name="Mask Group 1099431" clip-path="url(#clip-path)">
        <g id="elegante" transform="translate(-6404.567 -250.067)">
          <g id="Group_1205459-2" data-name="Group 1205459">
            <path id="Path_1598608" data-name="Path 1598608" d="M23.768,64.066a1.032,1.032,0,0,1-.88-.49,1.57,1.57,0,0,0-2.375,0,1.033,1.033,0,0,1-1.758-1.087A3.392,3.392,0,0,1,21.7,60.966a3.392,3.392,0,0,1,2.946,1.523,1.034,1.034,0,0,1-.878,1.577Z" fill="#c38475"/>
          </g>
          <g id="Group_1205460" data-name="Group 1205460">
            <path id="Path_1598609" data-name="Path 1598609" d="M17.568,64.066a1.032,1.032,0,0,1-.88-.49,1.374,1.374,0,0,0-1.188-.543,1.374,1.374,0,0,0-1.188.543,1.033,1.033,0,0,1-1.758-1.087A3.392,3.392,0,0,1,15.5,60.966a3.392,3.392,0,0,1,2.946,1.523,1.034,1.034,0,0,1-.878,1.577Z" fill="#c38475"/>
          </g>
          <g id="Group_1205461" data-name="Group 1205461">
            <path id="Path_1598610" data-name="Path 1598610" d="M21.7,63.033a1.034,1.034,0,0,1-.98-.707l-2.067-6.2a1.033,1.033,0,0,1,1.961-.654l2.067,6.2a1.034,1.034,0,0,1-.98,1.36Z" fill="#c38475"/>
          </g>
          <g id="Group_1205462" data-name="Group 1205462">
            <path id="Path_1598611" data-name="Path 1598611" d="M15.5,63.033a1.048,1.048,0,0,1-.2-.02,1.033,1.033,0,0,1-.811-1.216L15.52,56.63a1.033,1.033,0,0,1,2.026.405L16.513,62.2a1.034,1.034,0,0,1-1.012.831Z" fill="#c38475"/>
          </g>
          <path id="Path_1598612" data-name="Path 1598612" d="M57.046,11.367H52.912a6.32,6.32,0,0,1-1.261,3.749,4.133,4.133,0,1,0,6.625-.042,6.135,6.135,0,0,1-1.23-3.708Z" fill="#f7d074"/>
          <path id="Path_1598613" data-name="Path 1598613" d="M59.112,12.4H50.846V10.333a4.133,4.133,0,1,1,8.267,0Z" fill="#67a5d6"/>
          <g id="Group_1205463" data-name="Group 1205463">
            <path id="Path_1598614" data-name="Path 1598614" d="M54.979,27.9a1.033,1.033,0,0,1-1.033-1.033V25.833a1.033,1.033,0,1,1,2.067,0v1.033A1.033,1.033,0,0,1,54.979,27.9Z" fill="#f7d074"/>
          </g>
          <g id="Group_1205464" data-name="Group 1205464">
            <path id="Path_1598615" data-name="Path 1598615" d="M59.63,26.654a1.033,1.033,0,0,1-.9-.517l-.517-.895a1.033,1.033,0,0,1,1.79-1.033l.517.895a1.034,1.034,0,0,1-.894,1.55Z" fill="#f7d074"/>
          </g>
          <g id="Group_1205465" data-name="Group 1205465">
            <path id="Path_1598616" data-name="Path 1598616" d="M63.032,23.25a1.029,1.029,0,0,1-.516-.139l-.895-.517a1.033,1.033,0,1,1,1.033-1.79l.895.517a1.033,1.033,0,0,1-.518,1.928Z" fill="#f7d074"/>
          </g>
          <g id="Group_1205466" data-name="Group 1205466">
            <path id="Path_1598617" data-name="Path 1598617" d="M50.328,26.654a1.034,1.034,0,0,1-.894-1.55l.517-.895a1.033,1.033,0,0,1,1.79,1.033l-.517.895a1.033,1.033,0,0,1-.9.517Z" fill="#f7d074"/>
          </g>
          <g id="Group_1205467" data-name="Group 1205467">
            <path id="Path_1598618" data-name="Path 1598618" d="M46.926,23.25a1.033,1.033,0,0,1-.518-1.928L47.3,20.8a1.033,1.033,0,0,1,1.033,1.79l-.895.517a1.03,1.03,0,0,1-.516.138Z" fill="#f7d074"/>
          </g>
          <path id="Path_1598619" data-name="Path 1598619" d="M9.087,11.367h4.133a6.32,6.32,0,0,0,1.261,3.749,4.133,4.133,0,1,1-6.625-.042A6.134,6.134,0,0,0,9.087,11.367Z" fill="#f7d074"/>
          <path id="Path_1598620" data-name="Path 1598620" d="M7.021,12.4h8.267V10.333a4.133,4.133,0,1,0-8.267,0Z" fill="#67a5d6"/>
          <g id="Group_1205468" data-name="Group 1205468">
            <path id="Path_1598621" data-name="Path 1598621" d="M11.154,27.9a1.033,1.033,0,0,1-1.033-1.033V25.833a1.033,1.033,0,1,1,2.067,0v1.033A1.033,1.033,0,0,1,11.154,27.9Z" fill="#f7d074"/>
          </g>
          <g id="Group_1205469" data-name="Group 1205469">
            <path id="Path_1598622" data-name="Path 1598622" d="M6.5,26.654a1.034,1.034,0,0,1-.894-1.55l.517-.895a1.033,1.033,0,0,1,1.79,1.033l-.517.895a1.033,1.033,0,0,1-.9.517Z" fill="#f7d074"/>
          </g>
          <g id="Group_1205470" data-name="Group 1205470">
            <path id="Path_1598623" data-name="Path 1598623" d="M3.1,23.25a1.033,1.033,0,0,1-.518-1.928l.895-.517a1.033,1.033,0,1,1,1.033,1.79l-.895.517a1.029,1.029,0,0,1-.516.139Z" fill="#f7d074"/>
          </g>
          <g id="Group_1205471" data-name="Group 1205471">
            <path id="Path_1598624" data-name="Path 1598624" d="M15.8,26.654a1.033,1.033,0,0,1-.9-.517l-.517-.895a1.033,1.033,0,0,1,1.79-1.033l.517.895a1.034,1.034,0,0,1-.894,1.55Z" fill="#f7d074"/>
          </g>
          <g id="Group_1205472" data-name="Group 1205472">
            <path id="Path_1598625" data-name="Path 1598625" d="M19.207,23.25a1.03,1.03,0,0,1-.516-.138l-.895-.517A1.033,1.033,0,0,1,18.83,20.8l.895.517a1.033,1.033,0,0,1-.518,1.928Z" fill="#f7d074"/>
          </g>
          <path id="Path_1598626" data-name="Path 1598626" d="M35.133,11.367H31a6.32,6.32,0,0,1-1.261,3.749,4.133,4.133,0,1,0,6.625-.042A6.134,6.134,0,0,1,35.133,11.367Z" fill="#f7d074"/>
          <path id="Path_1598627" data-name="Path 1598627" d="M37.2,12.4H28.933V10.333a4.133,4.133,0,0,1,8.267,0Z" fill="#67a5d6"/>
          <g id="Group_1205473" data-name="Group 1205473">
            <path id="Path_1598628" data-name="Path 1598628" d="M52.86,64.066a1.032,1.032,0,0,1-.88-.49,1.57,1.57,0,0,0-2.375,0,1.033,1.033,0,0,1-1.758-1.087,3.392,3.392,0,0,1,2.946-1.523h0a3.392,3.392,0,0,1,2.946,1.524,1.034,1.034,0,0,1-.878,1.577Z" fill="#c38475"/>
          </g>
          <g id="Group_1205474" data-name="Group 1205474">
            <path id="Path_1598629" data-name="Path 1598629" d="M59.06,64.066a1.032,1.032,0,0,1-.88-.49,1.57,1.57,0,0,0-2.375,0,1.033,1.033,0,0,1-1.758-1.087,3.392,3.392,0,0,1,2.946-1.523h0a3.392,3.392,0,0,1,2.946,1.524,1.034,1.034,0,0,1-.878,1.577Z" fill="#c38475"/>
          </g>
          <g id="Group_1205475" data-name="Group 1205475">
            <path id="Path_1598630" data-name="Path 1598630" d="M50.792,63.033a1.034,1.034,0,0,1-.98-1.36l2.067-6.2a1.033,1.033,0,0,1,1.961.654l-2.067,6.2A1.034,1.034,0,0,1,50.792,63.033Z" fill="#c38475"/>
          </g>
          <g id="Group_1205476" data-name="Group 1205476">
            <path id="Path_1598631" data-name="Path 1598631" d="M56.991,63.033a1.034,1.034,0,0,1-1.012-.831l-1.033-5.167a1.033,1.033,0,0,1,2.026-.405L58.005,61.8a1.035,1.035,0,0,1-1.014,1.236Z" fill="#c38475"/>
          </g>
          <path id="Path_1598632" data-name="Path 1598632" d="M22.308,34.423a2.649,2.649,0,0,1,4.155.636L27.9,37.671l-1.975,1.052a1.405,1.405,0,0,0-.653,1.739c.89,2.352,2.458,7.681-.718,9.587,0,0,.825,5.776-4.126,4.951,0,0-3.3,4.126-9.076,0,0,0-4.951-1.65-8.251-9.076l6.686.955a6.6,6.6,0,0,0,6.926-3.768l1.552-3.364a13.5,13.5,0,0,1,2.4-3.566Z" fill="#e1e6ea"/>
          <path id="Path_1598633" data-name="Path 1598633" d="M8.876,45.1s4.126,0,8.251-4.126c0,0,4.126,4.126.825,5.776,0,0,.825,2.475-1.65,2.475A10.31,10.31,0,0,1,8.876,45.1Z" fill="#b7bcbf"/>
          <g id="Group_1205477" data-name="Group 1205477">
            <path id="Path_1598634" data-name="Path 1598634" d="M23.769,38.233a1.033,1.033,0,0,1,0-2.067h0a1.033,1.033,0,1,1,0,2.067Z" fill="#4c332e"/>
          </g>
          <path id="Path_1598635" data-name="Path 1598635" d="M39.7,44.28a2.649,2.649,0,0,0-2.155,3.61l1.1,2.771,2.068-.854a1.405,1.405,0,0,1,1.757.6c1.247,2.184,4.359,6.785,7.851,5.549,0,0,3.929,4.313,6.444-.03,0,0,5.283.081,5.778-7,0,0,1.879-4.869-1.748-12.141L57.28,42.551a6.6,6.6,0,0,1-7.315,2.943l-3.582-.944a13.5,13.5,0,0,0-4.278-.42Z" fill="#e1e6ea"/>
          <path id="Path_1598636" data-name="Path 1598636" d="M56.486,40.716s-2.626,3.182-8.434,3.738c0,0,.556,5.808,3.929,4.313,0,0,1.384,2.212,2.96.3A10.31,10.31,0,0,0,56.486,40.716Z" fill="#b7bcbf"/>
          <g id="Group_1205478" data-name="Group 1205478">
            <path id="Path_1598637" data-name="Path 1598637" d="M40.918,48.206a1.033,1.033,0,0,1,0-2.067h0a1.033,1.033,0,0,1,0,2.067Z" fill="#4c332e"/>
          </g>
          <g id="Group_1205479" data-name="Group 1205479">
            <path id="Path_1598638" data-name="Path 1598638" d="M28.936,64.066a1.033,1.033,0,0,1,0-2.067h0a1.033,1.033,0,0,1,0,2.067Z" fill="#59442b"/>
          </g>
          <g id="Group_1205480" data-name="Group 1205480">
            <path id="Path_1598639" data-name="Path 1598639" d="M33.069,63.033a1.033,1.033,0,0,1,0-2.067h0a1.033,1.033,0,0,1,0,2.067Z" fill="#59442b"/>
          </g>
          <g id="Group_1205481" data-name="Group 1205481">
            <path id="Path_1598640" data-name="Path 1598640" d="M36.169,64.066a1.033,1.033,0,0,1,0-2.067h0a1.033,1.033,0,0,1,0,2.067Z" fill="#59442b"/>
          </g>
          <g id="Group_1205482" data-name="Group 1205482">
            <path id="Path_1598641" data-name="Path 1598641" d="M40.3,64.066A1.033,1.033,0,0,1,40.3,62h0a1.033,1.033,0,0,1,0,2.067Z" fill="#59442b"/>
          </g>
          <path id="Path_1598642" data-name="Path 1598642" d="M3.1,3.1H63.033V7.233H3.1Z" fill="#d6a267"/>
          <g id="Group_1205483" data-name="Group 1205483">
            <path id="Path_1598643" data-name="Path 1598643" d="M33.066,27.9a1.033,1.033,0,0,1-1.033-1.033V25.833a1.033,1.033,0,1,1,2.067,0v1.033A1.033,1.033,0,0,1,33.066,27.9Z" fill="#f7d074"/>
          </g>
          <g id="Group_1205484" data-name="Group 1205484">
            <path id="Path_1598644" data-name="Path 1598644" d="M37.717,26.654a1.033,1.033,0,0,1-.9-.517l-.517-.895a1.033,1.033,0,0,1,1.79-1.033l.517.895a1.034,1.034,0,0,1-.894,1.55Z" fill="#f7d074"/>
          </g>
          <g id="Group_1205485" data-name="Group 1205485">
            <path id="Path_1598645" data-name="Path 1598645" d="M41.119,23.25a1.029,1.029,0,0,1-.516-.139l-.895-.517a1.033,1.033,0,1,1,1.033-1.79l.895.517a1.033,1.033,0,0,1-.518,1.928Z" fill="#f7d074"/>
          </g>
          <g id="Group_1205486" data-name="Group 1205486">
            <path id="Path_1598646" data-name="Path 1598646" d="M28.415,26.654a1.034,1.034,0,0,1-.894-1.55l.517-.895a1.033,1.033,0,1,1,1.79,1.033l-.517.895a1.033,1.033,0,0,1-.9.517Z" fill="#f7d074"/>
          </g>
          <g id="Group_1205487" data-name="Group 1205487">
            <path id="Path_1598647" data-name="Path 1598647" d="M25.013,23.25a1.033,1.033,0,0,1-.518-1.928l.895-.517a1.033,1.033,0,1,1,1.033,1.79l-.895.517a1.029,1.029,0,0,1-.516.139Z" fill="#f7d074"/>
          </g>
          <g id="Group_1205488" data-name="Group 1205488">
            <path id="Path_1598648" data-name="Path 1598648" d="M53.946,25.833v1.033a1.033,1.033,0,0,0,2.067,0V25.833a1.033,1.033,0,1,0-2.067,0Z"/>
            <path id="Path_1598649" data-name="Path 1598649" d="M58.6,23.831a1.033,1.033,0,0,0-.378,1.412l.517.895a1.033,1.033,0,0,0,1.79-1.033l-.517-.895a1.033,1.033,0,0,0-1.412-.378Z"/>
            <path id="Path_1598650" data-name="Path 1598650" d="M62.655,20.8a1.033,1.033,0,1,0-1.033,1.79l.895.517a1.033,1.033,0,1,0,1.033-1.79Z"/>
            <path id="Path_1598651" data-name="Path 1598651" d="M49.951,24.209l-.517.895a1.033,1.033,0,1,0,1.79,1.033l.517-.895a1.033,1.033,0,0,0-1.79-1.033Z"/>
            <path id="Path_1598652" data-name="Path 1598652" d="M47.3,20.8l-.895.517a1.033,1.033,0,1,0,1.033,1.79l.895-.517A1.033,1.033,0,0,0,47.3,20.8Z"/>
            <path id="Path_1598653" data-name="Path 1598653" d="M10.121,25.833v1.033a1.033,1.033,0,0,0,2.067,0V25.833a1.033,1.033,0,1,0-2.067,0Z"/>
            <path id="Path_1598654" data-name="Path 1598654" d="M6.126,24.209l-.517.895A1.033,1.033,0,1,0,7.4,26.137l.517-.895a1.033,1.033,0,0,0-1.79-1.033Z"/>
            <path id="Path_1598655" data-name="Path 1598655" d="M3.478,20.8l-.895.517a1.033,1.033,0,1,0,1.033,1.79l.895-.517a1.033,1.033,0,1,0-1.033-1.79Z"/>
            <path id="Path_1598656" data-name="Path 1598656" d="M14.771,23.831a1.033,1.033,0,0,0-.378,1.412l.517.895A1.033,1.033,0,1,0,16.7,25.1l-.517-.895a1.033,1.033,0,0,0-1.412-.378Z"/>
            <path id="Path_1598657" data-name="Path 1598657" d="M18.83,20.8a1.033,1.033,0,0,0-1.033,1.79l.895.517a1.033,1.033,0,0,0,1.033-1.79Z"/>
            <path id="Path_1598658" data-name="Path 1598658" d="M26.238,40.1a.373.373,0,0,1,.172-.461l1.975-1.052a1.033,1.033,0,0,0,.42-1.41l-1.437-2.613a3.683,3.683,0,0,0-5.776-.884l-.039.04-1.644,1.758a14.511,14.511,0,0,0-2.583,3.839l-.291.63a1.034,1.034,0,0,0-.639.3,13.653,13.653,0,0,1-5.177,3.329,8.407,8.407,0,0,1-2.349.494,1.031,1.031,0,0,0-.91,1.509L3.246,44.9a1.033,1.033,0,0,0-1.091,1.443c3.153,7.094,7.777,9.213,8.709,9.578a10.454,10.454,0,0,0,4.423,1.873l-.654,3.268a3.24,3.24,0,0,0-2.079,1.428,1.033,1.033,0,0,0,1.758,1.087,1.374,1.374,0,0,1,1.188-.543,1.374,1.374,0,0,1,1.188.543,1.033,1.033,0,1,0,1.758-1.087,3.178,3.178,0,0,0-1.724-1.328l.678-3.389a6.591,6.591,0,0,0,.983-.245,6.7,6.7,0,0,0,.652-.256l1.312,3.937a3.157,3.157,0,0,0-1.592,1.283,1.033,1.033,0,0,0,1.758,1.087,1.57,1.57,0,0,1,2.375,0,1.033,1.033,0,1,0,1.758-1.087,3.256,3.256,0,0,0-2.175-1.448L20.819,56.09a4.132,4.132,0,0,0,3.41-1.062,5.993,5.993,0,0,0,1.4-4.478,6.049,6.049,0,0,0,1.835-5.187A18.628,18.628,0,0,0,26.238,40.1Zm-9.185,2.365a4.242,4.242,0,0,1,1.133,2.6c-.02.125-.075.456-.7.767a1.025,1.025,0,0,0-.52,1.244,1.386,1.386,0,0,1-.005.949.9.9,0,0,1-.657.173,8.805,8.805,0,0,1-5.348-2.383A14.907,14.907,0,0,0,17.052,42.461Zm8.386-4.65A2.445,2.445,0,0,0,24.3,40.828c.591,1.561,2.317,6.775-.283,8.335a1.038,1.038,0,0,0-.492,1.03c.089.646.128,2.51-.748,3.361a2.411,2.411,0,0,1-2.184.427,1.034,1.034,0,0,0-.977.374,4.444,4.444,0,0,1-1.892,1.212c-1.722.574-3.666.1-5.777-1.408a1.079,1.079,0,0,0-.268-.138A9.767,9.767,0,0,1,9.025,52.37a17.575,17.575,0,0,1-4.13-5.147L9.64,47.9c.231.033.463.054.693.065A10.67,10.67,0,0,0,16.3,50.257a2.694,2.694,0,0,0,2.34-1.033,2.89,2.89,0,0,0,.456-1.979,2.91,2.91,0,0,0,1.127-1.858c.247-1.525-.729-3.144-1.508-4.156l.485-1.052a12.451,12.451,0,0,1,2.216-3.293l1.623-1.735a1.616,1.616,0,0,1,2.517.4l.932,1.7Z"/>
            <path id="Path_1598659" data-name="Path 1598659" d="M23.769,36.166h0A1.033,1.033,0,1,0,24.8,37.2a1.033,1.033,0,0,0-1.035-1.033Z"/>
            <path id="Path_1598660" data-name="Path 1598660" d="M61.723,36.325a1.033,1.033,0,0,0-1.807-.077l-2.482,4.066a1.033,1.033,0,0,0-1.742-.26,8.388,8.388,0,0,1-1.877,1.5,13.655,13.655,0,0,1-5.863,1.873,1.029,1.029,0,0,0-.637.3l-.671-.177a14.5,14.5,0,0,0-4.6-.452l-2.4.149-.056,0a3.683,3.683,0,0,0-3,5.017l1.1,2.771a1.033,1.033,0,0,0,1.355.574l2.068-.854a.373.373,0,0,1,.465.16,18.631,18.631,0,0,0,3.279,4.3,6.049,6.049,0,0,0,5.169,1.886,8.646,8.646,0,0,0,1.039.806l-1.041,3.125a3.255,3.255,0,0,0-2.175,1.448A1.033,1.033,0,1,0,49.6,63.576a1.57,1.57,0,0,1,2.375,0,1.033,1.033,0,1,0,1.758-1.086,3.157,3.157,0,0,0-1.592-1.283l.811-2.433a4.251,4.251,0,0,0,1.006.126,3.807,3.807,0,0,0,.409-.022,3.677,3.677,0,0,0,.9-.213l.5,2.5a3.178,3.178,0,0,0-1.724,1.328A1.033,1.033,0,0,0,55.8,63.576a1.57,1.57,0,0,1,2.375,0,1.033,1.033,0,1,0,1.758-1.086,3.239,3.239,0,0,0-2.079-1.428L57.1,57.274c.09-.113.179-.231.265-.356a6.687,6.687,0,0,0,2.655-.959c2.6-1.627,3.368-4.578,3.547-6.82.312-.951,1.621-5.866-1.844-12.814Zm-6.017,6.449a8.805,8.805,0,0,1-1.563,5.638c-.213.259-.423.408-.555.4-.232-.013-.582-.363-.731-.594a1.032,1.032,0,0,0-1.295-.4c-.635.281-.924.112-1.034.048a4.243,4.243,0,0,1-1.281-2.526,14.9,14.9,0,0,0,6.459-2.569Zm5.876,5.782a1.035,1.035,0,0,0-.067.3c-.178,2.542-1.023,4.325-2.512,5.3a4.528,4.528,0,0,1-2.219.738,1.019,1.019,0,0,0-.91.515,2.412,2.412,0,0,1-1.72,1.413c-1.214.134-2.627-1.082-3.067-1.56a1.033,1.033,0,0,0-1.109-.278C47.122,56,44.2,51.347,43.371,49.9a2.445,2.445,0,0,0-3.049-1.046l-1.1.454-.714-1.8a1.616,1.616,0,0,1,1.29-2.2l2.371-.148a12.455,12.455,0,0,1,3.95.387l1.12.3c.284,1.246.911,3.029,2.245,3.809a2.909,2.909,0,0,0,2.15.313,2.89,2.89,0,0,0,1.817.908c.047,0,.1,0,.148,0a2.748,2.748,0,0,0,2.138-1.152,10.671,10.671,0,0,0,2.033-6.061c.138-.185.269-.377.391-.576L60.659,39c2.287,5.748.937,9.521.924,9.557Z"/>
            <path id="Path_1598661" data-name="Path 1598661" d="M40.918,46.139h0a1.033,1.033,0,1,0,1.035,1.033A1.033,1.033,0,0,0,40.917,46.139Z"/>
            <path id="Path_1598662" data-name="Path 1598662" d="M28.936,62h0a1.033,1.033,0,1,0,1.035,1.033A1.033,1.033,0,0,0,28.934,62Z"/>
            <path id="Path_1598663" data-name="Path 1598663" d="M33.069,60.966h0A1.033,1.033,0,1,0,34.1,62,1.033,1.033,0,0,0,33.068,60.966Z"/>
            <path id="Path_1598664" data-name="Path 1598664" d="M36.169,62h0A1.033,1.033,0,1,0,37.2,63.033,1.033,1.033,0,0,0,36.168,62Z"/>
            <path id="Path_1598665" data-name="Path 1598665" d="M40.3,62h0a1.033,1.033,0,1,0,1.035,1.033A1.033,1.033,0,0,0,40.3,62Z"/>
            <path id="Path_1598666" data-name="Path 1598666" d="M3.1,8.267H6.42a5.13,5.13,0,0,0-.432,2.067V12.4a1.033,1.033,0,0,0,1.033,1.033h.6a4.935,4.935,0,0,1-.591,1.017,5.119,5.119,0,0,0-1.046,3.116,5.185,5.185,0,0,0,1.642,3.778,5.115,5.115,0,0,0,3.519,1.389c.123,0,.246,0,.37-.013A5.166,5.166,0,0,0,15.313,14.5a5.545,5.545,0,0,1-.618-1.069h.592A1.033,1.033,0,0,0,16.32,12.4V10.333a5.117,5.117,0,0,0-.435-2.067H28.333a5.135,5.135,0,0,0-.433,2.067V12.4a1.033,1.033,0,0,0,1.033,1.033h.594a5.555,5.555,0,0,1-.621,1.069A5.166,5.166,0,0,0,32.7,22.721q.186.013.37.013a5.115,5.115,0,0,0,3.519-1.389,5.185,5.185,0,0,0,1.642-3.778,5.119,5.119,0,0,0-1.046-3.116,4.935,4.935,0,0,1-.592-1.017h.6A1.033,1.033,0,0,0,38.233,12.4V10.333A5.114,5.114,0,0,0,37.8,8.267h12.45a5.124,5.124,0,0,0-.436,2.067V12.4a1.033,1.033,0,0,0,1.033,1.033h.594a5.563,5.563,0,0,1-.62,1.069,5.166,5.166,0,0,0,3.795,8.218q.186.013.37.013A5.115,5.115,0,0,0,58.5,21.344a5.185,5.185,0,0,0,1.642-3.778A5.119,5.119,0,0,0,59.1,14.45a4.932,4.932,0,0,1-.589-1.017h.6A1.033,1.033,0,0,0,60.146,12.4V10.333a5.131,5.131,0,0,0-.433-2.067h3.32a1.033,1.033,0,0,0,1.033-1.033V3.1a1.033,1.033,0,0,0-1.033-1.033H3.1A1.033,1.033,0,0,0,2.067,3.1V7.233A1.033,1.033,0,0,0,3.1,8.267ZM13.651,15.73a3.065,3.065,0,0,1,.6,2.056,3.1,3.1,0,0,1-5.207,2.048A3.1,3.1,0,0,1,8.681,15.7a7.066,7.066,0,0,0,1.136-2.265H12.5a7.485,7.485,0,0,0,1.154,2.3Zm.6-5.4v1.033h-6.2V10.333a3.086,3.086,0,0,1,.793-2.067h4.615A3.085,3.085,0,0,1,14.254,10.333ZM35.54,15.7a3.1,3.1,0,0,1-2.7,4.96,3.1,3.1,0,0,1-2.87-2.873,3.067,3.067,0,0,1,.6-2.056,7.5,7.5,0,0,0,1.155-2.3H34.4A7.067,7.067,0,0,0,35.54,15.7Zm.627-5.365v1.033h-6.2V10.333a3.087,3.087,0,0,1,.792-2.067h4.616A3.086,3.086,0,0,1,36.166,10.333ZM57.452,15.7a3.1,3.1,0,0,1-2.7,4.96,3.1,3.1,0,0,1-2.87-2.874,3.065,3.065,0,0,1,.6-2.055,7.5,7.5,0,0,0,1.154-2.3h2.679A7.085,7.085,0,0,0,57.452,15.7Zm.627-5.365v1.033h-6.2V10.333a3.086,3.086,0,0,1,.793-2.067h4.613a3.079,3.079,0,0,1,.794,2.067ZM4.133,4.133H62V6.2H4.133Z"/>
            <path id="Path_1598667" data-name="Path 1598667" d="M33.066,27.9A1.033,1.033,0,0,0,34.1,26.866V25.833a1.033,1.033,0,1,0-2.067,0v1.033A1.033,1.033,0,0,0,33.066,27.9Z"/>
            <path id="Path_1598668" data-name="Path 1598668" d="M36.683,23.831a1.033,1.033,0,0,0-.378,1.412l.517.895a1.033,1.033,0,1,0,1.79-1.033l-.517-.895a1.033,1.033,0,0,0-1.412-.378Z"/>
            <path id="Path_1598669" data-name="Path 1598669" d="M40.742,20.8a1.033,1.033,0,1,0-1.033,1.79l.895.517a1.033,1.033,0,0,0,1.033-1.79Z"/>
            <path id="Path_1598670" data-name="Path 1598670" d="M28.038,24.209l-.517.895a1.033,1.033,0,1,0,1.79,1.033l.517-.895a1.033,1.033,0,1,0-1.79-1.033Z"/>
            <path id="Path_1598671" data-name="Path 1598671" d="M25.391,20.8l-.895.517a1.033,1.033,0,1,0,1.033,1.79l.895-.517a1.033,1.033,0,1,0-1.033-1.79Z"/>
          </g>
        </g>
      </g>
    </g>
  </g>
</svg>
