<svg xmlns="http://www.w3.org/2000/svg" xmlns:xlink="http://www.w3.org/1999/xlink" width="98" height="98" viewBox="0 0 98 98">
  <defs>
    <filter id="Path_874925" x="0" y="0" width="98" height="98" filterUnits="userSpaceOnUse">
      <feOffset dy="3" input="SourceAlpha"/>
      <feGaussianBlur stdDeviation="3" result="blur"/>
      <feFlood flood-opacity="0.161"/>
      <feComposite operator="in" in2="blur"/>
      <feComposite in="SourceGraphic"/>
    </filter>
    <clipPath id="clip-path">
      <rect id="Rectangle_412676" data-name="Rectangle 412676" width="52" height="50" transform="translate(-8710 1562)" fill="#fff" stroke="#707070" stroke-width="1" opacity="0"/>
    </clipPath>
  </defs>
  <g id="Group_1205602" data-name="Group 1205602" transform="translate(8733.051 -1541)">
    <g id="Group_1205603" data-name="Group 1205603" transform="translate(-9008.742 -4550.407)">
      <g id="Group_1200231" data-name="Group 1200231" transform="translate(-0.309)">
        <g id="Group_1187153" data-name="Group 1187153">
          <g id="Group_1182177" data-name="Group 1182177">
            <g id="Group_1181903" data-name="Group 1181903">
              <g id="Group_1181438" data-name="Group 1181438">
                <g id="Group_1111314" data-name="Group 1111314" transform="translate(-734.73 3020.407)">
                  <g transform="matrix(1, 0, 0, 1, 1010.73, 3071)" filter="url(#Path_874925)">
                    <g id="Path_874925-2" data-name="Path 874925" transform="translate(9 6)" fill="#ffc94a">
                      <path d="M 39.99997329711914 79.50040435791016 C 34.66728591918945 79.50040435791016 29.494384765625 78.45610046386719 24.62495040893555 76.39649963378906 C 19.92138481140137 74.40706634521484 15.69705104827881 71.55889892578125 12.06927299499512 67.93113708496094 C 8.441506385803223 64.30335998535156 5.593339920043945 60.07902526855469 3.603906631469727 55.37545776367188 C 1.544306635856628 50.50602340698242 0.5000066161155701 45.33312606811523 0.5000066161155701 40.00043487548828 C 0.5000066161155701 34.66728973388672 1.544306635856628 29.4943904876709 3.603906631469727 24.62495803833008 C 5.593339920043945 19.92139053344727 8.441506385803223 15.69704627990723 12.06927299499512 12.06927967071533 C 15.69705104827881 8.441502571105957 19.92138481140137 5.59334659576416 24.62495040893555 3.603902101516724 C 29.494384765625 1.544302225112915 34.66728591918945 0.5000022053718567 39.99997329711914 0.5000022053718567 C 45.33266067504883 0.5000022053718567 50.50556182861328 1.544302225112915 55.37499618530273 3.603902101516724 C 60.07856369018555 5.59334659576416 64.30290985107422 8.441502571105957 67.93067169189453 12.06927967071533 C 71.55844879150391 15.69704627990723 74.40660858154297 19.92139053344727 76.39604949951172 24.62495803833008 C 78.45565032958984 29.4943904876709 79.49995422363281 34.66728973388672 79.49995422363281 39.99998092651367 C 79.49995422363281 45.33312606811523 78.45565032958984 50.50602340698242 76.39604949951172 55.37545776367188 C 74.40660858154297 60.07902526855469 71.55844879150391 64.30335998535156 67.93067169189453 67.93113708496094 C 64.30290985107422 71.55889892578125 60.07856369018555 74.40706634521484 55.37499618530273 76.39649963378906 C 50.50556182861328 78.45610046386719 45.33266067504883 79.50040435791016 39.99997329711914 79.50040435791016 Z" stroke="none"/>
                      <path d="M 39.99997329711914 1 C 34.73457336425781 1 29.627197265625 2.031013488769531 24.81972885131836 4.064399719238281 C 20.17576217651367 6.028633117675781 16.00484085083008 8.840812683105469 12.42282867431641 12.42282104492188 C 8.840805053710938 16.00483703613281 6.02862548828125 20.17575836181641 4.06439208984375 24.81973648071289 C 2.031005859375 29.62720108032227 0.9999923706054688 34.73456954956055 0.9999923706054688 40.00043487548828 C 0.9999923706054688 45.26583480834961 2.031005859375 50.37321472167969 4.06439208984375 55.18067932128906 C 6.02862548828125 59.82464599609375 8.840805053710938 63.99556732177734 12.42282867431641 67.57757568359375 C 16.00484085083008 71.15959167480469 20.17576217651367 73.97177124023438 24.81972885131836 75.93600463867188 C 29.627197265625 77.96939086914062 34.73457336425781 79.00040435791016 39.99997329711914 79.00040435791016 C 45.26537322998047 79.00040435791016 50.37274932861328 77.96939086914062 55.18021774291992 75.93600463867188 C 59.82418441772461 73.97177124023438 63.9951057434082 71.15959167480469 67.57711791992188 67.57757568359375 C 71.15912628173828 63.99556732177734 73.97130584716797 59.82464599609375 75.93553924560547 55.18067932128906 C 77.96892547607422 50.37321472167969 78.99993896484375 45.26583480834961 78.99993896484375 39.99998092651367 C 78.99993896484375 34.73456954956055 77.96892547607422 29.62720108032227 75.93553924560547 24.81973648071289 C 73.97130584716797 20.17575836181641 71.15912628173828 16.00483703613281 67.57711791992188 12.42282104492188 C 63.9951057434082 8.840812683105469 59.82418441772461 6.028633117675781 55.18021774291992 4.064399719238281 C 50.37274932861328 2.031013488769531 45.26537322998047 1 39.99997329711914 1 M 39.99997329711914 0 C 62.09135055541992 0 79.99993896484375 17.90859222412109 79.99993896484375 39.99998092651367 L 79.99993896484375 40.00043487548828 C 79.99993896484375 62.09181213378906 62.09135055541992 80.00040435791016 39.99997329711914 80.00040435791016 C 17.90859603881836 80.00040435791016 -7.62939453125e-06 62.09181213378906 -7.62939453125e-06 40.00043487548828 L -7.62939453125e-06 39.99998092651367 C -7.62939453125e-06 17.90859222412109 17.90859603881836 0 39.99997329711914 0 Z" stroke="none" fill="#b18c32"/>
                    </g>
                  </g>
                </g>
              </g>
            </g>
          </g>
        </g>
      </g>
    </g>
    <g id="Mask_Group_1099447" data-name="Mask Group 1099447" clip-path="url(#clip-path)">
      <g id="obediente" transform="translate(-8709 1562)">
        <g id="Group_1205604" data-name="Group 1205604">
          <path id="Path_1599355" data-name="Path 1599355" d="M42.946.732h-31.1a.488.488,0,0,0-.488.488V14.759h3.2a2.393,2.393,0,0,1,.167,4.78v2.969h0a.976.976,0,0,1,.828.964v6.062a.976.976,0,0,1-.828.964h0v2.969a2.393,2.393,0,0,1-.167,4.78h-3.2v4.008H18.1a.977.977,0,0,1,.977.977v1.946h.744a.977.977,0,0,1,.977.977v3.115H43.434V1.221A.488.488,0,0,0,42.946.732Z" fill="#fff3de"/>
        </g>
        <g id="Group_1205605" data-name="Group 1205605">
          <path id="Path_1599356" data-name="Path 1599356" d="M14.561,14.759l.087,0V1.221a.488.488,0,0,1,.488-.488h-3.29a.488.488,0,0,0-.488.488V14.759Z" fill="#ffe5c2"/>
          <path id="Path_1599357" data-name="Path 1599357" d="M14.561,38.247h-3.2v4.008h3.29v-4.01Z" fill="#ffe5c2"/>
        </g>
        <g id="Group_1205623" data-name="Group 1205623">
          <g id="Group_1205606" data-name="Group 1205606">
            <path id="Path_1599358" data-name="Path 1599358" d="M15.556,24.833h4.52v3.34h-4.52Z" fill="#883f2e"/>
            <path id="Path_1599359" data-name="Path 1599359" d="M23.194,24.833H29.65v3.34H23.194Z" fill="#883f2e"/>
          </g>
          <g id="Group_1205607" data-name="Group 1205607">
            <path id="Path_1599360" data-name="Path 1599360" d="M15.556,26.563h4.52v1.61h-4.52Z" fill="#6d3326"/>
            <path id="Path_1599361" data-name="Path 1599361" d="M23.194,26.563H29.65v1.61H23.194Z" fill="#6d3326"/>
          </g>
          <g id="Group_1205608" data-name="Group 1205608">
            <path id="Path_1599362" data-name="Path 1599362" d="M47.8,26.5a2.449,2.449,0,0,1-2.449,2.449H30.207a.557.557,0,0,1-.557-.557V24.61a.557.557,0,0,1,.557-.557H45.346A2.449,2.449,0,0,1,47.8,26.5Z" fill="#ca6e59"/>
          </g>
          <g id="Group_1205609" data-name="Group 1205609">
            <path id="Path_1599363" data-name="Path 1599363" d="M32.978,26.855a.557.557,0,0,1-.557-.557V24.054H30.207a.557.557,0,0,0-.557.557V28.4a.557.557,0,0,0,.557.557H45.346a2.449,2.449,0,0,0,2.423-2.1Z" fill="#bb5d4c"/>
          </g>
          <g id="Group_1205610" data-name="Group 1205610">
            <path id="Path_1599364" data-name="Path 1599364" d="M23.194,24.542v3.921a.488.488,0,0,1-.488.488h-2.14a.488.488,0,0,1-.488-.488V24.542a.488.488,0,0,1,.488-.488h2.14a.488.488,0,0,1,.488.488Z" fill="#ca6e59"/>
          </g>
          <g id="Group_1205611" data-name="Group 1205611">
            <path id="Path_1599365" data-name="Path 1599365" d="M21.492,28.464V24.542a.488.488,0,0,1,.488-.488H20.565a.488.488,0,0,0-.488.488v3.921a.488.488,0,0,0,.488.488h1.416A.488.488,0,0,1,21.492,28.464Z" fill="#bb5d4c"/>
          </g>
          <g id="Group_1205612" data-name="Group 1205612">
            <path id="Path_1599366" data-name="Path 1599366" d="M14.58,30.51H8.42a.981.981,0,0,1-.149-.013v2.969c.055,0,.111-.006.167-.006h6.123c.056,0,.112,0,.167.006V30.5A.969.969,0,0,1,14.58,30.51Z" fill="#883f2e"/>
            <path id="Path_1599367" data-name="Path 1599367" d="M8.42,30.51a.981.981,0,0,1-.149-.013v2.969c.055,0,.111-.006.167-.006h2.292V30.51H8.42Z" fill="#6d3326"/>
            <path id="Path_1599368" data-name="Path 1599368" d="M8.42,22.5H14.58a.981.981,0,0,1,.149.012V19.539c-.055,0-.111.006-.167.006H8.439c-.056,0-.112,0-.167-.006v2.969A.981.981,0,0,1,8.42,22.5Z" fill="#883f2e"/>
            <path id="Path_1599369" data-name="Path 1599369" d="M8.42,22.5h2.311v-2.95H8.439c-.056,0-.112,0-.167-.006v2.969A.994.994,0,0,1,8.42,22.5Z" fill="#6d3326"/>
          </g>
          <g id="Group_1205613" data-name="Group 1205613">
            <path id="Path_1599370" data-name="Path 1599370" d="M15.556,23.472v6.062a.977.977,0,0,1-.977.977H8.42a.977.977,0,0,1-.977-.977V23.472A.977.977,0,0,1,8.42,22.5H14.58A.977.977,0,0,1,15.556,23.472Z" fill="#ca6e59"/>
          </g>
          <g id="Group_1205614" data-name="Group 1205614">
            <path id="Path_1599371" data-name="Path 1599371" d="M10.742,29.534V23.472a.977.977,0,0,1,.977-.977H8.42a.977.977,0,0,0-.977.977v6.062a.977.977,0,0,0,.977.977h3.3A.977.977,0,0,1,10.742,29.534Z" fill="#bb5d4c"/>
          </g>
          <g id="Group_1205617" data-name="Group 1205617">
            <path id="Path_1599372" data-name="Path 1599372" d="M19.07,45.274a1,1,0,0,0,.005-.1V43.231a.977.977,0,0,0-.977-.977H4.9a.977.977,0,0,0-.977.977v1.943a1,1,0,0,0,.005.1Z" fill="#ca6e59"/>
            <path id="Path_1599373" data-name="Path 1599373" d="M7.232,45.274a1,1,0,0,1-.005-.1V43.231a.977.977,0,0,1,.977-.977H4.9a.977.977,0,0,0-.977.977v1.943a1,1,0,0,0,.005.1Z" fill="#bb5d4c"/>
            <g id="Group_1205615" data-name="Group 1205615">
              <path id="Path_1599374" data-name="Path 1599374" d="M20.8,49.268H2.693a.488.488,0,0,1-.488-.488V46.153a.977.977,0,0,1,.977-.977H19.819a.977.977,0,0,1,.977.977Z" fill="#883f2e"/>
            </g>
            <g id="Group_1205616" data-name="Group 1205616">
              <path id="Path_1599375" data-name="Path 1599375" d="M5.469,48.779V46.153a.977.977,0,0,1,.977-.977H3.181a.977.977,0,0,0-.977.977v2.626a.488.488,0,0,0,.488.488H5.957A.488.488,0,0,1,5.469,48.779Z" fill="#6d3326"/>
            </g>
          </g>
          <g id="Group_1205622" data-name="Group 1205622">
            <g id="Group_1205618" data-name="Group 1205618">
              <path id="Path_1599376" data-name="Path 1599376" d="M16.955,35.854a2.393,2.393,0,0,1-2.393,2.393H8.439a2.393,2.393,0,0,1,0-4.787h6.123A2.393,2.393,0,0,1,16.955,35.854Z" fill="#ca6e59"/>
            </g>
            <g id="Group_1205619" data-name="Group 1205619">
              <path id="Path_1599377" data-name="Path 1599377" d="M9.306,35.854A2.393,2.393,0,0,1,11.7,33.46H8.439a2.393,2.393,0,0,0,0,4.787H11.7A2.393,2.393,0,0,1,9.306,35.854Z" fill="#bb5d4c"/>
            </g>
            <g id="Group_1205620" data-name="Group 1205620">
              <path id="Path_1599378" data-name="Path 1599378" d="M16.955,17.152a2.393,2.393,0,0,1-2.393,2.393H8.439a2.393,2.393,0,1,1,0-4.787h6.123A2.393,2.393,0,0,1,16.955,17.152Z" fill="#ca6e59"/>
            </g>
            <g id="Group_1205621" data-name="Group 1205621">
              <path id="Path_1599379" data-name="Path 1599379" d="M9.306,17.152A2.393,2.393,0,0,1,11.7,14.759H8.439a2.393,2.393,0,1,0,0,4.787H11.7A2.393,2.393,0,0,1,9.306,17.152Z" fill="#bb5d4c"/>
            </g>
          </g>
        </g>
        <g id="Group_1205626" data-name="Group 1205626">
          <g id="Group_1205624" data-name="Group 1205624">
            <circle id="Ellipse_12737" data-name="Ellipse 12737" cx="6.852" cy="6.852" r="6.852" transform="translate(20.544 5.284)" fill="#4fc123"/>
          </g>
          <g id="Group_1205625" data-name="Group 1205625">
            <path id="Path_1599380" data-name="Path 1599380" d="M23.828,12.136a6.854,6.854,0,0,1,5.21-6.653,6.852,6.852,0,1,0,0,13.306,6.854,6.854,0,0,1-5.21-6.653Z" fill="#47a920"/>
          </g>
        </g>
        <g id="Group_1205627" data-name="Group 1205627">
          <path id="Path_1599381" data-name="Path 1599381" d="M45.346,23.321H44.167V10.645a.733.733,0,0,0-.755-.732.753.753,0,0,0-.71.763V23.321H37.793a.732.732,0,0,0,0,1.465h7.553a1.717,1.717,0,0,1,0,3.433H30.383V24.786h3.992a.732.732,0,0,0,0-1.465H30.207a1.291,1.291,0,0,0-1.183.779H23.842a1.222,1.222,0,0,0-1.137-.779h-2.14a1.222,1.222,0,0,0-1.137.779H16.289v-.629a1.708,1.708,0,0,0-.828-1.462V20.145a3.126,3.126,0,0,0-.9-6.119h-2.47V1.465H42.7V7.227a.733.733,0,0,0,.755.732.753.753,0,0,0,.71-.763V1.221A1.221,1.221,0,0,0,42.946,0h-31.1a1.221,1.221,0,0,0-1.221,1.221V14.026H8.439a3.126,3.126,0,0,0-.9,6.119V22.01a1.708,1.708,0,0,0-.828,1.462v6.062A1.708,1.708,0,0,0,7.539,31V32.86a3.126,3.126,0,0,0,.9,6.119h2.188v2.543H4.9a1.711,1.711,0,0,0-1.709,1.709v1.213H3.181a1.711,1.711,0,0,0-1.709,1.709v2.626A1.222,1.222,0,0,0,2.693,50H42.946a1.221,1.221,0,0,0,1.221-1.221v-19.1h1.179a3.181,3.181,0,0,0,0-6.363Zm-21.42,2.244h4.992V27.44H23.926Zm-3.117-.779h1.652v3.433H20.809Zm-4.52.779h3.056V27.44H16.289ZM6.778,17.152a1.663,1.663,0,0,1,1.661-1.661h6.123a1.661,1.661,0,1,1,0,3.322H8.439a1.663,1.663,0,0,1-1.661-1.661ZM8.42,29.778a.244.244,0,0,1-.244-.244V23.472a.244.244,0,0,1,.244-.244H14.58a.244.244,0,0,1,.244.244v6.062a.244.244,0,0,1-.244.244ZM14,31.243v1.485H9V31.243ZM9,21.763V20.278H14v1.485ZM8.439,37.515a1.661,1.661,0,0,1,0-3.322h6.123a1.661,1.661,0,0,1,0,3.322ZM20.063,48.535H2.937V46.153a.244.244,0,0,1,.244-.244H7.715a.732.732,0,0,0,0-1.465H4.658V43.231a.244.244,0,0,1,.244-.244H18.1a.244.244,0,0,1,.244.244v1.213H11.133a.732.732,0,0,0,0,1.465h8.686a.244.244,0,0,1,.244.244Zm22.639,0H21.528V46.153a1.711,1.711,0,0,0-1.709-1.709h-.012V43.231A1.711,1.711,0,0,0,18.1,41.522H12.091V38.979h2.47a3.126,3.126,0,0,0,.9-6.119V31a1.708,1.708,0,0,0,.828-1.462V28.9h3.139a1.222,1.222,0,0,0,1.137.779h2.14a1.222,1.222,0,0,0,1.137-.779h5.181a1.291,1.291,0,0,0,1.183.779H42.7V48.535Z"/>
          <path id="Path_1599382" data-name="Path 1599382" d="M19.812,12.136A7.585,7.585,0,1,0,27.4,4.551a7.593,7.593,0,0,0-7.585,7.585Zm13.7,0a6.12,6.12,0,1,1-6.12-6.12,6.127,6.127,0,0,1,6.12,6.12Z"/>
          <path id="Path_1599383" data-name="Path 1599383" d="M25.307,11.333a.732.732,0,1,0-1.036,1.036l2.253,2.253a.733.733,0,0,0,1.036,0l3.492-3.492a.732.732,0,1,0-1.036-1.036l-2.974,2.974Z"/>
          <path id="Path_1599384" data-name="Path 1599384" d="M23.8,32.673a.732.732,0,0,0,.732.732H38a.732.732,0,0,0,0-1.465H24.529A.732.732,0,0,0,23.8,32.673Z"/>
          <path id="Path_1599385" data-name="Path 1599385" d="M38,35.5H31.055a.732.732,0,1,0,0,1.465H38A.732.732,0,0,0,38,35.5Z"/>
          <path id="Path_1599386" data-name="Path 1599386" d="M24.529,36.967h3.986a.732.732,0,0,0,0-1.465H24.529a.732.732,0,0,0,0,1.465Z"/>
          <path id="Path_1599387" data-name="Path 1599387" d="M38,39.065H24.529a.732.732,0,0,0,0,1.465H38a.732.732,0,0,0,0-1.465Z"/>
          <path id="Path_1599388" data-name="Path 1599388" d="M38,42.627H34.473a.732.732,0,0,0,0,1.465H38a.732.732,0,0,0,0-1.465Z"/>
          <path id="Path_1599389" data-name="Path 1599389" d="M32.227,42.627h-7.7a.732.732,0,0,0,0,1.465h7.7a.732.732,0,0,0,0-1.465Z"/>
        </g>
      </g>
    </g>
  </g>
</svg>
