<svg xmlns="http://www.w3.org/2000/svg" xmlns:xlink="http://www.w3.org/1999/xlink" width="90" height="90" viewBox="0 0 90 90">
  <defs>
    <clipPath id="clip-path">
      <rect id="Rectangle_412583" data-name="Rectangle 412583" width="64" height="62" transform="translate(-8659 -1987)" fill="#fff" stroke="#707070" stroke-width="1" opacity="0"/>
    </clipPath>
  </defs>
  <g id="Group_1205429" data-name="Group 1205429" transform="translate(8672 2001)">
    <g id="Group_1205427" data-name="Group 1205427">
      <g id="Group_1205426" data-name="Group 1205426" transform="translate(-9479.781 -4554)">
        <g id="Rectangle_411076" data-name="Rectangle 411076" transform="translate(807.781 2553)" fill="#dfe3bc" stroke="#aeba58" stroke-width="3">
          <rect width="90" height="90" rx="20" stroke="none"/>
          <rect x="1.5" y="1.5" width="87" height="87" rx="18.5" fill="none"/>
        </g>
      </g>
      <g id="Mask_Group_1099427" data-name="Mask Group 1099427" clip-path="url(#clip-path)">
        <g id="gallina_1_" data-name="gallina (1)" transform="translate(-8658.32 -1987.32)">
          <path id="Path_1598542" data-name="Path 1598542" d="M13.626,41.829l-6.18,6.18a5.548,5.548,0,0,0,3.923,9.471,9.163,9.163,0,0,0,9.163-9.163V41.829Z" fill="#e6646e"/>
          <path id="Path_1598543" data-name="Path 1598543" d="M19.551,41.829v2.565a9.163,9.163,0,0,1-9.163,9.163,5.536,5.536,0,0,1-4.5-2.311,5.484,5.484,0,0,0-.068.686,5.548,5.548,0,0,0,5.548,5.548,9.163,9.163,0,0,0,9.163-9.163V41.829Z" fill="#dc4655"/>
          <path id="Path_1598544" data-name="Path 1598544" d="M59.724,10.541a25.932,25.932,0,0,0-10.1-4.059l.485-2.425a1.965,1.965,0,0,0-2.121-2.34,28.975,28.975,0,0,0-9.724,2.8L37.173,2.334A1.951,1.951,0,0,0,34.5,1.473a28.148,28.148,0,0,0-8.987,8.442l-1.193-.522a1.94,1.94,0,0,0-2.4.681c-3.527,5.413-3.6,15.042-3.6,15.042l33.59-5.884L59.66,13.72A1.959,1.959,0,0,0,59.724,10.541Z" fill="#e6646e"/>
          <g id="Group_1205429-2" data-name="Group 1205429">
            <path id="Path_1598545" data-name="Path 1598545" d="M38.267,4.521l.068-.035Z" fill="#dc4655"/>
            <path id="Path_1598546" data-name="Path 1598546" d="M37.173,2.334A1.951,1.951,0,0,0,34.5,1.473a28.148,28.148,0,0,0-8.987,8.442l-1.193-.522a2.037,2.037,0,0,0-2.446.748c-3.484,5.425-3.553,14.975-3.553,14.975l7.11-1.246c0-3.432,2.017-7.668,3.923-10.523,2.245-3.363,4.665-6.683,8.908-8.826Z" fill="#dc4655"/>
          </g>
          <path id="Path_1598547" data-name="Path 1598547" d="M38.343,10.42C26.12,10.854,16.609,21.271,16.609,33.5v9.609a5.881,5.881,0,0,1,3.923,5.542V61.4h41.19V32.961A22.557,22.557,0,0,0,38.343,10.42Z" fill="#edebed"/>
          <path id="Path_1598548" data-name="Path 1598548" d="M45.05,11.185a22.594,22.594,0,0,0-7.868-.694C25.441,11.516,16.609,21.7,16.609,33.485v9.625a5.881,5.881,0,0,1,3.923,5.542V61.4h7.846V32.961A22.562,22.562,0,0,1,45.05,11.185Z" fill="#dbd9dc"/>
          <path id="Path_1598549" data-name="Path 1598549" d="M21.1,29.232a2.342,2.342,0,0,0-1.908-1.114C14.917,28.541,1.775,30.292.957,41.64l1.309,1.128H14.648a5.85,5.85,0,0,1,3.911,1.492,1.493,1.493,0,0,0,2.081-.071C26.613,37.788,21.779,30.323,21.1,29.232Z" fill="#ffc850"/>
          <path id="Path_1598550" data-name="Path 1598550" d="M19.429,38.907c-11.371,0-15.974,2.017-17.653,3.135l.411.726H14.648a5.85,5.85,0,0,1,3.911,1.492,1.493,1.493,0,0,0,2.081-.071A10.63,10.63,0,0,0,23.329,39.3,32.607,32.607,0,0,0,19.429,38.907Z" fill="#ebaf4b"/>
          <path id="Path_1598551" data-name="Path 1598551" d="M30.83,32.961h0A3.443,3.443,0,0,1,27.4,29.529V27.568a3.443,3.443,0,0,1,3.432-3.432h0a3.443,3.443,0,0,1,3.432,3.432v1.961A3.443,3.443,0,0,1,30.83,32.961Z" fill="#4b3f4e"/>
          <path id="Path_1598552" data-name="Path 1598552" d="M30.83,24.135a3.36,3.36,0,0,0-.49.05v4.854a1.961,1.961,0,0,0,3.923,0V27.568A3.443,3.443,0,0,0,30.83,24.135Z" fill="#5d5360"/>
          <circle id="Ellipse_12708" data-name="Ellipse 12708" cx="1.471" cy="1.471" r="1.471" transform="translate(29.359 25.116)" fill="#fff"/>
          <path id="Path_1598553" data-name="Path 1598553" d="M56.448,17.074l3.736-2.6a2.9,2.9,0,0,0,1.24-2.347A2.807,2.807,0,0,0,60.265,9.8a26.135,26.135,0,0,0-9.556-4.049l.3-1.514A2.882,2.882,0,0,0,47.9.8a30.57,30.57,0,0,0-9.214,2.5l-.688-1.376A2.916,2.916,0,0,0,36.259.45a2.794,2.794,0,0,0-2.2.219,28.69,28.69,0,0,0-8.871,8.1l-.5-.217a2.841,2.841,0,0,0-3.539,1.02c-3.417,5.243-3.717,13.318-3.743,14.566a23.18,23.18,0,0,0-1.083,3.382,27.716,27.716,0,0,0-8.352,2.59A15.327,15.327,0,0,0,2.4,34.778,13.515,13.515,0,0,0,0,42.769a.918.918,0,0,0,.918.918h9.553L6.8,47.36A6.465,6.465,0,0,0,11.369,58.4,10.073,10.073,0,0,0,19.614,54.1v7.3a.918.918,0,1,0,1.835,0V48.653c0-.056-.023-.54-.023-.54a6.81,6.81,0,0,0-6.779-6.262H4.315c2.586-.982,7.444-2.088,16.217-2.088a.918.918,0,1,0,0-1.835c-11.017,0-16.218,1.686-18.572,2.954C2.5,36.891,4.8,33.821,8.818,31.74a28.082,28.082,0,0,1,10.439-2.708,1.032,1.032,0,0,1,1.013.591A56.765,56.765,0,0,1,22.6,35.213a.918.918,0,1,0,1.741-.58,57.106,57.106,0,0,0-2.416-5.793,2.855,2.855,0,0,0-2.8-1.637c-.256.018-.539.042-.844.071A21.652,21.652,0,0,1,49.515,13.953a.918.918,0,0,0,.879-1.611,23.461,23.461,0,0,0-30.774,7.627,24.244,24.244,0,0,1,3.072-9.395,1.025,1.025,0,0,1,1.266-.341l1.193.522a.917.917,0,0,0,1.141-.347,27.336,27.336,0,0,1,8.657-8.132.974.974,0,0,1,.767-.073,1.072,1.072,0,0,1,.638.541l1.093,2.187a.918.918,0,0,0,1.255.4,28.193,28.193,0,0,1,9.385-2.7,1.025,1.025,0,0,1,.871.335,1.04,1.04,0,0,1,.255.913L48.727,6.3a.918.918,0,0,0,.764,1.087,25.188,25.188,0,0,1,9.692,3.893.991.991,0,0,1,.407.824,1.051,1.051,0,0,1-.454.861l-4,2.788q-.653-.605-1.356-1.167a.918.918,0,1,0-1.143,1.436A21.543,21.543,0,0,1,60.8,32.961V61.4a.918.918,0,1,0,1.835,0V32.961A23.341,23.341,0,0,0,56.448,17.074ZM18.629,45.687a7.163,7.163,0,0,1-5.115,6.273.918.918,0,0,0,.426,1.785,9,9,0,0,0,5.645-4.75,8.255,8.255,0,0,1-8.215,7.568,4.63,4.63,0,0,1-3.274-7.9l4.971-4.971h1.581A4.962,4.962,0,0,1,18.629,45.687Z"/>
          <path id="Path_1598554" data-name="Path 1598554" d="M33.538,25.267A.918.918,0,0,0,33.1,26.49a2.492,2.492,0,0,1,.242,1.078v1.961a2.515,2.515,0,0,1-5.03,0V27.567a2.518,2.518,0,0,1,2.515-2.515.918.918,0,1,0,0-1.835,4.355,4.355,0,0,0-4.35,4.35v1.961a4.35,4.35,0,0,0,8.7,0V27.567A4.313,4.313,0,0,0,34.76,25.7.917.917,0,0,0,33.538,25.267Z"/>
        </g>
      </g>
    </g>
  </g>
</svg>
