<svg xmlns="http://www.w3.org/2000/svg" xmlns:xlink="http://www.w3.org/1999/xlink" width="90" height="90" viewBox="0 0 90 90">
  <defs>
    <clipPath id="clip-path">
      <rect id="Rectangle_411076" data-name="Rectangle 411076" width="72" height="72" rx="20" fill="#dfe3bc" stroke="#aeba58" stroke-width="3"/>
    </clipPath>
  </defs>
  <g id="Group_1205555" data-name="Group 1205555" transform="translate(638 10146)">
    <g id="Group_1205554" data-name="Group 1205554" transform="translate(8034 -8145)">
      <g id="Group_1205426" data-name="Group 1205426" transform="translate(-9479.781 -4554)">
        <g id="Rectangle_411076-2" data-name="Rectangle 411076" transform="translate(807.781 2553)" fill="#dfe3bc" stroke="#aeba58" stroke-width="3">
          <rect width="90" height="90" rx="20" stroke="none"/>
          <rect x="1.5" y="1.5" width="87" height="87" rx="18.5" fill="none"/>
        </g>
      </g>
      <g id="Rectangle_412583" data-name="Rectangle 412583" transform="translate(-8659 -1987)" fill="#fff" stroke="#707070" stroke-width="1" opacity="0">
        <rect width="64" height="62" stroke="none"/>
        <rect x="0.5" y="0.5" width="63" height="61" fill="none"/>
      </g>
    </g>
    <g id="Group_1205528" data-name="Group 1205528" transform="translate(8043 -8136)">
      <g id="Group_1205426-2" data-name="Group 1205426" transform="translate(-8672 -2001)">
        <g id="Mask_Group_1099443" data-name="Mask Group 1099443" transform="translate(0 0)" clip-path="url(#clip-path)">
          <g id="aprendizaje" transform="translate(3.364 0)">
            <g id="Group_1205547" data-name="Group 1205547" transform="translate(1.049 1.048)">
              <path id="Path_1599169" data-name="Path 1599169" d="M66.907,34.177a1.306,1.306,0,0,1,1.306,1.306V72.065a5.4,5.4,0,0,1-5.4,5.4H10.957a5.4,5.4,0,0,1-5.4-5.4V35.483a1.306,1.306,0,0,1,1.306-1.306Z" transform="translate(-5.556 -8.08)" fill="#b3e5ee"/>
              <path id="Path_1599170" data-name="Path 1599170" d="M10.54,34.177V71.088a4.435,4.435,0,0,0,4.429,4.43H60.99a4.435,4.435,0,0,0,4.429-4.43V34.177Z" transform="translate(-6.582 -8.08)" fill="#86d7e5"/>
              <path id="Path_1599171" data-name="Path 1599171" d="M62.237,30.855H15.171a1.11,1.11,0,0,0-1.11,1.112v33.4L29.228,70.9l9.476,1.09,22.711-4.1,1.932-2.53v-33.4a1.11,1.11,0,0,0-1.11-1.112Z" transform="translate(-7.306 -7.397)" fill="#f9f7f7"/>
              <path id="Path_1599172" data-name="Path 1599172" d="M43.768,30.855h2.1V72.039h-2.1Z" transform="translate(-13.418 -7.397)" fill="#f8f3f2"/>
              <path id="Path_1599173" data-name="Path 1599173" d="M28.793,30.855l6.15,9.575v.743a3.643,3.643,0,0,0,1.549,2.979V45.32a4.437,4.437,0,0,0,4.432,4.432h1.622a4.437,4.437,0,0,0,4.432-4.432V44.152a3.643,3.643,0,0,0,1.549-2.979V40.43l6.15-9.575Z" transform="translate(-10.337 -7.397)" fill="#f8f3f2"/>
              <g id="Group_1205545" data-name="Group 1205545" transform="translate(6.755)">
                <g id="Group_1205544" data-name="Group 1205544" transform="translate(0 23.458)">
                  <g id="XMLID_248_">
                    <g id="Group_1205543" data-name="Group 1205543">
                      <g id="Group_1205541" data-name="Group 1205541">
                        <path id="Path_1599174" data-name="Path 1599174" d="M19.882,66.542V30.855H15.171a1.11,1.11,0,0,0-1.11,1.112v33.4l6.01,2.2A2.854,2.854,0,0,1,19.882,66.542Z" transform="translate(-14.061 -30.855)" fill="#f8f3f2"/>
                      </g>
                      <g id="Group_1205542" data-name="Group 1205542" transform="translate(0 34.508)">
                        <path id="Path_1599175" data-name="Path 1599175" d="M38.7,80.933v.046H15.694a1.633,1.633,0,0,1-1.633-1.634V74.3H32.074a6.63,6.63,0,0,1,6.63,6.63Z" transform="translate(-14.061 -74.303)" fill="#f2eae7"/>
                        <path id="Path_1599176" data-name="Path 1599176" d="M69.731,74.3v5.042A1.633,1.633,0,0,1,68.1,80.979H45.088v-.046a6.63,6.63,0,0,1,6.63-6.63Z" transform="translate(-20.445 -74.303)" fill="#f2eae7"/>
                      </g>
                    </g>
                  </g>
                </g>
                <path id="Path_1599177" data-name="Path 1599177" d="M47.419,43.683H41.127v4.277a2.335,2.335,0,0,0,2.335,2.335h1.622a2.335,2.335,0,0,0,2.335-2.335Z" transform="translate(-19.63 -10.036)" fill="#a59ca6"/>
                <path id="Path_1599178" data-name="Path 1599178" d="M47.419,43.683H41.127v4.277a2.335,2.335,0,0,0,2.335,2.335h1.622a2.333,2.333,0,0,0,2.074-1.266,2.363,2.363,0,0,1-.274.017H45.262a2.334,2.334,0,0,1-2.209-1.582.533.533,0,0,1,.5-.706H47.42V43.683Z" transform="translate(-19.63 -10.036)" fill="#8f8390"/>
                <path id="Path_1599179" data-name="Path 1599179" d="M55.421,15.265a13.945,13.945,0,1,0-25.35,8.025l6.71,10.446V35.1a1.549,1.549,0,0,0,1.549,1.549h6.293A1.549,1.549,0,0,0,46.17,35.1V33.737l6.71-10.446a13.88,13.88,0,0,0,2.54-8.025Z" transform="translate(-16.832 -1.32)" fill="#fbe88c"/>
                <path id="Path_1599180" data-name="Path 1599180" d="M35.951,25.07A15.356,15.356,0,0,1,33.3,16.395,14.977,14.977,0,0,1,44.665,1.687a13.948,13.948,0,0,0-14.595,21.6l6.71,10.446V35.1a1.549,1.549,0,0,0,1.549,1.549h3.985Z" transform="translate(-16.832 -1.32)" fill="#fbe372"/>
              </g>
              <g id="Group_1205546" data-name="Group 1205546" transform="translate(6.755 57.967)">
                <path id="Path_1599181" data-name="Path 1599181" d="M45.61,79.4a6.61,6.61,0,0,0-.522,2.583v.046H68.1a1.633,1.633,0,0,0,1.633-1.634V79.4H45.61Z" transform="translate(-20.445 -75.351)" fill="#ede2dd"/>
                <path id="Path_1599182" data-name="Path 1599182" d="M22.75,78.349a2.868,2.868,0,0,1-2.868-2.868V74.3H14.061v5.042a1.633,1.633,0,0,0,1.633,1.634H38.7v-.046a6.608,6.608,0,0,0-.522-2.583Z" transform="translate(-14.061 -74.303)" fill="#ede2dd"/>
              </g>
            </g>
            <g id="Group_1205548" data-name="Group 1205548" transform="translate(0 0)">
              <path id="Path_1599183" data-name="Path 1599183" d="M66.636,32.173h-4.26v-.478a2.162,2.162,0,0,0-2.16-2.16h-8.4a1.049,1.049,0,0,0,0,2.1h8.4a.063.063,0,0,1,.063.062V44.48a1.049,1.049,0,1,0,2.1,0V34.27h4.26a.257.257,0,0,1,.257.257V71.11a4.357,4.357,0,0,1-4.352,4.352H10.685A4.357,4.357,0,0,1,6.333,71.11V34.528a.257.257,0,0,1,.257-.257h4.4V70.134a2.685,2.685,0,0,0,2.682,2.682H59.693a2.685,2.685,0,0,0,2.682-2.682V48.953a1.049,1.049,0,0,0-2.1,0v15.09H43.313a7.656,7.656,0,0,0-5.581,2.413V52.892a1.049,1.049,0,0,0-2.1,0V66.456a7.656,7.656,0,0,0-5.581-2.413H25.288a1.049,1.049,0,1,0,0,2.1h4.765a5.589,5.589,0,0,1,5.489,4.579H13.672a.585.585,0,0,1-.585-.585V66.14h7.728a1.049,1.049,0,1,0,0-2.1H13.087V31.695a.063.063,0,0,1,.063-.062h8.4a1.049,1.049,0,1,0,0-2.1h-8.4a2.162,2.162,0,0,0-2.16,2.16v.478H6.59a2.357,2.357,0,0,0-2.354,2.354V71.11a6.456,6.456,0,0,0,6.449,6.449H62.541A6.456,6.456,0,0,0,68.99,71.11V34.528a2.357,2.357,0,0,0-2.354-2.354ZM43.313,66.14H60.278v3.994a.585.585,0,0,1-.585.585H37.823a5.589,5.589,0,0,1,5.489-4.579Z" transform="translate(-4.236 -6.077)"/>
              <path id="Path_1599184" data-name="Path 1599184" d="M27.24,14.713a1.05,1.05,0,0,0,1.142-.946,12.9,12.9,0,1,1,23.386,8.648l-.025.037L45.033,32.9a1.049,1.049,0,0,0-.166.567v1.358a.5.5,0,0,1-.5.5H44.3l.668-11.335h1.195a3.1,3.1,0,0,0,3.1-3.1v-.127a3.1,3.1,0,0,0-6.194-.182l-.077,1.312H39.312l-.077-1.312a3.1,3.1,0,0,0-6.194.182v.127a3.1,3.1,0,0,0,3.1,3.1h1.195L38,35.317a.5.5,0,0,1-.428-.493V33.466a1.05,1.05,0,0,0-.166-.567L30.7,22.453l-.025-.037a12.776,12.776,0,0,1-2.019-4.521,1.049,1.049,0,0,0-2.044.47,14.865,14.865,0,0,0,2.336,5.24l6.532,10.169v1.051A2.6,2.6,0,0,0,37.026,37.2v1.773a3.388,3.388,0,0,0,3.384,3.384h1.622a3.388,3.388,0,0,0,3.384-3.384V37.2a2.6,2.6,0,0,0,1.549-2.374V33.773L53.5,23.6a14.994,14.994,0,1,0-27.2-10.034,1.048,1.048,0,0,0,.945,1.142ZM45.16,20.7a1,1,0,0,1,2,.059v.127a1,1,0,0,1-1,1H45.09Zm-9.02,1.189a1,1,0,0,1-1-1v-.127a1,1,0,0,1,2-.059l.07,1.189Zm6.725,2.1L42.2,35.324H40.1l-.668-11.335Zm.453,14.983a1.288,1.288,0,0,1-1.287,1.287H40.409a1.288,1.288,0,0,1-1.287-1.287v-1.55h4.2v1.55Z" transform="translate(-8.773 0)"/>
              <path id="Path_1599185" data-name="Path 1599185" d="M67.942,8.961a1.045,1.045,0,0,0,.691-.261l2.288-2.009a1.049,1.049,0,0,0-1.384-1.576L67.25,7.125a1.049,1.049,0,0,0,.692,1.837Z" transform="translate(-17.128 -0.999)"/>
              <path id="Path_1599186" data-name="Path 1599186" d="M67.25,17.512l2.288,2.009a1.049,1.049,0,0,0,1.384-1.576l-2.288-2.009a1.049,1.049,0,0,0-1.384,1.576Z" transform="translate(-17.128 -3.225)"/>
              <path id="Path_1599187" data-name="Path 1599187" d="M18.119,6.692,20.407,8.7A1.049,1.049,0,1,0,21.79,7.125L19.5,5.116a1.049,1.049,0,0,0-1.384,1.576Z" transform="translate(-7.019 -0.999)"/>
              <path id="Path_1599188" data-name="Path 1599188" d="M18.811,19.781a1.045,1.045,0,0,0,.692-.261l2.288-2.009a1.049,1.049,0,0,0-1.384-1.576l-2.288,2.009a1.049,1.049,0,0,0,.692,1.837Z" transform="translate(-7.019 -3.225)"/>
              <path id="Path_1599189" data-name="Path 1599189" d="M30.188,45.523a1.049,1.049,0,0,0-1.049-1.049H18.811a1.049,1.049,0,1,0,0,2.1H29.14A1.049,1.049,0,0,0,30.188,45.523Z" transform="translate(-7.019 -9.151)"/>
              <path id="Path_1599190" data-name="Path 1599190" d="M32.825,51.19H21.2a1.049,1.049,0,1,0,0,2.1H32.825a1.049,1.049,0,1,0,0-2.1Z" transform="translate(-7.51 -10.532)"/>
              <path id="Path_1599191" data-name="Path 1599191" d="M32.825,57.623H21.2a1.049,1.049,0,1,0,0,2.1H32.825a1.049,1.049,0,0,0,0-2.1Z" transform="translate(-7.51 -11.856)"/>
              <path id="Path_1599192" data-name="Path 1599192" d="M32.825,64.055H21.2a1.049,1.049,0,1,0,0,2.1H32.825a1.049,1.049,0,1,0,0-2.1Z" transform="translate(-7.51 -13.179)"/>
              <path id="Path_1599193" data-name="Path 1599193" d="M69.2,45.523a1.049,1.049,0,0,0-1.049-1.049H57.818a1.049,1.049,0,0,0,0,2.1H68.147A1.049,1.049,0,0,0,69.2,45.523Z" transform="translate(-15.045 -9.151)"/>
              <path id="Path_1599194" data-name="Path 1599194" d="M65.425,51.19H53.8a1.049,1.049,0,1,0,0,2.1H65.425a1.049,1.049,0,0,0,0-2.1Z" transform="translate(-14.217 -10.532)"/>
              <path id="Path_1599195" data-name="Path 1599195" d="M65.425,57.623H53.8a1.049,1.049,0,0,0,0,2.1H65.425a1.049,1.049,0,0,0,0-2.1Z" transform="translate(-14.217 -11.856)"/>
              <path id="Path_1599196" data-name="Path 1599196" d="M65.425,64.055H53.8a1.049,1.049,0,1,0,0,2.1H65.425a1.049,1.049,0,0,0,0-2.1Z" transform="translate(-14.217 -13.179)"/>
            </g>
          </g>
        </g>
      </g>
      <g id="Rectangle_412583-2" data-name="Rectangle 412583" transform="translate(-8662 -1990)" fill="#fff" stroke="#707070" stroke-width="1" opacity="0">
        <rect width="51" height="50" stroke="none"/>
        <rect x="0.5" y="0.5" width="50" height="49" fill="none"/>
      </g>
    </g>
  </g>
</svg>
