<svg xmlns="http://www.w3.org/2000/svg" xmlns:xlink="http://www.w3.org/1999/xlink" width="90" height="90" viewBox="0 0 90 90">
  <defs>
    <clipPath id="clip-path">
      <rect id="Rectangle_412583" data-name="Rectangle 412583" width="64" height="62" transform="translate(-8659 -1987)" fill="#fff" stroke="#707070" stroke-width="1" opacity="0"/>
    </clipPath>
  </defs>
  <g id="Group_1205524" data-name="Group 1205524" transform="translate(8672 2001)">
    <g id="Group_1205426" data-name="Group 1205426" transform="translate(-9479.781 -4554)">
      <g id="Rectangle_411076" data-name="Rectangle 411076" transform="translate(807.781 2553)" fill="#dfe3bc" stroke="#aeba58" stroke-width="3">
        <rect width="90" height="90" rx="20" stroke="none"/>
        <rect x="1.5" y="1.5" width="87" height="87" rx="18.5" fill="none"/>
      </g>
    </g>
    <g id="Mask_Group_1099439" data-name="Mask Group 1099439" clip-path="url(#clip-path)">
      <g id="blindaje" transform="translate(-8659.658 -1988.658)">
        <path id="Path_1599127" data-name="Path 1599127" d="M40.256,7.782h-15.2a26.724,26.724,0,0,1-12.892,8.026V30.046c0,6.9,3.061,13.349,9.1,19.168a44.865,44.865,0,0,0,11.391,7.913,44.805,44.805,0,0,0,11.4-7.912c6.033-5.817,9.093-12.266,9.093-19.168V15.808A26.725,26.725,0,0,1,40.256,7.782Z" fill="#59abff"/>
        <path id="Path_1599128" data-name="Path 1599128" d="M40.256,7.782h-7.6V57.126a44.805,44.805,0,0,0,11.4-7.912c6.033-5.817,9.093-12.266,9.093-19.168V15.808A26.726,26.726,0,0,1,40.256,7.782Z" fill="#4a9be5"/>
        <path id="Path_1599129" data-name="Path 1599129" d="M45.944,35.618l-5.46-9.451-5.457-9.453a2.733,2.733,0,0,0-4.738,0l-5.456,9.452-5.46,9.453a2.735,2.735,0,0,0,2.371,4.1h21.83a2.735,2.735,0,0,0,2.37-4.1Z" fill="#ffdf40"/>
        <path id="Path_1599130" data-name="Path 1599130" d="M43.574,39.722a2.735,2.735,0,0,0,2.37-4.1l-5.46-9.451-5.457-9.453a2.646,2.646,0,0,0-2.371-1.37V39.722Z" fill="#ffbe40"/>
        <path id="Path_1599131" data-name="Path 1599131" d="M32.657,63.658a1.019,1.019,0,0,1-.347-.061c-5.457-1.969-11.613-6.428-15.292-9.974A38.253,38.253,0,0,1,9.1,43,29.238,29.238,0,0,1,6.048,30.046V11.77a1.021,1.021,0,0,1,.846-1.006c4.725-.819,11.12-2.981,14.749-8.637a1.021,1.021,0,0,1,.859-.469H42.811a1.021,1.021,0,0,1,.859.469C47.3,7.783,53.7,9.946,58.422,10.764a1.021,1.021,0,0,1,.846,1.006V30.046A29.238,29.238,0,0,1,56.221,43,38.249,38.249,0,0,1,48.3,53.624C44.618,57.17,38.461,61.63,33,63.6a1.021,1.021,0,0,1-.345.06ZM8.09,12.618V30.046c0,8.052,3.48,15.49,10.345,22.108,3.444,3.32,9.134,7.468,14.223,9.4,5.09-1.927,10.781-6.075,14.226-9.4C53.746,45.536,57.227,38.1,57.227,30.046V12.618a28.218,28.218,0,0,1-8.255-2.947A19.566,19.566,0,0,1,42.264,3.7H23.05a19.546,19.546,0,0,1-6.705,5.972A28.213,28.213,0,0,1,8.09,12.618ZM32.657,59.265a1.019,1.019,0,0,1-.408-.085,46.517,46.517,0,0,1-12.4-8.5A34.319,34.319,0,0,1,12.859,41.4a25.239,25.239,0,0,1-2.73-11.355V15.039a1.021,1.021,0,0,1,.75-.984A24.8,24.8,0,0,0,23.791,6.119a1.021,1.021,0,0,1,.791-.378H40.735a1.021,1.021,0,0,1,.792.378,24.8,24.8,0,0,0,12.908,7.936,1.021,1.021,0,0,1,.75.984V30.046A25.254,25.254,0,0,1,52.457,41.4a34.3,34.3,0,0,1-6.989,9.283,46.493,46.493,0,0,1-12.4,8.5,1.02,1.02,0,0,1-.408.085ZM12.168,15.808V30.046c0,6.9,3.061,13.349,9.1,19.168a44.865,44.865,0,0,0,11.391,7.913,44.805,44.805,0,0,0,11.4-7.912c6.033-5.817,9.093-12.266,9.093-19.168V15.808A26.725,26.725,0,0,1,40.256,7.782h-15.2a26.723,26.723,0,0,1-12.892,8.026ZM32.657,31.4a2.923,2.923,0,0,1-2.87-2.818l-.333-6.54a3.016,3.016,0,0,1,.845-2.246,3.253,3.253,0,0,1,4.72,0,3.014,3.014,0,0,1,.845,2.246l-.333,6.538a2.919,2.919,0,0,1-2.874,2.82Zm0-10.577a1.218,1.218,0,0,0-.879.379,1,1,0,0,0-.286.736l.333,6.538a.835.835,0,1,0,1.668,0l.333-6.539a1,1,0,0,0-.286-.736,1.223,1.223,0,0,0-.883-.38Zm0,17.477a2.876,2.876,0,1,1,2.876-2.876,2.876,2.876,0,0,1-2.876,2.876Zm0-3.71a.834.834,0,1,0,.834.834.834.834,0,0,0-.834-.834Zm10.917,7.178H21.743A4.776,4.776,0,0,1,17.6,34.6l5.46-9.454,5.457-9.452a4.774,4.774,0,0,1,8.273,0h0l5.457,9.453L47.712,34.6a4.776,4.776,0,0,1-4.138,7.165ZM32.657,15.343a2.644,2.644,0,0,0-2.368,1.371l-5.456,9.451-5.46,9.453a2.735,2.735,0,0,0,2.371,4.1h21.83a2.735,2.735,0,0,0,2.37-4.1l-5.46-9.451-5.457-9.453a2.646,2.646,0,0,0-2.37-1.37Z"/>
        <path id="Path_1599132" data-name="Path 1599132" d="M32.657,34.585a.834.834,0,1,0,.834.834.834.834,0,0,0-.834-.834Z" fill="#ec4c36"/>
        <path id="Path_1599133" data-name="Path 1599133" d="M32.657,29.354a.873.873,0,0,0,.836-.882l.333-6.539a1,1,0,0,0-.286-.736,1.212,1.212,0,0,0-1.761,0,1,1,0,0,0-.286.736l.333,6.538A.875.875,0,0,0,32.657,29.354Z" fill="#ec4c36"/>
        <path id="Path_1599134" data-name="Path 1599134" d="M18.434,52.154c3.444,3.32,9.134,7.468,14.223,9.4,5.09-1.927,10.781-6.075,14.226-9.4C53.746,45.536,57.227,38.1,57.227,30.046V12.618a28.218,28.218,0,0,1-8.255-2.947A19.566,19.566,0,0,1,42.264,3.7H23.05a19.546,19.546,0,0,1-6.705,5.972A28.222,28.222,0,0,1,8.09,12.618V30.046C8.09,38.1,11.57,45.536,18.434,52.154ZM10.127,30.046V15.039a1.021,1.021,0,0,1,.75-.984A24.8,24.8,0,0,0,23.789,6.119a1.021,1.021,0,0,1,.792-.378H40.735a1.021,1.021,0,0,1,.792.378,24.8,24.8,0,0,0,12.908,7.936,1.021,1.021,0,0,1,.75.984V30.046A25.254,25.254,0,0,1,52.457,41.4a34.3,34.3,0,0,1-6.989,9.283,46.493,46.493,0,0,1-12.4,8.5,1.021,1.021,0,0,1-.817,0,46.517,46.517,0,0,1-12.4-8.5A34.319,34.319,0,0,1,12.858,41.4a25.233,25.233,0,0,1-2.731-11.356Z" fill="#bec7cf"/>
        <path id="Path_1599135" data-name="Path 1599135" d="M42.264,3.7H32.657V5.741h8.078a1.021,1.021,0,0,1,.792.378,24.8,24.8,0,0,0,12.908,7.936,1.021,1.021,0,0,1,.75.984V30.046A25.254,25.254,0,0,1,52.457,41.4a34.3,34.3,0,0,1-6.989,9.283,46.493,46.493,0,0,1-12.4,8.5,1.021,1.021,0,0,1-.408.085V61.55c5.09-1.927,10.781-6.075,14.226-9.4C53.747,45.536,57.227,38.1,57.227,30.046V12.618a28.218,28.218,0,0,1-8.255-2.947A19.565,19.565,0,0,1,42.264,3.7Z" fill="#abb3ba"/>
      </g>
    </g>
  </g>
</svg>
