<svg xmlns="http://www.w3.org/2000/svg" xmlns:xlink="http://www.w3.org/1999/xlink" width="90" height="90" viewBox="0 0 90 90">
  <defs>
    <clipPath id="clip-path">
      <rect id="Rectangle_412583" data-name="Rectangle 412583" width="64" height="62" transform="translate(-8659 -1987)" fill="#fff" stroke="#707070" stroke-width="1" opacity="0"/>
    </clipPath>
  </defs>
  <g id="Group_1205525" data-name="Group 1205525" transform="translate(8672 2001)">
    <g id="Group_1205426" data-name="Group 1205426" transform="translate(-9479.781 -4554)">
      <g id="Rectangle_411076" data-name="Rectangle 411076" transform="translate(807.781 2553)" fill="#dfe3bc" stroke="#aeba58" stroke-width="3">
        <rect width="90" height="90" rx="20" stroke="none"/>
        <rect x="1.5" y="1.5" width="87" height="87" rx="18.5" fill="none"/>
      </g>
    </g>
    <g id="Mask_Group_1099440" data-name="Mask Group 1099440" clip-path="url(#clip-path)">
      <g id="lupa_1_" data-name="lupa (1)" transform="translate(-8658 -1987)">
        <path id="Path_1599136" data-name="Path 1599136" d="M36.938,42.985l17.1,17.1a2.422,2.422,0,0,0,3.425,0l2.622-2.622a2.422,2.422,0,0,0,0-3.425l-17.1-17.1Zm0,0" fill="#ff5d5d"/>
        <path id="Path_1599137" data-name="Path 1599137" d="M47.345,41.3,41.3,47.345l-4.359-4.36,6.047-6.047Zm0,0" fill="#d8d8e4"/>
        <path id="Path_1599138" data-name="Path 1599138" d="M46.743,23.977A22.766,22.766,0,1,1,23.977,1.211,22.766,22.766,0,0,1,46.743,23.977Zm0,0" fill="#72d8ff"/>
        <path id="Path_1599139" data-name="Path 1599139" d="M39.962,23.977A15.985,15.985,0,1,1,23.977,7.992,15.985,15.985,0,0,1,39.962,23.977Zm0,0" fill="#fff"/>
        <path id="Path_1599140" data-name="Path 1599140" d="M22.777,30.667l-6.389-6.389,3.425-3.425,2.963,2.963,7.039-7.039L33.241,20.2Zm0,0" fill="#ff5d5d"/>
        <path id="Path_1599141" data-name="Path 1599141" d="M22.777,31.878a1.207,1.207,0,0,0,.857-.355L34.1,21.059a1.21,1.21,0,0,0,0-1.712l-3.425-3.425a1.211,1.211,0,0,0-1.712,0L22.777,22.1,20.67,20a1.212,1.212,0,0,0-1.712,0l-3.426,3.425a1.212,1.212,0,0,0,0,1.713l6.389,6.389a1.207,1.207,0,0,0,.856.355Zm-2.963-9.312,2.107,2.108a1.212,1.212,0,0,0,1.712,0l6.183-6.183L31.528,20.2l-8.751,8.752L18.1,24.278Zm0,0"/>
        <path id="Path_1599142" data-name="Path 1599142" d="M13.45,34.343a1.211,1.211,0,1,0-1.723,1.7l.091.091a1.211,1.211,0,1,0,1.712-1.713Zm0,0"/>
        <path id="Path_1599143" data-name="Path 1599143" d="M36.136,11.818A17.2,17.2,0,0,0,8.648,31.779a1.211,1.211,0,0,0,2.158-1.1,14.773,14.773,0,1,1,6.943,6.7,1.211,1.211,0,1,0-1.02,2.2A17.2,17.2,0,0,0,36.136,11.818Zm0,0"/>
        <path id="Path_1599144" data-name="Path 1599144" d="M60.937,53.178,44.355,36.6a24,24,0,1,0-7.76,7.759L53.177,60.937a3.637,3.637,0,0,0,5.138,0l2.622-2.622a3.637,3.637,0,0,0,0-5.137ZM2.422,23.977A21.555,21.555,0,1,1,23.977,45.532,21.579,21.579,0,0,1,2.422,23.977Zm40.529,14.64,2.68,2.681L41.3,45.632l-2.681-2.681a24.18,24.18,0,0,0,4.335-4.334ZM59.224,56.6,56.6,59.225a1.212,1.212,0,0,1-1.712,0L43.01,47.345l4.334-4.334L59.224,54.89a1.213,1.213,0,0,1,0,1.713Zm0,0"/>
      </g>
    </g>
  </g>
</svg>
