<svg xmlns="http://www.w3.org/2000/svg" xmlns:xlink="http://www.w3.org/1999/xlink" width="90" height="90" viewBox="0 0 90 90">
  <defs>
    <clipPath id="clip-path">
      <rect id="Rectangle_412583" data-name="Rectangle 412583" width="64" height="62" transform="translate(-8659 -1987)" fill="#fff" stroke="#707070" stroke-width="1" opacity="0"/>
    </clipPath>
  </defs>
  <g id="Group_1205512" data-name="Group 1205512" transform="translate(6784 7089)">
    <g id="Group_1205509" data-name="Group 1205509" transform="translate(1888 -5088)">
      <g id="Group_1205426" data-name="Group 1205426" transform="translate(-9479.781 -4554)">
        <g id="Rectangle_411076" data-name="Rectangle 411076" transform="translate(807.781 2553)" fill="#dfe3bc" stroke="#aeba58" stroke-width="3">
          <rect width="90" height="90" rx="20" stroke="none"/>
          <rect x="1.5" y="1.5" width="87" height="87" rx="18.5" fill="none"/>
        </g>
      </g>
      <g id="Mask_Group_1099435" data-name="Mask Group 1099435" clip-path="url(#clip-path)">
        <g id="maiz" transform="translate(-8647.726 -1987)">
          <path id="Path_1598874" data-name="Path 1598874" d="M24.6,56.833a1.279,1.279,0,0,0-1.292,1.292H20.728a1.292,1.292,0,1,0-2.584,0v2.583A1.279,1.279,0,0,0,19.437,62H24.6a1.279,1.279,0,0,0,1.291-1.292V58.125A1.279,1.279,0,0,0,24.6,56.833Zm0,0" fill="#388e3c"/>
          <g id="Group_1205512-2" data-name="Group 1205512">
            <path id="Path_1598875" data-name="Path 1598875" d="M13.65,18.083h7.078V23.25H13.107c.1-1.808.31-3.539.543-5.167Zm0,0" fill="#ffd54f"/>
            <path id="Path_1598876" data-name="Path 1598876" d="M14.115,15.5a41.915,41.915,0,0,1,1.447-5.167h5.167V15.5Zm0,0" fill="#ffd54f"/>
            <path id="Path_1598877" data-name="Path 1598877" d="M23.312,10.333H28.5a40.409,40.409,0,0,1,1.447,5.193c-.078,0-.129-.026-.181-.026H23.312Zm0,0" fill="#ffd54f"/>
            <path id="Path_1598878" data-name="Path 1598878" d="M27.419,7.75H23.312V2.867C24.81,3.513,26.2,5.244,27.419,7.75Zm0,0" fill="#ffd54f"/>
            <path id="Path_1598879" data-name="Path 1598879" d="M20.728,2.919V7.75H16.647C17.886,5.218,19.307,3.565,20.728,2.919Zm0,0" fill="#ffd54f"/>
            <path id="Path_1598880" data-name="Path 1598880" d="M12.978,27.125c0-.439.026-.852.026-1.292h7.724V31H15.975a26.251,26.251,0,0,0-3-3.539Zm0,0" fill="#ffd54f"/>
            <path id="Path_1598881" data-name="Path 1598881" d="M20.728,39.086c-.982-2.015-1.964-3.875-2.971-5.5h2.971Zm0,0" fill="#ffd54f"/>
            <path id="Path_1598882" data-name="Path 1598882" d="M23.312,25.833H26.8a75.324,75.324,0,0,0-3.488,8.887Zm0,0" fill="#ffd54f"/>
            <path id="Path_1598883" data-name="Path 1598883" d="M28.117,23.25h-4.8V18.083H29.77a1.568,1.568,0,0,0,.595-.155c.077.439.129.852.181,1.291a39.7,39.7,0,0,0-2.428,4.03Zm0,0" fill="#ffd54f"/>
          </g>
          <path id="Path_1598884" data-name="Path 1598884" d="M41.214,13.536a1.3,1.3,0,0,0-1.033-.62c-8.913-.569-16.069,17.1-18.626,27.874C13.857,23.612,6.288,22.475,1.172,23.276A1.264,1.264,0,0,0,.062,24.567a1.328,1.328,0,0,0,1.163,1.266c6.174.646,7.13,9.791,7.621,14.725.1.9.181,1.679.258,2.273.052.336.1.749.155,1.188.646,4.6,2.093,15.4,12.762,15.4,12.22,0,13.408-18.084,14-26.764.078-1.111.129-2.067.207-2.816.491-4.908,1.5-7.1,3.462-11.47.491-1.085,1.008-2.273,1.6-3.642a1.372,1.372,0,0,0-.078-1.189Zm0,0" fill="#4caf50"/>
          <path id="Path_1598885" data-name="Path 1598885" d="M22.02,46.5a1.249,1.249,0,0,1-1.188-.827c-3.1-7.853-6.458-13.485-10-16.714a1.252,1.252,0,0,1-.413-.93l-.026-.9C10.395,11.909,15.51,0,22.02,0c5.348,0,9.714,7.621,11.16,19.4a1.33,1.33,0,0,1-.232.93C28.065,27,24.19,39.189,23.312,45.415a1.316,1.316,0,0,1-1.137,1.111.325.325,0,0,0-.155-.026ZM12.978,27.461C16,30.38,18.894,34.875,21.555,40.817c1.55-6.536,4.779-15.655,8.99-21.6C29.279,9.558,25.714,2.583,22.02,2.583c-4.288,0-9.041,10.075-9.041,24.542Zm0,0"/>
          <path id="Path_1598886" data-name="Path 1598886" d="M22.02,59.417c-10.669,0-12.116-10.8-12.736-15.4-.052-.439-.1-.852-.155-1.188-.1-.594-.181-1.369-.258-2.273-.517-4.934-1.447-14.1-7.621-14.725A1.33,1.33,0,0,1,.061,24.567,1.308,1.308,0,0,1,1.172,23.25c5.141-.775,12.685.336,20.409,17.541,2.558-10.772,9.687-28.442,18.6-27.874a1.256,1.256,0,0,1,1.007.62,1.29,1.29,0,0,1,.078,1.189c-.594,1.369-1.137,2.583-1.6,3.642-1.963,4.392-2.945,6.587-3.462,11.47-.078.749-.129,1.705-.207,2.816-.568,8.68-1.756,26.764-13.976,26.764Zm-14.6-32.86c2.971,3.771,3.591,9.868,4,13.743.078.852.155,1.576.258,2.144.052.361.1.775.181,1.266.827,6.329,2.4,13.123,10.152,13.123,9.791,0,10.876-16.456,11.418-24.361.078-1.163.155-2.144.207-2.893.543-5.321,1.654-7.776,3.668-12.271.207-.465.439-.956.672-1.5-7.181,2.713-13.51,21.416-14.7,29.58A1.315,1.315,0,0,1,22.149,46.5a1.27,1.27,0,0,1-1.343-.8c-4.96-12.606-9.714-17.411-13.382-19.142Zm0,0"/>
          <path id="Path_1598887" data-name="Path 1598887" d="M24.6,62H19.437a1.279,1.279,0,0,1-1.292-1.292V58.125a1.292,1.292,0,1,1,2.584,0v1.292h2.583V58.125a1.292,1.292,0,1,1,2.583,0v2.583A1.279,1.279,0,0,1,24.6,62Zm0,0"/>
          <path id="Path_1598888" data-name="Path 1598888" d="M22.02,45.208a1.279,1.279,0,0,1-1.291-1.291V1.292a1.292,1.292,0,1,1,2.583,0V43.917A1.279,1.279,0,0,1,22.02,45.208Zm0,0"/>
          <path id="Path_1598889" data-name="Path 1598889" d="M28.478,10.333H15.562a1.292,1.292,0,1,1,0-2.583H28.478a1.292,1.292,0,0,1,0,2.583Zm0,0"/>
          <path id="Path_1598890" data-name="Path 1598890" d="M29.77,18.083H12.978a1.292,1.292,0,1,1,0-2.583H29.77a1.292,1.292,0,1,1,0,2.583Zm0,0"/>
          <path id="Path_1598891" data-name="Path 1598891" d="M28.478,25.833h-15.5a1.292,1.292,0,1,1,0-2.583h15.5a1.292,1.292,0,0,1,0,2.583Zm0,0"/>
          <path id="Path_1598892" data-name="Path 1598892" d="M22.02,33.583H15.562a1.292,1.292,0,1,1,0-2.583H22.02a1.292,1.292,0,1,1,0,2.583Zm0,0"/>
        </g>
      </g>
    </g>
  </g>
</svg>
